<svg id="leaf_2" xmlns="http://www.w3.org/2000/svg" width="588.279" height="554.075" viewBox="0 0 588.279 554.075">
  <g id="leaf_2-2" data-name="leaf_2" transform="translate(184.076 -37.839) rotate(-72)" opacity="0.1">
    <path id="Path_10" data-name="Path 10" d="M-471.229,167.608c.678-4.514-1.172-8.636-2.008-12.913a26.626,26.626,0,0,1-.773-3.536c-.226-4.136.105-8.333-1.6-12.271-.078-6.568-1.122-13.212,1.517-19.568.467-1.127.968-2.242,1.5-3.343a4.376,4.376,0,0,1,3.215-2.69c1.86-.372,2.407,1.23,3.488,2.054a5.588,5.588,0,0,0,.256-4.971c-1.843-4.3-1.273-8.753-.822-13.038.372-3.533-.068-7.086.52-10.517.628-3.676.238-7.312.395-10.958a105.02,105.02,0,0,1,1.357-15.245c.992-5.241,1.777-10.518,2.938-15.751a30.943,30.943,0,0,1,3.014-8.938c1.845-3.226,1.923-7.015,3.218-10.426.523-1.381.929-2.777,2.551-3.264.446.157,1.128.181,1.288.483,1.986,3.745,5.563,6.131,8.014,9.491,2.276,3.119,4.23,6.545,7.562,8.81.74.5,1.053,1.6,1.64,2.367,3.12,4.062,5.357,8.742,8.875,12.535a18.859,18.859,0,0,1,1.78,3.169c3.033,4.982,6.074,9.961,9.169,14.905a1.38,1.38,0,0,0,1.881.636c.383-.217.9-.622.925-.974A27.8,27.8,0,0,1-408.9,65.26a3.2,3.2,0,0,1,5.375-1.223c2.057,2.075,3.932,4.331,5.877,6.518.158.178.19.479.36.631,5.45,4.895,8.3,11.286,10.486,18.075a3.5,3.5,0,0,0,.88,1.139,3.7,3.7,0,0,0,.807.458,27.109,27.109,0,0,0,3.583-10.88,2.335,2.335,0,0,1,1.736-2.116,2.575,2.575,0,0,1,3.116,1.27c3.236,7.181,8.9,12.779,12.676,19.622,2.13,3.857,4.086,7.56,4.9,12.048.625,3.471.836,7.277,3,10.557,2.48-2.009,2-5.069,2.648-7.354,1.857-1.291,3.4-1.446,5.227.074.2,1.637.429,3.541.682,5.623a42.749,42.749,0,0,1,10.361,18.1c1.185,4.208,2.848,8.285,4.385,12.387a48.54,48.54,0,0,0,2.366,4.541c1.006-7.979,2.782-14.773,3.458-21.828.5-5.251,2.378-10.375,3.678-15.545,1.184-4.709,2.929-9.23,3.727-14.1.736-4.5,2.732-8.8,4.253-13.16,1.154-3.3,1.685-3.535,6.39-3.236,2.974,4.093,3.616,9.337,6.105,14.312,1.512-3.556,2.947-6.8,4.277-10.09a177.052,177.052,0,0,1,16.878-32.366c4.209-6.286,8.426-12.575,12.375-19.026,2.607-4.258,6.443-7.328,9.7-10.953.884-.985,2.53-1.285,3.571-1.779,3.312,1.321,1.523,4.523,2.905,6.456,3.167-1.852,4.506-5.2,6.533-7.876,2.374-3.131,5.03-5.94,7.678-8.8,7.666-8.274,16.518-15.2,25.233-22.279a28.413,28.413,0,0,1,4.991-3.038q6.845-3.515,13.774-6.86c3.309-1.6,6.527-3.307,9.117-6.074a11.412,11.412,0,0,1,2.09.7c2.066,1.2,2.831,2.322,2.137,4.014A21.671,21.671,0,0,0-183.1-8.207a10.191,10.191,0,0,0,.56,2.226,7.16,7.16,0,0,0,2.087-.569,185.574,185.574,0,0,1,28-15.771c5.76-2.59,11.458-5.309,17.307-7.711a96.71,96.71,0,0,1,18.858-5.384,35.476,35.476,0,0,0,6.962-2.13,3.98,3.98,0,0,1,4.7.753c1.511,1.4,1.238,3.214.6,4.78-1.194,2.935-2.7,5.741-4.035,8.623-.5,1.072-1.515,1.971-1.126,3.678,2.366,1.133,5.069.678,7.631.4,4.1-.45,8.149-1.343,12.233-1.953C-81.8-22.392-75.016-25.9-67.766-27.9a8.163,8.163,0,0,0,3.706-2.262c.858-.87,1.6-1.852,2.473-2.712,2.992-2.964,6.735-2.014,7.527,2.151,1.453,7.628,3.17,15.292.636,23.074A17.591,17.591,0,0,0-53.656-4c-.3,3.143.1,6.364-1.235,9.4a6.459,6.459,0,0,0-.256,2.9c.426,6.639-1.8,13.051-1.649,19.664a7.457,7.457,0,0,1-.324,2.161c-2.658,9.34-5.378,18.664-8,28.014-2.4,8.538-6.508,16.318-10.8,23.97-2.008,3.58-4.916,6.658-7.449,9.938a3.288,3.288,0,0,0-.982,2.649,3.986,3.986,0,0,0,4.117.523c3.649-1.282,7.756-1.182,11.024-3.623a4.2,4.2,0,0,1,1.349-.535A4.141,4.141,0,0,1-62.788,94.1a26.064,26.064,0,0,1-.038,9.5c-.381,2.634-.985,5.265-1.547,7.866a26.1,26.1,0,0,1-2.884,7.429c-3.616,6.328-6.828,12.886-10.1,19.152,1.357,2.389,3.277,1.276,4.809,1.5,3.584.526,5.194,2.9,3.9,6.2a25.861,25.861,0,0,1-1.962,3.931c-4.8,7.934-9.718,15.759-16.358,22.392-3.309,3.3-7.134,5.886-10.742,8.762-4.376,3.489-9.041,6.617-13.512,9.994-1.111.839-2.48,1.613-2.687,3.342,1.624,3.185,5.98,1.649,7.89,4.476,0,.4.166.937-.024,1.274-2.757,4.908-5.985,9.452-10.473,12.961a26.768,26.768,0,0,0-2.934,2.137c-8.69,9.032-19.754,14.12-31.06,18.813a77.237,77.237,0,0,0-12.038,6.31,15.884,15.884,0,0,0,6.077,2.37,113.676,113.676,0,0,1,13.575,2.69,37.156,37.156,0,0,1,5.529,1.831,19.374,19.374,0,0,0,4.913,1.3c7.3,1.306,14.089,3.785,19.509,9.152a10.151,10.151,0,0,0,2.8,2.34c3.965,1.684,4,4.387,2.34,7.7-.072.146.122.425.3.979,7.6.753,14.92,3.48,22.529,5.044,3.753.773,7.239,2.788,10.908,4.066a10.9,10.9,0,0,1,3.312,1.431c2.73,2.1,3.158,4.337.756,6.792-3.758,3.836-7.762,7.429-11.684,11.1-.884.83-1.956,1.471-2.776,2.355a32.615,32.615,0,0,1-12.134,8,24.405,24.405,0,0,1-4.857,1.4,54.87,54.87,0,0,0-7.691,2.208c-.548.184-.9.955-1.515,1.654a24.833,24.833,0,0,1,3.863.488c3.373.992,4.208,4.411,1.723,6.773a10.061,10.061,0,0,1-1.125.946c-8.369,5.875-16.253,12.426-25.693,16.75a166.766,166.766,0,0,1-16.256,6.408c-2.991,1.009-5.992,2.015-8.9,3.23-4.485,1.874-9.015,3.364-13.956,3.363-.876,0-1.753.718-2.7,1.139,2.352,2.794,7.146,2.476,7.917,6.863-.384,2.1-2.389,2.315-3.839,2.916-3.7,1.533-23.833,6.959-28.179,7.188-7.036.37-14.135,1.152-21.131-.685a20.606,20.606,0,0,0-3.625-.337c-3.389-.258-6.881.279-10.086-1.352-6.194.342-11.976-1.682-17.872-3.083a6.225,6.225,0,0,0-2.105.261c.8,7.235-.209,8.983-6.983,11.289a21.809,21.809,0,0,1-7.869,1.5c-3.422-.125-6.854.039-10.279-.035a21.7,21.7,0,0,1-3.56-.6,18.99,18.99,0,0,0-4.274-.809c-3.5.175-6.7-.959-10-1.777-5.417-1.345-10.836-2.711-16.307-3.8-3.087-.616-6.105-1.5-9.244-2-3.816-.6-7.217-2.881-10.5-4.983-4.712-3.014-9.312-6.2-13.964-9.309-.806-.541-1.617-1.075-2.449-1.575-2.5-1.506-5.393-2.6-7.432-4.577-3.628-3.517-7.56-6.858-10.03-11.429a8.482,8.482,0,0,0-.875-1.128c-.447.105-1.077.059-1.312.34-2.193,2.617-4.455,5.193-6.434,7.967A200.139,200.139,0,0,0-386.8,363.034c-3.735,6.858-7.273,13.809-10.855,20.741a47.761,47.761,0,0,1-3.39,5.645,105.539,105.539,0,0,0-9.249,16.595,62.825,62.825,0,0,1-12.125,18.179c-3.09,3.113-5.8,6.6-8.752,9.858a38.048,38.048,0,0,1-4.7,4.636,48.645,48.645,0,0,1-5.378,3.255c-7.23-.547-12.947-4.681-19.395-6.785a5.3,5.3,0,0,1-3.563-3.407c-.571-1.6-1.437-3.093-2.288-4.878,3.22-5.379,6.429-10.827,9.723-16.221,3.682-6.033,7.095-12.238,11.706-17.67,3.309-3.9,6.44-7.947,9.633-11.943q7.071-8.846,14.119-17.712a54.423,54.423,0,0,1,3.7-4.52c7.592-7.642,15.05-15.434,22.959-22.733,3.938-3.634,8.065-7.081,11.833-10.908,1-1.018,2.285-1.892,2.491-3.526-.273-1.6-1.633-2.339-2.729-3.245-1.309-1.084-2.809-1.943-4.084-3.062a12.18,12.18,0,0,0-4.45-2.355,108.852,108.852,0,0,1-17.621-7.066,12.845,12.845,0,0,0-4.792-1.7c-3.221-.328-6.018-2.014-8.641-3.729-3.868-2.527-7.542-5.36-11.217-8.172s-7.253-5.765-10.875-8.655c-.38-.3-.895-.523-1.124-.911-2.459-4.212-6.374-7.358-8.751-11.566-2.756-4.881-5.134-9.988-7.456-15.1a19.726,19.726,0,0,1-1.666-6.325,23.254,23.254,0,0,0-1.785-6.279,38.789,38.789,0,0,1-3-14.208,23.592,23.592,0,0,1,.508-3.416c1.788-.84,3.307-1.539,4.8-2.282.175-.087.227-.419.407-.774a17.923,17.923,0,0,0-1.509-3.125c-4.09-5.566-5.994-12.215-9.11-18.262a49.691,49.691,0,0,1-5.1-21.107c-.146-3.669-.184-7.343-.258-11.015a4.1,4.1,0,0,1,2.527-4.235l5.1,2.476c.157.517-.069,1.628,1.036.666ZM-356.5,305.8c-2.7,1.351-4.438,3.8-6.523,5.827-3.681,3.574-7.13,7.381-11.518,10.154a13.308,13.308,0,0,0-2.193,1.946c-3.8,3.812-7.624,7.6-11.358,11.477-3.7,3.839-8.758,6.264-11.465,11.151a6.79,6.79,0,0,1-2.23,1.869,57.24,57.24,0,0,0-11.068,10.654c-5.328,6.312-10.374,12.881-15.218,19.572-1.733,2.395-3.7,4.515-5.6,6.733-3.009,3.52-6.185,6.923-8.9,10.661-1.985,2.738-3.559,5.742-5.667,8.467a141.612,141.612,0,0,0-11.709,17.651c-1.193,2.137-1.054,3.4.672,5.247,4.375,4.69,10.264,6.351,16.163,7.846a5.758,5.758,0,0,0,5.392-1.682c1.229-1.16,2.739-2.017,4.02-3.129,4.608-4,9.146-8.047,12.6-13.2a205.112,205.112,0,0,0,11.23-19.679,82.245,82.245,0,0,1,5.474-9.5,54.288,54.288,0,0,0,6.867-12.066,81.118,81.118,0,0,1,4.45-9.128,276.9,276.9,0,0,1,17.687-29.36q7.062-10.209,13.989-20.509c1.492-2.221,2.753-4.6,4.122-6.9a6.364,6.364,0,0,0,.627-4.265c.313-.227,1.369.27.8-.819Zm43.913-210.854c-.658,1.711-.965,2.343-1.148,3.011-1.532,5.623-2.273,11.417-4.31,16.953a71.07,71.07,0,0,0-3.807,14.8c-.381,2.8-1.115,5.63-1.011,8.547.095,2.676-1.738,5.063-1.391,7.878.363,2.95-.6,5.767-1.081,8.646-.559,3.346.05,6.88-.437,10.247-.48,3.318-1.911,6.52-.182,9.858a.757.757,0,0,1-.158.679c-.667.672-1.288,1.622-2.1,1.858-1.035.3-1.717-.584-1.961-1.649-1.185-5.194-2.432-10.375-3.551-15.583-1.482-6.892-3.895-13.514-5.81-20.279A32,32,0,0,0-349.9,123.73,4.159,4.159,0,0,0-351.928,127c-.093,2.441,0,4.892-.155,7.328a10.051,10.051,0,0,1-.851,3.482,2.508,2.508,0,0,1-2.27,1.6,2.858,2.858,0,0,1-2.33-1.517,3.179,3.179,0,0,1-.553-1.333c-1.008-6.238-2.16-12.459-2.914-18.729a32.56,32.56,0,0,0-3.895-12.45c-1.807-3.176-3.593-6.375-5.62-9.408a31.841,31.841,0,0,0-4.364-4.941c-.97-.947-1.616-2.462-3.184-2.438-.443.4-1.026.673-1.122,1.063-1.042,4.218-2.881,8.292-2.224,12.831a6.383,6.383,0,0,1-.556,2.8c-.364,1.057-2.185,2.116-2.943,1.67a8.648,8.648,0,0,1-2.1-1.931,2.657,2.657,0,0,1-.358-1.381c-.8-7.922-3.97-15.023-7.75-21.864a20.583,20.583,0,0,0-9.8-9.459,32,32,0,0,0-4.4,9.217,15.261,15.261,0,0,1-.717,2.054,3.245,3.245,0,0,1-5.5.4,5.918,5.918,0,0,1-1.19-2.589c-.343-3.286-1.985-6.009-3.574-8.742-3.063-5.267-6.245-10.464-9.342-15.711a45.937,45.937,0,0,0-7.806-10.491,33.619,33.619,0,0,1-6.1-7.267c-1.889-3.185-4.858-5.416-7.905-8.111-2.2,5.25-4.259,10.154-6.285,15.072a10.408,10.408,0,0,0-.164,1.453,184.587,184.587,0,0,0-3.363,19.364c-.5,3.866-1.254,7.69-1.089,11.595.169,3.937-1.071,7.724-1.167,11.575-.12,4.828-1.047,9.783.955,14.5-.126,5.526,1.735,10.479,4.313,15.251.864,1.6.452,3.355.045,5.018a2.246,2.246,0,0,1-2.206,1.6,4.562,4.562,0,0,1-3.429-.953,16.8,16.8,0,0,0-3.006-2,1.968,1.968,0,0,0-2.566.791,14.453,14.453,0,0,0-2.188,9.7c.737,5.042-.617,10.321,1.727,15.155.086,7.681,3.669,14.562,5.084,21.944a7.1,7.1,0,0,0,2.23,3.66c2.512,2.22,1.833,4.779,1.117,7.33-.458,1.63-3.11,1.988-4.285.637-.958-1.1-1.711-2.377-2.67-3.474-1.273-1.461-2.666-2.806-5.191-2.685a31.448,31.448,0,0,0,.036,13.681,74.084,74.084,0,0,0,9.274,22c3.991,6.125,8.09,12.145,13.169,17.37-.652,1.544-1.128,2.91-1.794,4.178a2.23,2.23,0,0,1-3.135.852c-1.206-.779-2.033-2.111-3.654-2.3-.833-.1-2.31.492-2.386,1.218a19.971,19.971,0,0,0-.227,3.648c.444,5.333,3.474,10.151,3.164,15.663a4.656,4.656,0,0,0,.8,2.024c2.306,4.574,4.352,9.307,7.023,13.658,3.056,4.979,6.729,9.547,11.929,12.6a11.753,11.753,0,0,1,2.176,1.959,62.164,62.164,0,0,0,18.892,13.369,232.968,232.968,0,0,0,27.175,10.44,36.9,36.9,0,0,1,10.465,4.9,18.406,18.406,0,0,0,3.821,2.113c2.142.81,4.292.863,6.178-.813,4.2-3.732,8.577-7.277,12.581-11.2,10.315-10.111,20.477-20.376,30.669-30.611,1.551-1.559,2.989-3.238,4.392-4.934,3.256-3.938,6.283-8.077,9.711-11.855a281.9,281.9,0,0,0,25.06-32.257c3.268-4.857,6.446-9.8,10.026-14.417,3.724-4.806,7.864-9.294,11.861-13.886s8.364-8.938,12.032-13.8a216.149,216.149,0,0,1,21.931-24.587,137.4,137.4,0,0,0,12.8-15.038c5.958-7.748,11.611-15.729,19.014-22.254,5.867-5.173,11.426-10.709,17.426-15.72a321.912,321.912,0,0,0,25.44-23.181c6.87-7.11,15.188-12.166,23.6-17.113a1.576,1.576,0,0,1,2.25.133,9.144,9.144,0,0,1-3.907,3.676c-5.271,3.1-10.014,6.925-14.855,10.623-2.137,1.633-4.268,3.167-5.645,5.6a6.682,6.682,0,0,1-2.617,2.52c-2.48,1.274-4.135,3.419-6.086,5.248-2.5,2.343-4.81,4.905-7.416,7.12-4.822,4.1-10.041,7.765-14.658,12.077-6.977,6.512-13.592,13.411-20.328,20.179a26.738,26.738,0,0,0-2.245,2.863c-4.7,6.236-9.113,12.682-14.557,18.345-6.431,6.69-12.669,13.563-18.979,20.366a22.709,22.709,0,0,0-2.389,2.786c-6.366,9.62-14.807,17.482-22.258,26.179-4.14,4.834-8.218,9.636-11.178,15.3a28.733,28.733,0,0,1-2.229,3.779c-3.175,4.312-6.346,8.631-9.667,12.833-6.2,7.848-12.584,15.556-18.745,23.437a227.563,227.563,0,0,1-17.1,20.027A64.451,64.451,0,0,0-337.5,290.12a31.807,31.807,0,0,1-5.1,7.1c-2.182,2.252-3.949,4.905-6.114,7.173a24.263,24.263,0,0,0-4.885,7.244,29.482,29.482,0,0,1-5.845,9.223c-3.328,3.357-3.431,6.655-1.491,10.6a11.418,11.418,0,0,0,1.821,3.1c2.035,2.117,4.1,4.212,6.047,6.407a26.693,26.693,0,0,0,9.959,7.283,15.126,15.126,0,0,1,4.39,2.584c5.318,4.782,11.464,8.045,17.917,11.057a63.357,63.357,0,0,0,18.139,5.178c6.753.943,13.154,3.688,20.053,3.611,5.2,2.133,10.646,1.074,15.97.974,2.863-.054,5.661-1.242,6.907-4.053a17.4,17.4,0,0,0-3.953-6.58,15.963,15.963,0,0,1-1.595-2.413,2.228,2.228,0,0,1,.855-2.571c1.37-.474,2.785-.822,4.471-1.306a11.55,11.55,0,0,0,6.042,3.64c6.431,1.083,12.58,3.8,19.283,3.337a10.178,10.178,0,0,1,3.628.307c5.64,1.738,11.56,1.322,17.312,2.328a44.918,44.918,0,0,0,13.182-.026c5.75-.727,11.61-1.321,16.941-4.03,1.726-.877,3.633-1.392,5.414-2.169.313-.137.416-.756.62-1.163-.619-1.568-2.258-1.741-3.491-2.3a13.581,13.581,0,0,1-4.5-3.673,4.278,4.278,0,0,1-.744-3.473,2.073,2.073,0,0,1,2.517-1.98c2.807.913,5.708,1.983,8.548.922a20.851,20.851,0,0,1,6.471-.952,15.024,15.024,0,0,0,6.331-1.595,47.985,47.985,0,0,1,6.134-2.354c5.239-1.869,10.81-2.9,15.5-6.157,9.512-2.947,17.117-9.187,25.2-14.6a2.783,2.783,0,0,0,1.247-2.512c-2.334-2.215-5.453-1.789-8.261-2.434a4.986,4.986,0,0,1-1.245-.714c-.807-1.349-.81-2.732.11-4.613,1.172-.489,2.678-1.5,4.291-1.723,7.551-1.027,14.245-4.89,21.658-6.376a12.406,12.406,0,0,0,4.523-2.33,84.45,84.45,0,0,0,12.593-11.164,12.867,12.867,0,0,0,3.343-5.47c-1.312-3.134-4.175-4.155-6.863-5.175-6.842-2.593-14.059-3.723-21.221-5.008a17.348,17.348,0,0,0-6.411-.126c-3.324.616-6.819.325-10.242.366a3.008,3.008,0,0,1-2.949-1.8c-.581-1.277.276-2.387.767-3.408a5.221,5.221,0,0,1,2.114-1.947c1.474-.855,3.1-1.446,4.583-2.292,1.044-.6,2.068-1.372,1.889-1.914-4.837-6.184-11-8.494-17.307-10.529-.926-.3-1.892-.47-2.825-.745-4.187-1.236-8.31-3.211-12.569-3.563-6.065-.5-12.009-2.114-18.152-1.84-2.681.119-5.657.554-8-.389-3.193-1.282-5.685.761-8.538.613-1.907-.1-3.3-.681-4.072-2.474,1.982-2.172,1.979-2.187,2.661-2.23,9.678-.616,18.47-4.024,26.983-8.413,3.462-1.785,7.148-3.139,10.605-4.931,4.53-2.348,9.2-4.562,13.331-7.508a131.876,131.876,0,0,0,17.265-14.623c.83-.839,1.878-1.624,1.9-3.006-2.515-2.6-4.095-3.48-7.325-4.02-1.191-.2-2.422-.233-3.584-.536a2.616,2.616,0,0,1-1.364-3.6c1.087-1.688,2.313-3.062,4.568-3.233a15.089,15.089,0,0,0,7.946-3.425c5.244-3.959,10.611-7.755,15.806-11.777a62.734,62.734,0,0,0,7.614-6.819,91.494,91.494,0,0,0,11.923-15.723c1.529-2.6,1.821-3.289,2.419-7.309-2.256-2.081-5.6-1.352-7.833-2.776-.535-1.717-.964-3.1-1.423-4.58,1.3-1.262,3.059-2.372,3.973-3.965,3.52-6.13,7.057-12.28,10.021-18.684a34.919,34.919,0,0,0,2.992-15.642,3.2,3.2,0,0,0-1.307-2.52c-1.512-.777-2.682.747-4.155.681a12.8,12.8,0,0,0-5.092.345c-4.071,1.613-8.14.812-12.4.925l-1.633-3.989c3.836-2.355,5.446-6.663,8.4-9.934a54.072,54.072,0,0,0,4.3-5.889c2.9-4.256,4.574-9.136,6.685-13.771a97.429,97.429,0,0,0,6.593-19.315,76.417,76.417,0,0,1,2.224-8.47,68.485,68.485,0,0,0,3.955-22.164,24.831,24.831,0,0,1,.188-4.4,182.31,182.31,0,0,0,2.69-22.45,8.38,8.38,0,0,1,.239-2.185c1.584-4.661-.05-8.992-.943-13.572a42.228,42.228,0,0,1-5.273,1.167,31.976,31.976,0,0,0-9.755,2.887,79.182,79.182,0,0,1-24.6,6.2c-1.676.14-3.3.925-4.971,1.066-3.173.27-6.039,1.925-9.31,1.785-3.33-.142-4.994-2.312-3.651-5.3,1.983-4.417,4.111-8.771,6.179-13.157-.658-.288-1.127-.694-1.521-.634-4.069.633-8.241.949-12.164,2.1a171.589,171.589,0,0,0-31.727,13c-3.886,2.047-7.636,4.349-11.518,6.4A46.612,46.612,0,0,0-182.44,1.748a4.154,4.154,0,0,0,.33,3.38c.517,1.363-.2,2.4-1.14,3.2a2.874,2.874,0,0,1-3.411.322c-1.268-.693-2.476-1.492-3.56-2.154-.31-1.187-.523-2.179.074-3.057a7.888,7.888,0,0,0,1.122-4.9,22.946,22.946,0,0,1,1.054-8.669,3.522,3.522,0,0,0-1-4.3c-8.048,3.628-16.348,7.2-23.536,12.708a196.973,196.973,0,0,0-14.94,12.949c-5.173,4.86-10.078,10.006-15.035,15.092a21.678,21.678,0,0,0-3.648,4.554c-2.321,4.277-5.063,8.373-6.235,13.208a10.287,10.287,0,0,1-1.152,2.685,17.112,17.112,0,0,1-2.071,2.955c-1.848,2.027-2.81,1.851-5.414-1.032,1.925-3.965,1.232-8.31,1.142-12.857a13.251,13.251,0,0,0-5.45,5.276c-4.511,6.955-8.81,14.057-13.575,20.833-4.8,6.822-8.383,14.279-11.908,21.735a98.183,98.183,0,0,0-8.411,24.783c-.675,3.816-1.032,4.059-5.408,6.84C-308.553,109.415-307.532,101.594-312.588,94.948Zm-18.437,61.572.292.289.075-.477Z"/>
    <path id="Path_11" data-name="Path 11" d="M-442.858,49.04a8.576,8.576,0,0,1,2.152,6.036c-.128,5.233,1.611,10.042,3.386,14.831a67.828,67.828,0,0,1,2.843,9.033,79.81,79.81,0,0,0,4.735,14.483c3.47,8.042,6.328,16.3,9.2,24.562,2.151,6.185,4.551,12.3,7.188,18.3,3.626,8.244,7.578,16.348,11.4,24.5a3.334,3.334,0,0,0,2.319,2.06c1.723-17.229,4.6-34.191,10.967-50.364.245-.625.911-1.084,1.42-1.667.339.405.857.771.8,1-1.925,8.017-3.836,16.036-5.9,24.018a81.525,81.525,0,0,0-2.613,16.5,14.582,14.582,0,0,1-.294,3.648c-2.264,7.14-.765,13.958,1.6,20.717A20.473,20.473,0,0,0-392.181,180c3.349,5.929,6.631,11.9,10.167,17.721,2.012,3.309,4.405,6.395,6.738,9.5,3.122,4.155,4.791,8.988,6.574,13.764.185.5-.315,1.247-.64,2.38-3.687-3.953-4.474-9.093-7.443-12.845a68.5,68.5,0,0,1-8.047-12.185,73.062,73.062,0,0,0-7.565-12.479,55.838,55.838,0,0,1-6.887,2.352c-1.881.393-3.907.02-5.852.179a17.654,17.654,0,0,1-8.53-1.664c-5.8-2.512-11.589-4.965-17.191-8.014-7.123-3.878-13.217-9.143-20.107-13.268-1.833-1.1-1.608-2.5.721-4.776a32.657,32.657,0,0,1,6.858,5.026,49.825,49.825,0,0,0,13.741,9.592c4.369,2.173,8.809,4.223,13.063,6.6,3.063,1.712,6.462,2.25,9.717,3.044,4.36,1.063,8.669-.074,12.5-2.438.753-1.152-.184-1.86-.616-2.64-4-7.2-7.536-14.611-11.059-22.051-3.961-8.369-7.7-16.815-11.131-25.413-3.5-8.792-7.133-17.533-10.316-26.453-1.634-4.577-3.432-9.1-5.27-13.6-3.777-9.252-6.152-18.949-8.926-28.5-1.248-4.3-1.223-8.971-1.717-13.48C-443.444,49.95-443.059,49.5-442.858,49.04Z" transform="translate(13.458 44.036)"/>
    <path id="Path_12" data-name="Path 12" d="M-222.887,178.741c-5.64.2-10.149,2.462-15.105,1.991-3.736,1.386-7.661,1-11.517,1.354-3.077.283-6,1.914-9.233,1.562-4.315,1.955-9.208.569-13.554,2.343-2.4-.679-4.7.349-7.051.431-3.405.114-6.794.035-10.1,1.242-1.312.479-2.907.154-4.369.255-2.664.184-5.355-.038-7.949,1.009a9.919,9.919,0,0,1-3.61.386q-15.77.016-31.542-.054a14.237,14.237,0,0,1-3.586-.55,24.345,24.345,0,0,0-11.593-.062c-2.226.477-4.251.842-6.407-.038-.658-.268-1.45-.2-2.142-.407-1.614-.5-4.654.877-4.379-2.111.182-1.982,2.806-1.2,4.41-1.209,2.688-.012,5.378.06,8.063.191,5.825.283,11.721-.524,17.459,1.11q18.339.041,36.675.08c5.261-1.2,10.741-.64,15.935-1.583,4.855-.88,9.684-.727,14.479-1.337,4.327-.551,8.648-1.2,12.968-1.8a71.47,71.47,0,0,1,7.2-.849,12.629,12.629,0,0,0,4.277-.812,15.032,15.032,0,0,1,4.273-.8c3.14-.255,6.268-.032,9.367-1.241C-228.033,177.106-225.7,177.155-222.887,178.741Z" transform="translate(57.552 108.981)"/>
    <path id="Path_13" data-name="Path 13" d="M-323.19,128.708c1.113-2.839,2.991-3.039,4.464-3.821,2.485,1.2,4.7-.643,7.093-.614,9.068.113,17.831-2.476,26.824-3.048,4.489-2.354,9.745-.524,14.292-2.613a3.913,3.913,0,0,1,1.455-.146,43.546,43.546,0,0,0,10.833-1.416c2.976-.852,6.2-.244,9.354-1.312,2.684-.911,5.7-1.033,8.563-1.666,2.545-.562,4.861-1.857,7.45-2.517.057.9.288,1.545.075,1.767a6.2,6.2,0,0,1-2.268,1.783,98.426,98.426,0,0,1-13.423,3.354c-5.251.911-10.595,1.095-15.807,2.47-3.477.917-7.193,1-10.788,1.7-4.523.881-9.348.565-13.694,1.9-4.264,1.31-8.783.506-12.9,2.367-1.254.568-2.9.291-4.363.37a24.578,24.578,0,0,0-6.483.923C-315.779,129.255-319.22,128.872-323.19,128.708Z" transform="translate(78.732 75.671)"/>
    <path id="Path_14" data-name="Path 14" d="M-264.616,212.982c-13.794-3.733-25.926-6.91-37.256-12.529-3.245-1.61-6.614-2.983-9.962-4.377a16.079,16.079,0,0,1-7.526-6.428,2.777,2.777,0,0,1,2.464-3.14c.459.152,1.084.161,1.322.47a28.32,28.32,0,0,0,10.884,8.206c4.846,2.253,9.563,4.78,14.408,7.038a108.5,108.5,0,0,0,17.131,5.887C-270.372,208.876-267.476,209.268-264.616,212.982Z" transform="translate(80.667 113.599)"/>
    <path id="Path_15" data-name="Path 15" d="M-337.589,59.461a14.743,14.743,0,0,1-.253,3.587c-1.117,3.462-2.515,6.833-3.655,10.288a34.294,34.294,0,0,0-2.075,11.411,17.465,17.465,0,0,1-.8,6.486A15.386,15.386,0,0,0-344.8,96.3q-.034,6.96.084,13.922a21.717,21.717,0,0,0,.869,7.2,7.128,7.128,0,0,1-.462,6.2c-.908.148-1.756-.063-1.875-.809-.574-3.587-1.744-7.066-1.625-10.786.166-5.125-.3-10.3.2-15.378.727-7.453,1.233-14.953,3.828-22.158,1.636-4.539,2.374-9.4,4.666-13.738.352-.664.724-1.232,1.56-1.264Z" transform="translate(66.256 49.309)"/>
    <path id="Path_16" data-name="Path 16" d="M-276.967,11.924a2.288,2.288,0,0,1,.7,2.834c-1.375,3.89-2.818,7.758-4.271,11.62-1.622,4.307-2.852,8.735-4.7,12.994-1.81,4.172-2.714,8.771-3.726,13.247-1.279,5.657-3.346,11.134-3.5,17.05-2.563-.592-2.822-2.322-2.548-4.027a77.349,77.349,0,0,1,1.767-7.8A354.908,354.908,0,0,1-280.4,19.182C-279.422,16.718-278.135,14.377-276.967,11.924Z" transform="translate(92.942 25.255)"/>
    <path id="Path_17" data-name="Path 17" d="M-223.932,71.043c-4.986,2.152-9.014,4.931-14.008,5.545-1.863.23-3.636,1.289-5.419,2.042a56.279,56.279,0,0,1-10.977,3.691c-4.7.935-9.158,3.084-13.687,4.8-1.839.7-3.574,1.056-5.37,0a4.76,4.76,0,0,1,.31-.8,1.208,1.208,0,0,1,.5-.5c6.389-2.235,12.708-4.7,19.193-6.61,9.5-2.791,18.663-6.6,28.3-8.925C-224.928,70.249-224.69,70.537-223.932,71.043Z" transform="translate(103.93 54.786)"/>
    <path id="Path_18" data-name="Path 18" d="M-264.441,177.5c.858-.393,1.711-.8,2.578-1.17a4.164,4.164,0,0,1,1.361-.435c3.613-.167,7.227-.348,10.843-.405,2.376-.038,4.756.122,7.114.193.078,1.389-.708,1.23-1.247,1.28-4.765.431-9.566.268-14.292,1.407-2.012.485-4.238.081-6.368.081Z" transform="translate(108.455 108.021)"/>
    <path id="Path_19" data-name="Path 19" d="M-341,60.984c.018-.863.03-1.726.051-2.589a1.642,1.642,0,0,1,1.453-1.785l-.105-.095c0,.867.012,1.733-.006,2.6a1.7,1.7,0,0,1-1.431,1.834Z" transform="translate(69.702 47.819)"/>
    <path id="Path_20" data-name="Path 20" d="M-243.326,175.268c-1.3,1.38-2.5.94-3.825.238C-245.827,174.247-244.633,174.454-243.326,175.268Z" transform="translate(117.209 107.577)"/>
    <path id="Path_21" data-name="Path 21" d="M-339.976,57.4a2.475,2.475,0,0,1,.721-2.456c.929,1.221.613,1.982-.827,2.361Z" transform="translate(70.184 47.026)"/>
  </g>
</svg>
