<svg xmlns="http://www.w3.org/2000/svg" width="284.385" height="339.078" viewBox="0 0 284.385 339.078">
  <g id="leaf_3" transform="translate(0)">
    <g id="leaf_3-2" data-name="leaf_3" transform="translate(1623.755 179.469) rotate(180)" opacity="0.1">
      <path id="Path_27" data-name="Path 27" d="M1547.219-116.9c-1.422,2.194-2.682,4.476-4.176,6.644a24.1,24.1,0,0,0-3.875,12.04c-.286,4.055-.22,8.146,1.405,11.957,1.368,3.207,1.719,6.917,4.65,9.409.73.622.287,1.684-.367,2.4-1.43,1.567-3.118,1.563-5.109.708-1.069-2.554-2.276-5.194-3.281-7.911a19.157,19.157,0,0,1-1.648-7.879,7.2,7.2,0,0,0-.084-2.7c-.827-2.379-1.45-4.791-.845-7.264,1.015-4.146,2.1-8.319,4.56-11.89,2.427-3.516,5.042-6.9,7.614-10.318.242-.321.764-.432,1.155-.641Z" transform="translate(76.536 14.68)"/>
      <path id="Path_28" data-name="Path 28" d="M1543.759-125.3c-1.769-2.466-1.769-4.537,0-6.8Z" transform="translate(79.996 10.836)"/>
      <path id="Path_29" data-name="Path 29" d="M1543.694-134.261c-1.461-1.316-1.461-1.36,0-2.721Z" transform="translate(80.061 8.914)"/>
      <path id="Path_30" data-name="Path 30" d="M1612.926-115.764c-.351.237-.832.393-1.033.721-1.535,2.5-2.767,5.219-4.56,7.506-4.883,6.232-9.84,12.483-15.9,17.589-4.8,4.044-9.972,7.547-16.633,8.492-4.4.624-8.675,2.12-13.169,2.722-4.466.6-7.727,3.624-9.833,7.59-1.586,2.986-2.93,6.108-4.246,9.228-2.11,5-4.248,9.886-8.164,13.91-2.289,2.352-4.542,5.109-4.376,8.856a28.117,28.117,0,0,0-2.363,13.2,21.756,21.756,0,0,0,.408,2.449,24.721,24.721,0,0,0,5.154-5.353c2.639-3.918,5.489-7.7,8.383-11.442a30.3,30.3,0,0,1,15.9-10.979,5.012,5.012,0,0,1,5.5,1.342c.8.8,1.489,1.7,2.4,2.756a95.865,95.865,0,0,1,.3,10.655,7.074,7.074,0,0,1-.341,2.675c-1.7,4.179-3.252,8.445-5.343,12.426-1.7,3.23-4.642,5.533-7.709,7.508A77.151,77.151,0,0,1,1539.7-5.46c-1.918.634-3.7,1.666-5.572,2.456-5.144,2.173-8.154,6.171-9.914,11.322-1.164,3.407-2.524,6.748-3.68,10.158a33.08,33.08,0,0,0-1.291,12.731,2.626,2.626,0,0,0,2.9,2.24,53.02,53.02,0,0,0,5.264-1.124c1.715-.513,3.711-.894,4.95-2.025,2.973-2.713,6.507-4.756,8.878-8.24a27.3,27.3,0,0,1,8.694-8.488c7.915-4.581,13.714.325,15.106,7.394.965,4.889-.172,9.408-4.207,12.914-2.224,1.933-4.253,4.056-7.1,5.142a40.16,40.16,0,0,0-4.289,2.032,43.6,43.6,0,0,1-10.654,4.186,95.159,95.159,0,0,0-12.819,4.265c-8.209,3.15-12.031,9.791-13.711,17.961-.452,2.2-.248,4.462-.934,6.692a10.9,10.9,0,0,0,.075,6.7,23.317,23.317,0,0,1,.835,6.016c.431,5.211,2.561,9.079,8,10.537,3.2-.453,5.07-2.619,6.455-5.335a50.708,50.708,0,0,0,2.3-4.911c2.2-5.772,5.948-10.632,9.3-15.7,2.384-3.6,5.9-5.3,10.406-5.272,7.35.043,7.582.033,10.93,6.655a5.074,5.074,0,0,1,.123,1.164,25.5,25.5,0,0,1-6.146,10.6c-7.693,8.259-15.205,16.686-22.783,25.051-.456.5-.885,1.036-1.288,1.581-3.318,4.491-4.476,9.26-1.893,14.529,3.182,6.494,6.49,12.841,11.076,18.576,3.911,4.89,6.974,10.481,10.208,15.885,2.065,3.447,3.7,7.155,6.294,10.442a71.99,71.99,0,0,1,12.788-7.7,10.254,10.254,0,0,0,2.756-1.924,126.325,126.325,0,0,0,14-15.654,37.169,37.169,0,0,0,2.258-4.165c1.121-1.947,2.169-3.942,3.288-5.887,2.818-4.9,4.891-10.147,4.785-15.991-.042-2.265.035-4.533.074-6.8.055-3.2-.852-6.149-1.687-9.228-1.591-5.866-4.662-11.195-5.75-17.233-.318-1.768-.611-3.511-.768-5.3-.348-3.952,1.118-6.842,5.849-8.87,1.433-.615,2.963-1,4.574-1.533,5.832,2.081,9.04,6.278,10.179,12.27.84,4.419,1.766,8.821,2.652,13.231a1.933,1.933,0,0,0,1.561,1.676c1.811-.788,2.952-2.866,4.656-4.239a4.505,4.505,0,0,1,1.719-.88,1.256,1.256,0,0,1,1.079.539,4.218,4.218,0,0,1-.2,4.511c-2.838,3.51-5.867,6.867-8.871,10.237a3.655,3.655,0,0,1-3.121,1.013c-2.182-.138-4-2.109-3.443-4.114.609-2.19,1.777-4.5.891-6.585-1.218-2.866-.711-5.8-1.27-8.637-.825-4.18-1.766-8.44-5.389-11.358a2.9,2.9,0,0,0-3.149-.538,3.161,3.161,0,0,0-1.96,2.6A19.524,19.524,0,0,0,1594,90.04c2.264,5.128,3.948,10.51,5.98,15.745a6.018,6.018,0,0,1,.347,4.615c-1.4,3.145-.926,6.093.046,9.215a7.54,7.54,0,0,1-.666,5.91,33.792,33.792,0,0,0-2.448,6.3c-2.288,7.784-6.758,14.238-12.069,20.2-2.4,2.7-4.939,5.238-7.126,8.164a30.2,30.2,0,0,1-9.845,8.2,28.9,28.9,0,0,0-3.584,1.908c-2.469,1.855-5.638,2.943-6.819,6.28-.273.771-1.2,1.33-1.872,1.936-1.634,1.475-3.692,1.238-4.4-.707-1.635-4.468-4.318-8.392-6.316-12.665a84.165,84.165,0,0,0-12.168-18.668c-3.96-4.689-6.474-10.3-9.195-15.753-1.111-2.229-2.335-4.406-2.331-7-2.16-3.879-.7-7.551.983-10.993a31.686,31.686,0,0,1,6.1-8.882c3.237-3.173,6.354-6.468,9.479-9.752,4.206-4.419,7.774-9.4,12.209-13.634,1.223-1.167,1.8-3.081,2.469-4.735.493-1.231-.99-3.51-2.3-3.707a13.591,13.591,0,0,0-5.987.357,53.269,53.269,0,0,0-10.109,15.2c-1.158,2.455-2.494,4.827-3.6,7.3-1.777,3.962-4.893,6.414-8.753,8.068-.824.354-1.8.383-2.583.795-3.037,1.6-5.656.9-8.173-1.352-.979-2.863-2.089-5.807-2.99-8.814a36.023,36.023,0,0,1-1.735-14.522c.279-2.469.146-4.982.286-7.47a33.811,33.811,0,0,1,6.021-17.678,20.455,20.455,0,0,1,11.054-8.378c6.25-1.885,12.225-4.547,18.439-6.574,4.236-1.381,8.124-3.9,12.058-6.107,3.2-1.8,4.335-5.014,5.123-8.87a29.443,29.443,0,0,0-1.895-3.867c-1.877-2.842-4.3-3.174-6.857-1.032a43.928,43.928,0,0,0-6.932,7.444c-3.6,4.819-8.406,8.114-13.765,10.679a1.734,1.734,0,0,1-.622.263c-4.675.047-8.712,2.009-12.7,4.162a3.669,3.669,0,0,1-1.324.2,3.225,3.225,0,0,1-3.241-2.83,10.082,10.082,0,0,1,.507-3.306,14.5,14.5,0,0,0,.951-4.625c.463-9.791,3.483-18.969,6.788-28.071a6.971,6.971,0,0,1,1.323-2.313c2.759-3,5.537-5.991,9.168-7.993a4.844,4.844,0,0,1,1.808-.87c3.071-.141,5.466-2.055,8.227-2.955,4.342-1.413,8.118-3.829,12.067-5.994a18.563,18.563,0,0,0,7.965-8.031c2.477-4.847,4.744-9.684,4.225-15.382-.343-3.772-2.1-5.287-5.81-4.441a5.664,5.664,0,0,0-2.424,1.064c-3.918,3.422-7.922,6.776-10.408,11.511a37.131,37.131,0,0,1-6.24,8.818,13.238,13.238,0,0,0-3.591,6.443,9.061,9.061,0,0,1-2.913,5.236,1.76,1.76,0,0,1-2.452.123c-.967-.917-2.421-1.989-2.488-3.067-.224-3.621-1.635-6.982-1.783-10.637-.2-5.085,1.647-9.742,2.164-15.087-1.128-1.611-3.085-3.442-1.359-6.259.537-.877.414-2.179.518-3.293.086-.9.024-1.815.091-2.718.247-3.318,1.752-6.416.817-9.986-.833-3.184-.4-6.68-1.019-9.944-1.174-6.195-3.44-11.786-10.529-14.186-.524.2-1.348.5-2.163.82-3.666,1.439-5.667,4.14-6.619,7.959-1.356,5.448-1.611,10.706,1.3,15.746,3.043,5.269,4.282,11.435,8.118,16.306,1.855,5.779,4.589,11.273,5.747,17.271a10.253,10.253,0,0,1-.3,5.346,42.373,42.373,0,0,1-4.77,10.435,56.858,56.858,0,0,0-3.939,7.1,18.011,18.011,0,0,1-3.177,5.174,107.556,107.556,0,0,0-11.118,13.636,20.348,20.348,0,0,1-2.29,2.506,2.475,2.475,0,0,1-2.462.712,2.152,2.152,0,0,1-1.585-1.964,9.737,9.737,0,0,1,.625-5.966c3.221-7.18,2.586-14.5.7-21.842-.166-.645-.77-1.232-.782-1.855-.1-4.6-3.146-7.285-6.28-9.937a7.391,7.391,0,0,0-3.983-.573,7.993,7.993,0,0,0-7.724,9.695,60.67,60.67,0,0,0,4.617,14.752c1.9,4.129,2.812,8.546,4.3,12.787a5.627,5.627,0,0,1,.33,1.3,60.081,60.081,0,0,1-.39,14.912,21.161,21.161,0,0,1-4.071,9.2c-4.08,5.521-8.353,10.682-14.689,13.762a47.017,47.017,0,0,0-4.553,2.887,13.13,13.13,0,0,1-7.64,2.4c-3.46-.121-6.405,1.986-9.539,2.522-2.536-1.855-2.349-4.03-1.023-6.072a74.349,74.349,0,0,0,7.607-16.5c.949-2.749,1.2-5.764,2.321-8.422,1.413-3.337,2.478-6.769,3.7-10.158a15.362,15.362,0,0,0,1.033-5.275,24.283,24.283,0,0,1,.948-7.367,10.747,10.747,0,0,0,.107-4.7c-.341-2.207-1.033-4.359-1.557-6.464-1.412-1.759-3.369-2.307-5.407-2.9a10.98,10.98,0,0,0-7.776,5.885c-3,5.537-6.281,10.943-7.412,17.275a17.59,17.59,0,0,0-.59,3.992c.35,5.873-.341,11.761.5,17.639a17.579,17.579,0,0,1-.574,6.634c-1.434,5.639-2.161,11.532-5.62,16.5-1.67,2.4-2.806,5.1-4.93,7.265a52.334,52.334,0,0,1-16.918,10.838c-5.5,2.094-11.318,2.924-16.864,4.77-6.992.208-14.009,1.22-20.953-.394a6.2,6.2,0,0,0-3.955-.054c-2.848,1.163-5.834.81-8.7.368a9.464,9.464,0,0,0-4.566.117c-1.483.464-3.073-1.3-2.839-2.9.095-.651.853-1.381.689-1.864-1.183-3.468-.792-7.138-1.508-10.654-1.464-7.177-1.129-14.338-.014-21.531.758-4.89,1.389-9.812,1.764-14.744.284-3.751,1.1-7.129,3.938-9.783a4.725,4.725,0,0,0,.873-1.038c4.32-7.433,11.485-9.615,19.354-10.739,7.788-1.114,15.646-1.833,23.184-4.41,3.4-1.163,6.914-1.953,10.091-3.744,5.516-3.111,9.181-7.83,11.81-13.443a32.877,32.877,0,0,0,1.284-3.95c-.318-1.411-.617-2.947-1.013-4.459-1.107-4.221-3.842-5.807-7.455-5.1-10.163,1.992-19.37,6.043-26.892,13.343a69.661,69.661,0,0,0-5.238,6.2c-2.477,3.046-5.689,5.031-9.089,6.922a97.032,97.032,0,0,1-17.912,7.742,27.344,27.344,0,0,1-12.069.689c-4.444-.574-5.662-5.968-3.07-8.255a14.012,14.012,0,0,0,4.306-8.21c.716-3.5,2.958-6.616,2.784-10.381,2.051-3.753,3.963-7.59,6.2-11.231,1.756-2.865,3.959-5.45,5.875-8.22a24.864,24.864,0,0,1,15.951-10.588c7.494-1.574,12.457-1.412,20.711-.144,3.973.611,7.872,2,12.028,1.611,1.513-.142,3.093.481,4.646.737a7.558,7.558,0,0,0,2.66.34c4.164-.931,8.5-1.174,12.475-2.865,3.124-1.328,6.115-2.851,8.036-5.9a15.342,15.342,0,0,1,2.767-2.984c3.286-2.99,5.006-6.854,6.616-10.892.976-2.446.778-4.738.5-7.161-.258-2.285-2.136-3.256-3.523-4.611-4.707.537-9.331,1.178-13.644,3.293-4.836,2.37-9.905,4.247-14.5,7.141-3.623,2.285-7.306,4.487-11.047,6.572-5.357,2.987-10.963,5.3-17.229,5.438-1.984.043-3.829,1.164-5.958.367-1.8-.673-3.421.955-5.237,1.015a7.138,7.138,0,0,1-3.969-.546c-2.817-1.6-3.552-3.846-2.159-6.8a15,15,0,0,1,1.868-3.6c4.217-4.781,6.687-10.69,10.406-15.786a86.255,86.255,0,0,1,10.833-12.023c8.383-7.854,18.153-9.5,28.852-6.061,4.112,1.32,8.45,1.231,12.55,2.552a46.548,46.548,0,0,0,4.613.889c3.571.75,7.183.789,10.584-.972a13.249,13.249,0,0,1,3.092-1.347c4.533-1,7.26-4.4,10.152-7.545a5.088,5.088,0,0,0,.743-5.725,11.085,11.085,0,0,0-4.646-5.482c-6.121-.535-12.542-.34-18.634,2.8-2.8,1.444-5.77,2.566-8.665,3.828a6.274,6.274,0,0,1-1.889.744c-4.543.307-8.733,1.935-13.041,3.195-1.692.495-3.485.7-5.219,1.264a11.578,11.578,0,0,1-4.681.209c-1.63-.171-3.012-2.707-2.462-4.242,1.162-3.247,3.351-5.864,5.4-8.55,2.6-3.4,5.364-6.684,7.88-10.147a33.481,33.481,0,0,1,17.642-12.978c4.508-1.383,8.8-3.45,13.22-5.141,3.573-1.367,7.378-1.815,11.115-2.424a45.56,45.56,0,0,1,7.462-.289c8.155.026,16.311.059,24.464.209,2.453.045,4.942-.255,7.359.832,1.168.526,2.661.351,4.01.445,2.92.2,5.867.033,8.684,1.21a8.826,8.826,0,0,0,3.358.381c3.853-.02,7.761.266,11.545-.284,4.848-.707,9.775-1.182,14.484-2.662a12.776,12.776,0,0,0,2.943-1.558c3.231-2.069,6.43-4.183,9.78-6.372,2.065-.137,4.292-.806,6.447.169.054,1.189-.721,1.656-1.423,2.162-2.381,1.715-4.858,3.313-7.126,5.167a20.947,20.947,0,0,0-4.628,4.926,121.325,121.325,0,0,1-11.223,14.447c-.446.513-.9,1.02-1.3,1.57-3.963,5.484-7.716,11.133-11.934,16.412a111.928,111.928,0,0,1-10.917,11.968,90.074,90.074,0,0,0-11.579,12.369c-4.267,5.828-9.107,11.234-13.661,16.851-1.422,1.756-2.739,3.6-4.069,5.427a16.174,16.174,0,0,1-1.452,2.271c-6.406,6.174-10.752,13.952-16.265,20.819a39.286,39.286,0,0,0-2.34,3.316,99.318,99.318,0,0,1-13.134,16.372,43.822,43.822,0,0,0-4.979,6.408c-4.556,6.709-9,13.495-13.519,20.226a28.383,28.383,0,0,1-3.274,4.3,73.689,73.689,0,0,0-8.755,11.17c-4.909,7.3-10.2,14.349-15.169,21.612a37.263,37.263,0,0,1-9.432,9.659c-1.915,1.334-2.867,3.557-4.918,4.561a16.247,16.247,0,0,0-5.064,4.334,16.128,16.128,0,0,1-7.894,4.686c-2.109-2.018-2.294-2.908-.757-3.937,5.875-3.93,10.127-9.695,15.9-13.749a27.228,27.228,0,0,0,6.305-6.143c2.776-3.818,5.937-7.3,8.333-11.49,3.231-5.641,7.509-10.683,11.359-15.968,5.045-6.927,10.832-13.308,15.237-20.7,5.229-8.775,11.676-16.6,18.445-24.2a87.12,87.12,0,0,0,6.908-9.162c5.576-8.241,11.775-15.993,18.066-23.687,3.857-4.717,7.449-9.65,11.192-14.461,7.077-9.1,14-18.323,22.531-26.173,7.2-6.625,13.042-14.383,18.668-22.328a56.984,56.984,0,0,1,7.234-8.959,10.192,10.192,0,0,0,2.866-4.56c-1.026-1.356-2.564-.889-3.6-.473-2.851,1.149-5.719,1.1-8.673.947a57.169,57.169,0,0,0-7.475-.014,30.812,30.812,0,0,1-12.008-1.422,29.625,29.625,0,0,0-8-1.185,24.024,24.024,0,0,1-6.678-.831,15.023,15.023,0,0,0-8.06-.049,23.848,23.848,0,0,1-12.677-.082,10.25,10.25,0,0,0-5.383-.2c-4.378,1.211-9,.59-13.329,2.08a45.751,45.751,0,0,0-6.277,2.282,44.651,44.651,0,0,1-10.166,3.57c-7.083,1.652-12.13,5.882-15.785,11.876-2.434,3.992-6.022,7.314-7.165,12.159a9.77,9.77,0,0,0,5.937-.208c2.961-1.076,5.892-2.286,9.143-2.235a4.181,4.181,0,0,0,1.945-.5,41.846,41.846,0,0,1,10.681-4.093c1.925-.427,3.581-1.967,5.679-2.08,4.942-.268,9.742-2.26,15.5-.965a17.874,17.874,0,0,1,6.685,7.392c1.361,2.9,1.469,5.636-.284,8.364-.854,1.328-2.123,2.526-2.544,3.974-1.4,4.823-5.513,6.368-9.409,8.095a67.472,67.472,0,0,1-8.328,2.817,16.851,16.851,0,0,1-5.273,1c-3.139-.135-6.26-.71-9.383-1.149a36.147,36.147,0,0,0-3.97-.716,26.4,26.4,0,0,1-8.577-1.688c-5.291-1.977-10.785-1.5-16.1-.881-3.97.463-7.611,2.764-10.775,5.381a27.243,27.243,0,0,0-4.275,4.369,126.48,126.48,0,0,0-13.249,21.2c-.719,1.465-.492,2.6.9,3.38a37.293,37.293,0,0,1,5.986-.878,50.715,50.715,0,0,0,9.37-.928,32.992,32.992,0,0,0,11.9-4.47c4.392-2.7,8.938-5.166,13.5-7.577,4.392-2.322,8.814-4.62,13.367-6.6a30.438,30.438,0,0,1,11.677-2.635,7.471,7.471,0,0,1,3.823.821c4.775,2.655,6.457,7.15,5.4,12.592a32.081,32.081,0,0,1-9.561,17.554c-2.13,2.034-4.178,4.158-6.2,6.3-1.915,2.031-4.332,3.089-6.836,4.225-6.639,3.014-13.62,3.227-20.583,2.554a104.985,104.985,0,0,1-13.38-1.685,45.329,45.329,0,0,0-14.146-.788c-9.54.81-17.176,5.3-22.245,13.573-5.3,8.645-5.176,8.709-8.383,19.783-1.058,3.652-3.138,6.993-3.157,11.34,1.182,2.676,3.712,3.228,6.591,2.353,6.891-2.1,13.843-4.093,20.017-7.992a21.747,21.747,0,0,0,3.178-2.511,55.636,55.636,0,0,0,5.311-5.255c4.1-5.006,9.448-8.412,14.793-11.784,5.768-3.64,12.29-5.534,18.83-7.242a13.2,13.2,0,0,1,4.718-.064,4.08,4.08,0,0,1,2.306,1.229,20.7,20.7,0,0,1,5,10.166,10.145,10.145,0,0,1-.842,6.612c-2.084,4.281-4.312,8.436-7.682,11.871a17.82,17.82,0,0,0-2.8,2.951c-2.423,4.044-6.34,5.519-10.576,6.6-3.27.832-6.574,1.6-9.755,2.706a54.757,54.757,0,0,1-16.563,2.99c-6,.173-11.378,2.632-16.492,5.577a7.736,7.736,0,0,0-2.844,2.839c-2.26,4.171-4.217,8.461-4.349,13.369-.085,3.146-.088,6.291-1.08,9.388a18.414,18.414,0,0,0-.362,5.4c-.026,4.759.074,9.519.017,14.278-.042,3.468,1.33,6.607,2.189,9.85a3.739,3.739,0,0,0,3.623,2.646c.227.01.453.047.679.045,10.873-.155,21.744.742,32.619.057a5.481,5.481,0,0,0,1.353-.084c7.877-2.633,16.18-4.144,23.349-8.663,5.225-3.293,6.7-4.762,9.554-10.2,3.5-6.671,5.826-13.7,5.41-21.375-.243-4.494-.05-8.978-.543-13.5-.507-4.643.857-9.286,2.557-13.7.726-1.892,1.51-3.768,2.123-5.7a34.216,34.216,0,0,1,9.075-14.069,16.7,16.7,0,0,1,5.784-3.446c1.983-.788,4.016.127,5.926.461,2.536.443,4.245,2.53,5.077,4.9a32.579,32.579,0,0,1,1.011,16.747,157.972,157.972,0,0,1-9.827,32.174c-1.288,3.118-2.251,6.375-3.28,9.595a4.428,4.428,0,0,0,.106,1.7,1.8,1.8,0,0,0,2.05.354c1.5-.491,2.965-1.1,4.493-1.461a32.185,32.185,0,0,0,13.578-7.216c8.764-7.469,12.837-16.64,9.942-28.261-.488-1.957-.647-4-1.066-5.972a40.428,40.428,0,0,0-4.313-11.319c-2.952-5.3-3.725-11.087-3.336-17.062a6.512,6.512,0,0,1,.633-2.6c3.13-5.839,7.728-9.3,14.68-8.774.9.068,1.805.145,2.639.212a21.375,21.375,0,0,1,5.73,4.862,10.12,10.12,0,0,1,2.594,4.668c.623,2.615,1.781,5.1,2.445,7.711,1.054,4.146,2.08,8.286.373,12.611-.535,1.354-.084,3.1-.084,4.983,3.52-2.08,5.456-5.166,7.341-8.111,1.7-2.655,3.2-5.417,5.153-7.93a37.778,37.778,0,0,0,2.92-5.342c2.523-4.65,2.586-9.4.958-14.38a84.386,84.386,0,0,0-4.968-12.562c-1.95-3.79-3.7-7.674-5.747-11.432-4.73-8.675-4.666-17.783-1.085-26.808,2.208-5.565,6.617-8.382,12.679-8.418a18.186,18.186,0,0,1,2.717.075,9.131,9.131,0,0,1,7.123,4.542,35,35,0,0,1,3.2,8.86c2.13,8.171,3,16.372,1.533,24.744a2.854,2.854,0,0,0-.038,1.28,2.905,2.905,0,0,0,.778,1.073,1.359,1.359,0,0,0,1.848.117,15.129,15.129,0,0,0,3.2-3.443c1.673-2.94,3.1-6.023,4.525-9.1a7.816,7.816,0,0,0,.848-3.209,12.23,12.23,0,0,1,2.746-7.52c3.266-4.367,4.3-9.239,4.341-14.6a33.273,33.273,0,0,0-1.53-11.3,82.988,82.988,0,0,1-3.58-15.688c-.985-6.664-1.15-13.467,2.083-19.907,1.71-3.407,3.265-6.928,4.766-10.457,2.34-5.5,6.826-9.461,11.354-13.132a21.766,21.766,0,0,1,8.726.287,13.86,13.86,0,0,1-2.094,1.165c-6.051,1.809-9.945,5.967-12.639,11.472-1.391,2.841-2.85,5.651-4.229,8.5a27.12,27.12,0,0,0-2.98,12.373c.106,8.248.141,8.213,2.544,18.665,1.712,7.441,3.373,14.935,3.043,22.953a16.481,16.481,0,0,0,8.63.091c4.783-1.242,9.414-3.083,14.09-4.724a19.388,19.388,0,0,0,6.715-4.455c3.634-3.378,7.113-6.9,10.626-10.4a54.348,54.348,0,0,0,9.006-11.812c2-3.517,3.886-7.179,7.069-9.872a8.31,8.31,0,0,1,1.649-1.182,1.483,1.483,0,0,1,1.243.014,1.563,1.563,0,0,1,.581,1.126,8.047,8.047,0,0,1-.284,1.963c-.242,1.087-.531,2.163-.8,3.244-.3.226-1.348-.043-.591.888q.228-.51.454-1.023c2.126-.307,4.122-.293,5.188,2.236.446,1.636-.824,2.869-1.519,4.211a126.647,126.647,0,0,0-5.138,12.479c-4.666,11.97-8.209,24.327-12.851,36.31-2.1,5.406-3.177,11.232-4.427,16.932-1.584,7.229-2.15,14.7-4.9,21.648-1.185,3-.822,6.2-1.656,9.3a64.342,64.342,0,0,0-1.827,14c-.2,4.76-1.25,9.327-2.073,13.96-.827,4.65-2.367,9.178-3.019,13.811-.867,6.171-2.392,12.24-2.636,18.535a47.713,47.713,0,0,1-2.188,12.587c-1.522,4.752-2.085,9.664-3.261,14.461-1.385,5.654-2.11,11.482-2.95,17.25-.906,6.235-1.1,12.571-1.728,18.85-.4,4.035-.957,8.058-1.606,12.06a8.719,8.719,0,0,1-1.489,2.99c-.152.24-.787.216-1.2.224a.637.637,0,0,1-.491-.358,8.965,8.965,0,0,1-.536-2.583c.314-5.846-.669-11.777,1.179-17.53a7.45,7.45,0,0,0,.131-2.7c-.406-5.913,1.352-11.633,1.539-17.505.077-2.42.986-4.838,1.684-7.208a76.478,76.478,0,0,0,2.458-12.551c.615-5.1,2-10.1,3.067-15.145a10.518,10.518,0,0,0,.636-2.6c-.33-5.031,1.167-9.848,1.733-14.765.537-4.653,2.023-9.2,3.109-13.788a24.212,24.212,0,0,0,.722-2.591c.562-4.691.6-9.5,1.7-14.054,1.172-4.854.287-9.958,2.219-14.646.05-7.568,3.28-14.432,4.748-21.679,1.248-6.158,3.662-12.056,3.921-18.449a16.849,16.849,0,0,1,1.624-5.816,95.623,95.623,0,0,0,4.065-12.164c1.844-6.492,3.553-13.153,6.5-19.165,2.809-5.738,3.154-12.154,6.1-17.765.673-1.282.333-3.1.459-4.668.469-.152,1.448.026.62-.962Z"/>
      <path id="Path_31" data-name="Path 31" d="M1546.071-12.7c-3.587-5-5.241-11.1-11.744-12.865a2.872,2.872,0,0,0-2.563,2.7,11.555,11.555,0,0,0,.336,6.337c4.162,2.314,7.568,5.894,10.936,9.511a14.5,14.5,0,0,1,2.148,2.591c2.161,3.842,3.52,7.791.875,12.016a3.2,3.2,0,0,1-2.559-1.865A17.815,17.815,0,0,1,1541.15.9c-1.015-4.848-4.624-7.594-7.951-10.623a5.041,5.041,0,0,0-3.164-.951c-2.328-.244-3.209-1.748-4.1-3.822-2.151-5-.558-9.261,1.914-13.44a10.408,10.408,0,0,1,5.233-4.116,3.856,3.856,0,0,1,4.4.577c2.177,1.954,4.431,3.8,6.717,5.626,3.973,3.18,4.574,7.526,2.978,12.219C1547.056-13.276,1546.522-13.063,1546.071-12.7Z" transform="translate(73.098 50.082)"/>
      <path id="Path_32" data-name="Path 32" d="M1535.336-66.9a13.953,13.953,0,0,0,4.882,8.87c.863.723,1.549,1.656,2.4,2.4,3.116,2.711,4.631,5.855,3.6,10.142-.559,2.325.336,4.933-.909,7.1-.944.16-1.582.045-2.012-.565-1.6-2.272-2.138-4.988-2.651-7.586-.786-3.988-2.338-7.26-6-9.281a6.707,6.707,0,0,1-2.852-3.649c-1.362-3.343-2.321-6.663-1.08-10.343a9.036,9.036,0,0,1,1.988-3.449,25.134,25.134,0,0,1,1.957-1.878c.856-.733,1.764-1.405,2.463-1.958,3.7-.838,6.959-.719,9.727,1.836.364,1.563.68,3.092-.689,4.585a37.933,37.933,0,0,0-4.342-1.3c-2.471-.446-4.469.307-5.509,2.809C1535.965-68.342,1535.6-67.525,1535.336-66.9Z" transform="translate(75.153 32.323)"/>
    </g>
  </g>
</svg>
