<svg id="leaf_1" xmlns="http://www.w3.org/2000/svg" width="502.026" height="519.738" viewBox="0 0 502.026 519.738">
  <g id="leaf_1-2" data-name="leaf_1" transform="matrix(-0.996, 0.087, -0.087, -0.996, 452.114, 433.834)" opacity="0.1">
    <path id="Path_22" data-name="Path 22" d="M-41.809,247.062a31.8,31.8,0,0,0-4.712.71,3.9,3.9,0,0,1-3-.572,3.019,3.019,0,0,1-1.776-3.895,17.313,17.313,0,0,1,5.7-7.615c6.32-4.887,12.686-9.732,19.252-14.28,4.383-3.035,9.423-4.9,14.459-6.658,1.748-.61,3.43-1.415,4.71-1.951,1.69-2.292-.58-3.864-.015-6.061a31.055,31.055,0,0,1,11.7-5.966c5.847-1.666,11.96-2.425,17.983-3.43a11.014,11.014,0,0,1,3.959.349,21.476,21.476,0,0,1,4.6,1.377c7.277,3.373,15.22,4.781,22.625,7.75a23.224,23.224,0,0,0,9.391,1.651c2.669-.069,5.341-.015,7.65-.015,6.648-5.206,4.967-3.2,7.5-10.645-.972-1.985-2.176-4.079-3.055-6.3-2.178-5.523-6.755-8.35-11.94-9.894-8.139-2.424-16.131-5.346-24.356-7.449-8.813-2.254-16.814-6.6-25.391-9.441-4.374-1.448-7.709-4.753-11.594-7.086C.856,157.02.2,155.623-.417,154.469c-1.392-2.588-2.654-5.248-3.979-7.9.849-2.224,1.486-4.617,4.224-5.307,6.149,3.387,8.169,4.017,12.418,3.873-.04-.224,0-.555-.129-.657-2.086-1.615-4.277-3.1-6.276-4.818-1.824-1.565-3.229-3.687-5.2-5-4.959-3.312-8.651-7.953-13.075-11.8a52.866,52.866,0,0,1-10.393-13.126c-2.19-3.653-4.544-7.213-6.936-10.737-3.593-5.29-5.851-11.353-9.673-16.524-.685-.928-.652-2.564-.567-3.845a3.789,3.789,0,0,1,5.144-3.438c2.735,1.206,5.673,1.232,8.422,2.135,1.147-.819.853-1.984.443-2.9-3.1-6.907-3.91-14.268-4.877-21.676a177,177,0,0,1-1.666-24.725c-2.04-5.585-.58-11.695-2.626-17.314-.522-1.437-.213-3.185-.249-4.79-.092-4.018.272-8.106-.366-12.032-.656-4.037.3-7.912.147-11.872-.275-6.966-.82-13.823-4.038-20.176a3.125,3.125,0,0,1-.351-.72c-.382-1.837-.827-3.686.557-5.345a4.219,4.219,0,0,1,5.106-1.213c3.406,1.46,7.136,1.583,10.525,3.565,3.078,1.8,6.92,2.582,10.436,3.745C-8-36.344-3.136-33.576,1.769-30.912A137.06,137.06,0,0,1,26.022-13.958c3.027,2.618,6.254,5.007,9.256,7.651A62.783,62.783,0,0,1,47.465,8.652c.694-.733,1.565-1.224,1.7-1.867C49.91,3.149,50.59-.509,51.071-4.19a11.834,11.834,0,0,0-.608-6.32c-.982-2.308.475-3.435,2.834-4.343,6.391,3.8,10.236,10.33,15,15.954A111.512,111.512,0,0,1,81.072,20.384c3.509,6.493,6.085,13.49,9.164,20.478,4.529-2.228,2.41-8.048,7.315-10.243,1.349-.023,3.109,1.04,4.643,2.562,3.8,3.775,8.012,7.241,11.276,11.439,4.725,6.081,9.047,12.558,8.709,20.9a21.862,21.862,0,0,0,.768,4.71,24.979,24.979,0,0,1,.641,3.109,46.583,46.583,0,0,1,.14,8.014c-.33,2.75,1.321,5.028,1.084,7.8-.287,3.366.339,6.813.61,10.22.254,3.183.264,6.351,1.181,9.51.895,3.086.476,6.386.089,9.591-.769,6.373,1.844,14.706,6.047,19.119a8.41,8.41,0,0,0,1.923,1.42c1.478.849,4.457-.292,4.6-1.975.458-5.276,2.847-10.3,2.028-15.731-.237-1.57-.475-3.14-.69-4.714s-.491-3.145-.588-4.727c-.354-5.854.074-11.784-1.761-17.489.489-3.913-1.847-7.576-.41-11.757,1.269-3.691.31-7.841,1.389-11.848,1.791-6.643,2.658-13.54,3.849-20.341a11.6,11.6,0,0,1,2.486-5.683,2.469,2.469,0,0,1,3.257,1.672c1.109,3.266,2.628,6.426,2.592,10.507a10.946,10.946,0,0,0,2.791-5.086c1.844-6.117,3.778-12.209,5.59-18.336,1.9-6.414,3.961-12.833,7.528-18.469,4.531-7.159,8.538-14.8,15.145-20.331a3.426,3.426,0,0,1,3.837,3.386c.262,2.926.076,5.888.186,8.833.1,2.628-.414,5.333.606,7.7,1.374.671,2.183.138,3.1-.514,10-7.129,20.091-14.107,31.235-19.387a22.479,22.479,0,0,1,2.934-1.292c9.754-3.007,18.7-7.7,27.378-12.98,1.443-.88,3.038-.13,3.641,1.751,1.788,5.574,3.392,11.212,3.455,17.113.082,7.763.1,15.533-.119,23.294-.073,2.611-1.311,5.193-1.367,7.8a77.9,77.9,0,0,1-2.625,16.5c2.008,1.264,2.738-.743,3.911-1.524,2.611-1.738,4.373-1.181,5.626,1.722a9.755,9.755,0,0,1-.023,8.513,60.458,60.458,0,0,0-4.567,12.744,22.528,22.528,0,0,1-3.888,8.719c-2.247,2.84-1.88,6.46-3.725,8.988,2.323,2.089,4.328,1.3,6.117,1.659,2.967.593,4.668,3.081,3.809,5.916a31.189,31.189,0,0,1-1.878,4.411c-1.272,2.643-2.836,5.165-2.827,8.253.007,2.107-1.88,3.139-2.788,4.722a26.567,26.567,0,0,1-10.009,10.083,51.261,51.261,0,0,0-8.342,6.208,20.425,20.425,0,0,1-6.131,3.712c-9.058,3.608-16.031,10.357-23.976,15.636-2.954,4.7-8.67,7.113-10.467,12.863a11.6,11.6,0,0,0-.8,5.434,3.892,3.892,0,0,0,4.839,3.005c2.784-.9,5.5-2.035,8.3-2.862,2.921-.862,4.963-2.6,7.071-4.826,3.837-4.043,8.31-7.485,12.556-11.133.593-.509,1.588-.608,2.076-1.173,4.411-5.119,10.456-7.025,16.568-9.161,3.448-1.2,6.778-1.181,10.205-1.31a2.681,2.681,0,0,1,2.407,3.434,29.875,29.875,0,0,1-1.595,4.49c-1.351,3.074-2.8,6.108-4.244,9.233.666.153.975.334,1.137.245,4.2-2.3,8.536-4.4,12.535-7.012a37.727,37.727,0,0,1,12.415-5.236c5.936-1.316,11.8-3.132,17.983-3.475,2.831-.157,5.641-1.442,8.363-2.475a11.634,11.634,0,0,1,5.5-.633,4.766,4.766,0,0,1,3.755,2.616c.137,3.544-2.513,5.7-4.017,7.788-.048,1.7.8,1.9,1.57,2.022a19.277,19.277,0,0,0,3.2.265c7.556-.043,14.7,2.051,21.893,4.014,6.17,1.684,11.846,4.8,18.168,6.032a8.515,8.515,0,0,1,3.6,1.718c3.938,3.223,9.044,4.6,12.69,8.345,1.419,1.455,3.565,2.135,5.7,2.7,3.717.984,4.593,3.615,2.56,6.571-3.041,4.419-6.23,8.7-11.031,11.431a3.232,3.232,0,0,0-.651.471c-5.363,5.211-11.362,9.622-17.242,14.217-4.435,3.467-9.226,6.343-13.752,9.63-1.862,1.351-4.411,1.761-6.66,2.564-2.47.881-4.956,1.72-7.437,2.577a8.6,8.6,0,0,0,3.068,7.375,5.471,5.471,0,0,0,2.941.956c1.33.173,2.613.213,3.727,1.168a2.928,2.928,0,0,1,.753,3.569,7.559,7.559,0,0,1-3.381,3.338c-6.791,3.068-13.275,6.786-20.547,8.841-3.763,1.064-7.281,1.488-10.955.254a8.091,8.091,0,0,0-5.437-.257c-.255.45-.766.924-.7,1.307.8,4.88-1.636,7.758-5.968,9.04-4.931,1.461-9.142,4.356-13.79,6.353-2.455,1.054-4.86,2.32-7.668,1.913a8.729,8.729,0,0,1-3.06-.684c-7.927-4.567-16.563-7.124-25.35-9.368-1.842-.471-3.664-.6-5.495-.906a9.306,9.306,0,0,0-9.228,3.49c-2.6,3.023-5.984,5.34-8.09,8.709.27,3.023,2.1,4.994,3.938,6.925,9.207,9.693,17.835,19.924,27.4,29.289a44.88,44.88,0,0,1,6.592,8.03,51.606,51.606,0,0,0,6.61,8.012c5.577,5.773,10.322,12.223,15.463,18.351,9.128,10.876,16.767,22.748,24.481,34.593,4.658,7.149,9.157,14.4,13.883,21.506,3.246,4.883,6.856,9.523,10.121,14.393,3.86,5.755,7.548,11.629,11.263,17.479a4.693,4.693,0,0,1-1.021,6.459,33.883,33.883,0,0,0-4.488,4.447c-2.132,2.288-6.182,2.46-8.811.534-8.518-6.238-15.682-13.723-20.394-23.261-2.87-5.809-7.129-10.627-10.81-15.843-5.058-7.167-10.53-14.042-15.891-20.992-2.443-3.168-5.977-5.4-7.839-9.085-6.589-6.274-11.474-14.087-18.27-20.181a47.83,47.83,0,0,1-8.184-9.846c-2.6-4.033-5.577-7.821-8.342-11.751a25.112,25.112,0,0,1-2.005-3.455c-4.814-9.889-11.667-18.456-17.941-27.379-2.279-3.239-4.239-6.851-7.969-9.6-5.425-.972-10.376,2.229-15.64,3.732-3.149.9-3.539,1.728-7.908,7.254,0,2.254.023,4.923-.01,7.592a13.693,13.693,0,0,1-.255,3.976c-2.143,6.571-1.1,13.261-.873,19.911a18,18,0,0,0,1.076,4.191c-.873,9.226-7.525,14.238-12.749,19.959-2.312,1.516-4.908.157-7.146,1.048-2.572,9.525-6.025,18.4-12.851,25.547a1.9,1.9,0,0,0-.451.662c-1.458,4.369-4.793,4.439-8.538,3.725-2.195-1.316-2.335-4.048-3.575-5.714a2.581,2.581,0,0,0-3.147.6c-2.315,2.229-4.531,4.572-6.946,6.689-3.785,3.317-7.4,6.8-12.326,8.648-2.424.909-4.435,2.923-6.63,4.44a61.127,61.127,0,0,1-6.613,4.472,18.974,18.974,0,0,0-4.463,3.313,21.323,21.323,0,0,1-3.666,3.076,24.69,24.69,0,0,1-4.249,1.615c-1.509-.682-2.585-1.491-2.9-2.9-1.718-7.8-5.582-14.958-6.809-22.924a25.26,25.26,0,0,0-2.129-6.014c-2.3-5.272-2.829-10.76-2.559-16.449.241-5.08.147-10.177.147-15.267a27.124,27.124,0,0,0-.41-3.272c-2.684,1.872-5.066,3.732-8.119,2.407-1.313-1.16-1.073-2.536-1.176-3.852-.354-4.506.8-8.9,1.1-13.352a15.988,15.988,0,0,1,4.643-10.017,15.69,15.69,0,0,0,3.664-6.177c-.908-1.865-2.216.245-3.27-.278-1.185-.588-2.405-1.1-3.628-1.659-1.657-3.562-.8-6.748.931-9.951a34.14,34.14,0,0,1,6.244-8.287A174.271,174.271,0,0,1,92.91,271.327a50.137,50.137,0,0,0,14.059-15.151c2.292-3.714,2.794-8,3.8-12.108.568-2.313-.56-4.165-2.868-5.116l-3.068-1.264c-1.718.486-3.527.914-5.276,1.516a16,16,0,0,0-6.727,4.182c-2.738,2.936-5.989,5.452-8.411,8.614a126.512,126.512,0,0,0-7.656,12.123,61.193,61.193,0,0,0-2.9,5.717c-2.084,4.478-4.976,8.264-9.329,10.732a13.274,13.274,0,0,0-3.857,3.938C57.953,288.06,54,289.668,49.7,290.423A6.026,6.026,0,0,1,47.549,290c-2.251-2.653-.066-5.933-1.54-8.516-.756-.519-1.56-.672-2.162-.023-2.33,2.506-4.737,4.961-6.856,7.64-5.658,7.157-13.555,11.06-21.4,15.072-4.864.31-9.086,3.013-13.775,3.766-2.318.372-3.811,1.794-5.706,2.667l-5.078-1.031c-1.468-2.152-.7-3.8.267-5.47,1.638-2.822,2.877-5.75,2.01-9.137A3.051,3.051,0,0,0-10.3,294.1c-5.322,1.951-10.831,2.611-16.446,3.023-3.957.29-7.8,1.629-11.871,1.292-2.382-.2-4.824-.636-7.09-.641s-4.722.639-7.081.481c-3.7-.247-7.378-.855-11.068-1.269-3.425-.382-6.905.007-10.251-1.455-1.611-.7-3.64-.453-5.252-.611a4.228,4.228,0,0,1-.71-5.4,64.16,64.16,0,0,1,6.063-9.391c5.348-6.309,11-12.362,16.606-18.446,3.8-4.13,7.732-8.124,12.5-11.218,1.244-.806,2.788-1.689,2.977-3.534l3.1-.405C-40.457,245.366-41.335,245.554-41.809,247.062ZM162.4,221.18a1.878,1.878,0,0,0,1.616,1.646,29.285,29.285,0,0,0,2.574,4.923c6.246,7.926,12.176,16.171,19.074,23.495,6.651,7.062,11.345,15.484,17.573,22.784,2.424,2.842,4.717,5.8,7.057,8.711,1.165,1.453,2.394,2.867,3.422,4.414,2.354,3.546,4.327,7.38,6.951,10.7a142.609,142.609,0,0,1,13.573,20.654c.756,1.4,1.685,2.71,2.569,4.038,5.023,7.546,9.767,15.313,16.731,21.339a9.491,9.491,0,0,1,1.089,1.18c4.228,5.154,8.042,10.727,12.765,15.377,8.065,7.941,14.2,17.341,20.985,26.236,7.261,9.52,14.576,19.02,20.58,29.459,2.72,4.732,7.673,7.35,12.031,10.408,1.914,1.344,5.177-.687,5.355-3.086a6.521,6.521,0,0,0-1.137-4.552c-2.832-3.862-4.976-8.144-7.933-11.984-4.373-5.678-7.92-11.991-11.792-18.051-4.3-6.732-8.426-13.583-12.894-20.2-4.763-7.053-9.726-13.98-14.808-20.807-5.722-7.686-11.5-15.341-18.216-22.221a51.943,51.943,0,0,1-3.776-4.152c-6.427-8.2-12.95-16.339-20.588-23.455-8.632-8.045-15.792-17.44-24.094-25.78-.377-.379-.741-.773-1.081-1.186-7.472-9.067-14.993-18.081-23.406-26.317-3.822-3.743-7.8-7.424-11.022-11.653-2.63-3.453-5.814-6.239-8.76-9.314a3.265,3.265,0,0,0-2.974-.812,1.47,1.47,0,0,0-1.628-1.623,1.45,1.45,0,0,0-1.606-1.61c-.213-.428.287-1.666-1-.877l1.16.7A1.833,1.833,0,0,0,162.4,221.18ZM-.068,12.278A3.737,3.737,0,0,1,4,14.186c3.682,5.541,7.162,11.222,10.983,16.664C21.127,39.6,26.358,48.917,32.128,57.89c6.767,10.525,14.148,20.651,21.185,31,3.752,5.516,8.053,10.592,12.169,15.823,5.284,6.714,10.416,13.543,16.575,19.514,2.307,2.236,4.915,4.3,6.694,6.915,6.04,8.867,13.387,16.655,20.6,24.465,6.707,7.263,12.177,15.629,19.768,22.078,1.435,3,4.6,4.3,6.636,6.753,3.216,3.869,6.7,7.515,10.156,11.182,1.066,1.135,2.005,2.564,4.613,2.844a5.558,5.558,0,0,1,.046-3.521,30.467,30.467,0,0,0,1.351-4.575c.264-1.023.45-2.068.631-3.109,1.224-7.057,2.132-14.186,3.742-21.153,1.73-7.492,4.111-14.835,6.221-22.239.437-1.532,1.091-3.018,1.377-4.575,2.27-12.327,6.149-24.215,10.208-36.016a44.682,44.682,0,0,1,5.819-12.2c3.62-4.931,6.712-10.245,10.258-15.235a26.237,26.237,0,0,1,9.452-8.518,1.639,1.639,0,0,1,2.293.506c-2.382,3.066-4.758,6.231-7.246,9.3a160,160,0,0,0-14.66,21.921c-4.014,7.065-5.575,14.978-7.686,22.606-2.906,10.507-5.765,21.031-8.744,31.523-1.013,3.564-2.259,7.134-2.656,10.782-.578,5.308-1.758,10.475-2.689,15.7s-1.621,10.492-2.173,15.766c-.275,2.615-.191,5.261-1.527,7.788,4.384,4.355,8.635,8.422,12.711,12.658,6.478,6.735,12.922,13.509,19.229,20.4,6.136,6.707,13.149,12.6,18.443,20.1.848,1.2,1.778,2.674,3.9,2.847,1.934-1.939,4.284-3.808,6.014-6.139,3.06-4.117,7.083-6.089,11.975-7.177a16.777,16.777,0,0,1,10.912.832,41.086,41.086,0,0,0,6.66,2.621,101.954,101.954,0,0,1,17.245,6.248,11.862,11.862,0,0,0,10.77-.115c3.088-1.549,6.355-2.74,9.515-4.152a2.812,2.812,0,0,0,1.877-2.719c-1.3-1.3-2.819-2.783-4.292-4.305-4.328-4.473-4.155-5.582,1.547-9.838,2.429.9,4.844,2.308,7.4,2.631a46.338,46.338,0,0,1,10.816,2.728,10.693,10.693,0,0,0,6.323.339,53.626,53.626,0,0,0,6.157-1.539c3.6-1.338,7.645-2.308,10.118-6.136a74.58,74.58,0,0,1-4.893-7.576c-1.369-2.783-3.865-5.249-3.238-8.768A10.594,10.594,0,0,1,321,213.262a25.248,25.248,0,0,0,14.14-4.89c5.213-3.689,10.861-6.668,15.98-10.558a161.539,161.539,0,0,0,18.15-15.645,13.14,13.14,0,0,0,3.516-6.406,15.069,15.069,0,0,0-2.2-2.084c-3.364-2.144-6.861-4.086-10.184-6.29-4.356-2.89-17.064-9.106-21.5-10.182-5.427-1.316-10.973-2.219-16.293-3.867-4-1.239-7.927-.883-11.912-.853a3.867,3.867,0,0,0-3.267,2.007,15.484,15.484,0,0,1-1.3,1.987,2.361,2.361,0,0,1-3.5-.341,19.9,19.9,0,0,1-1.42-2.865c.534-1.789,1.026-3.557,1.593-5.3.537-1.657,2.2-2.957,1.6-5.17a9.878,9.878,0,0,0-5.453.552c-2.491.9-5.065,2.008-7.648,2.142-4.865.25-9.365,1.865-14.024,2.888a38.732,38.732,0,0,0-20.6,11.464,14.306,14.306,0,0,1-2.3,2.237,35.6,35.6,0,0,1-4.837,2.781c-1.758.812-3.906-.916-3.705-2.908a24.594,24.594,0,0,1,.643-3.1,48.361,48.361,0,0,1,5.478-13.968,4.808,4.808,0,0,0-4.816-.367c-3.63,1.689-7.981,1.241-11.237,3.949-5.908,4.918-13.181,8.248-17.43,15.11-.517.835-1.733,1.2-2.445,1.957-4.191,4.439-9.536,6.661-15.26,8.31-5.859,1.687-8.118.975-11.6-3.953a5.427,5.427,0,0,1-.913-4.577c1.46-5.72,3.419-11.207,7.782-15.512,4.928-4.864,9.266-10.411,15.98-13.12a19.5,19.5,0,0,0,2.595-1.878c5.427-3.4,10.536-7.312,16.393-10.011a10.418,10.418,0,0,0,2.692-1.692,107.462,107.462,0,0,1,13.357-10.128,11.021,11.021,0,0,0,3.628-4.208,36.417,36.417,0,0,0,3.447-14.189c-4.193-1.194-8.154,3.193-12.612.4A24.594,24.594,0,0,1,240.27,92.3a2.017,2.017,0,0,1,.2-1.473,11.388,11.388,0,0,1,1.8-2.593c.746-.733,1.852-1.1,2.6-1.835,1.331-1.3,2.892-2.569,3.682-4.182a160.327,160.327,0,0,0,6.76-15.309,84.033,84.033,0,0,0,2.8-11.634c.252-1.19-.573-1.929-1.8-2.214-2.574,2.272-5.127,4.621-7.79,6.837-1.292,1.074-2.686.814-4.308-.547a2.91,2.91,0,0,1-1.115-2.834,9.925,9.925,0,0,1,.862-1.316c5.551-6.2,8.732-13.288,8.391-21.779a17.489,17.489,0,0,1,.908-7.111,14.026,14.026,0,0,0,.61-4.729c.089-6.16.025-12.324.125-18.483.071-4.343-1.346-8.4-2.17-12.576a3.276,3.276,0,0,0-3.824-2.148,71.248,71.248,0,0,0-12.655,4.944C231.3-4.7,227.359-2.31,223.094-.99,218.434.45,214.329,2.725,210.1,5c-4.743,2.549-8.656,6.211-13.2,8.994a19.328,19.328,0,0,0-6.477,5.8c-1.76,2.679-2.8,2.587-6.795,1.076-.634-2.628-1.433-5.173-1.824-7.78a55.581,55.581,0,0,0-1.618-7.144c-.865.295-1.506.318-1.822.649a55.307,55.307,0,0,0-12.522,20.285c-2.224,6.521-4.188,13.141-6.022,19.786-1.7,6.144-3.435,12.289-1.545,18.837.593,2.051-.9,4.017-2.5,5.531a2.26,2.26,0,0,1-2.911-.072,7.711,7.711,0,0,1-1.687-2.638,31.789,31.789,0,0,0-3.537-8.02,1.94,1.94,0,0,0-2.351-.936c-.9,1.934-.926,4.376-1.559,6.58a63.993,63.993,0,0,0-1.862,27.74c.578,3.7.792,7.436,1.486,11.082.791,4.152-1.125,8.5,1.1,12.482.132,6.689.557,13.39.311,20.066-.245,6.643-7.332,10.66-13.452,7.984a4.108,4.108,0,0,1-1.852-1.489c-3.77-6.47-7.582-12.925-7.434-20.822.107-5.622.107-11.248.064-16.871-.03-4.017.6-8.274-.522-11.986-1.422-4.715-.331-9.579-1.886-14.146,1.216-3.261-1.588-6.126-.845-9.411s-1.394-6.177-1.819-9.36c-.46-3.462-2.315-6.534-4.4-9.324s-4.364-5.4-6.617-8.037c-1.936-2.267-4.185-4-7.531-4.02a11.6,11.6,0,0,0-1.705,2.831c-.789,3.221-3,5.631-4.575,8.388-1.084,1.888-3.43,1.667-4.511-.275a5.234,5.234,0,0,1-.957-2.162C86.694,43.093,84.1,38.4,82.31,33.393a122.693,122.693,0,0,0-8.3-17.278A53.5,53.5,0,0,0,67.6,6.956C64.465,3.31,60.935,0,57.563-3.435c-.682-.7-1.247-1.705-2.516-1.218C53.161,1.661,54.238,8.4,52.589,14.632c-5.18.862-5.257.934-7.468-1.427a71.958,71.958,0,0,1-5.114-6.154,66.535,66.535,0,0,0-12.332-12.6C22.029-9.973,16.359-14.378,10.48-18.528A165.707,165.707,0,0,0-10.225-30.437c-5.19-2.644-10.81-4.465-16.3-6.485-2.2-.809-4.6-1.575-6.968.361-.059.984-.456,2.148-.13,3.051,1.5,4.147,1.166,8.419,1.213,12.681.094,8.572.241,17.143.374,25.714a21.032,21.032,0,0,0,.165,4.007,138.549,138.549,0,0,1,2.918,26.945,18.936,18.936,0,0,0,.316,4.8c1.882,6.73,1.078,13.78,2.666,20.578a57.643,57.643,0,0,0,2.234,8.4A46.72,46.72,0,0,0-16.58,81.939c.249.308.033.992.033,1.549-.338.269-.708.817-1.132.862-3.2.333-6.371.527-9.455-.883a2.59,2.59,0,0,0-2.989.448c-.661,5.06-.526,5.717,1.267,9.086,1.13,2.122,2.74,3.9,3.944,6a140.9,140.9,0,0,0,11.62,17.173c5.379,6.847,12.133,11.994,18.562,17.537a134.813,134.813,0,0,0,16.24,11.579c2.972,1.875,3.112,3.87,2.111,6.561-2.094.811-3.8,1.73-6.208,1.1-3.8-.985-7.8-1.216-11.714-1.732-.168-.021-.384.318-.578.488,2.478,4.567,3.659,5.684,6.974,6.918,7.729,2.877,15.42,5.851,23.17,8.666,2.742,1,5.6,1.667,8.417,2.463,8.17,2.313,16.6,3.786,24.137,8.072,4.236,2.409,8.167,4.7,9.765,9.958.886,2.916,3.422,5.348,5.292,7.941.928,1.288,2.257,2.328,2.18,4.852-1.094,2.279-2.6,5.107-3.826,8.05-1.916,4.592-5.628,6.236-10.19,6.427-3.476.145-6.966.063-10.446-.046a11.98,11.98,0,0,1-3.906-.713c-8.19-3.18-16.853-5.055-24.752-9.047A12.48,12.48,0,0,0,27.4,203.86a54.5,54.5,0,0,0-25.121,3.6,7.787,7.787,0,0,0-1.814,1.575c5.017,2.287,5.017,2.287,7.1,6.755-1.043,1.092-2.142,2.241-3.442,3.6-3.763-3.526-7.866-3.8-12.326-1.427a22.062,22.062,0,0,1-5.267,1.824,9.683,9.683,0,0,0-3.552,1.692c-2.153,1.564-4.434,2.949-6.648,4.429-3.985,2.661-8.006,5.277-11.917,8.044a5.952,5.952,0,0,0-2.8,3.77c.484,1.835,1.938,2.424,3.574,2.583,1.863.181,3.756.063,5.612.283,2.13.254,4.824,3.135,4.717,4.813-.127,1.942-2.6,4.2-4.987,4.549a4.832,4.832,0,0,1-.8.038c-6.936-.137-12.093,3.313-16.922,7.9-7.576,7.188-13.975,15.439-21.221,22.919a13.272,13.272,0,0,0-3.872,8.309c1.537,1.458,3.219,1.244,4.781,1.213a28.562,28.562,0,0,1,11.784,1.947c4.3,1.822,8.368-1.132,12.545.069,8.829,2.537,17.408-.025,26.027-1.448a47.177,47.177,0,0,0,14.3-4.854c2.437-1.277,3.4-.743,5.818,2.494-.442,1.129-.939,2.354-1.4,3.593-.928,2.494-1.921,4.971-2.723,7.506a2.714,2.714,0,0,0,3.351,3.206c3.308-1.013,6.638-1.984,9.879-3.19a46.77,46.77,0,0,0,8.74-3.842,59.4,59.4,0,0,0,16.3-15.2,85.813,85.813,0,0,1,9.254-9.988A9.124,9.124,0,0,1,52,268.126a4.121,4.121,0,0,1,2.588,4.62c-.224,1.564-.858,3.063-1.208,4.615a3.065,3.065,0,0,0,.872,3.191c6.1-1.9,10.08-6.414,13.35-11.691,2.244-3.62,4.47-7.267,6.4-11.057,2.213-4.335,5.472-7.89,8.261-11.785,3.005-4.2,7.653-6.641,11.64-9.711,3.783-2.911,8.365-4.763,13.49-4.083,1.847.245,3.717.3,5.269.422a12.932,12.932,0,0,1,5.86,7.571c-.862,6.566-3.526,12.385-6.65,17.967-2.6,4.653-5.32,9.342-9.808,12.528-4.335,3.076-8.946,5.78-13.143,9.029-4.849,3.753-9.4,7.894-14.031,11.925a13.659,13.659,0,0,0-4.215,7.566c-.135.6.511,1.379.786,2.051,3.239-.232,5.585-2.16,8.249-3.313a22.9,22.9,0,0,1,2.984-1.036,2.376,2.376,0,0,1,2.364,1.7,5.516,5.516,0,0,1-1.778,5.776c-2.219,1.9-5.129,2.895-6.826,5.493-1.31,2.005-3.017,3.755-4.3,5.775a32.459,32.459,0,0,0-3.738,7.025,13.752,13.752,0,0,0-.1,9.363c6.617-1.224,9.755-7.77,15.785-9.2,2.967,2.895,3.066,3.518.857,5.786-1.12,1.15-2.265,2.282-3.46,3.356A13.492,13.492,0,0,0,76.94,342.72a25.347,25.347,0,0,1-.4,6.376c-1.138,4.5-.822,9.029-.881,13.561a15.367,15.367,0,0,0,1.4,6.18,99.382,99.382,0,0,1,5.165,15.916,104.11,104.11,0,0,0,3.687,11.353,3.422,3.422,0,0,0,3.928,2.074,8.73,8.73,0,0,0,3.012-.921c4.556-2.768,9.086-5.584,13.553-8.493,6.74-4.391,18.985-16.393,24.009-23.35a25.626,25.626,0,0,1,2.056-2.455c2.115-2.264,4.556-1.852,5.6.962.461,1.246.506,2.727,1.216,3.778.82,1.213-.226,3.284,1.779,3.877,9.709-9.6,10.951-16.931,9.96-26.572-.135-1.308-.753-2.56-.957-3.869a36.663,36.663,0,0,1-.4-4.771,3.923,3.923,0,0,1,2.468-3.808,4.715,4.715,0,0,1,5.282.557,29.074,29.074,0,0,1,5.318,5.981c1.066,1.618,3.564,1.3,4.778-.409a10.734,10.734,0,0,0,1.194-2.05,22.438,22.438,0,0,0,1.783-9.329c-.137-5.618-.519-11.335.323-16.838a70.9,70.9,0,0,0,.965-13.507,7.466,7.466,0,0,1,.524-3.916c2.468-4.086,4.7-8.483,9.8-10.067,4.063-1.26,8.076-2.686,12.143-3.931,1.344-.41,2.491-.891,3.041-2.338-3.646-7.207-9-13.215-14.345-19.155-4.284-4.76-7.661-10.284-12.5-14.566a14.062,14.062,0,0,1-1.741-2.666c-2.737-3.941-5.4-7.935-8.269-11.779-3.022-4.048-6.417-7.824-9.335-11.942-4.939-6.971-9.726-14.037-15.792-20.122a4.8,4.8,0,0,1-1.55-2.689c-.114-2.43-1.709-3.86-3.111-5.432-3.722-4.17-7.44-8.345-11.276-12.41a91.367,91.367,0,0,1-7.81-9.106c-3.114-4.313-6.861-8.172-10.378-12.189-1.939-2.216-4.04-4.292-5.935-6.544-4.292-5.1-8.324-10.426-12.8-15.36-4.839-5.341-9.867-10.475-14.471-16.069-5.257-6.388-10.24-12.96-15.171-19.58-5.256-7.058-10.526-14.116-15.459-21.4-5.679-8.385-11.38-16.766-16.25-25.681a108.122,108.122,0,0,0-8.791-14.281C8.381,30.637,5.3,25.032,1.631,19.8A9.921,9.921,0,0,1-.037,12.247Z" transform="translate(35 -4)"/>
    <path id="Path_23" data-name="Path 23" d="M-32.353,166.127c1.079-4.617,4.155-7.07,7.768-9.042,5.847-3.19,11.526-6.762,17.6-9.439,6.281-2.766,12.652-5.493,19.54-6.683a49.262,49.262,0,0,0,7.576-2.468c8.032-2.788,15.97-5.882,24.106-8.324,8.933-2.681,17.613-6,26.215-9.53a40.939,40.939,0,0,0,14.42-9.823,31.254,31.254,0,0,1,12.317-8.067c1.181.4,1.664,1.171,1.351,1.891a5.576,5.576,0,0,1-1.885,2.494c-4.14,2.559-7.264,6.3-11.024,9.261-6.068,4.783-12.355,9.391-19.806,11.787-5.3,1.7-10.149,4.738-15.812,5.34-6.569,3.674-14.044,4.837-20.989,7.523-8.154,3.155-16.713,5.244-25.028,8-4.529,1.5-8.932,3.394-13.357,5.2a12.254,12.254,0,0,0-4.2,2.272c-2.883,2.961-6.6,4.485-10.054,6.473-1.845,1.061-3.56,2.345-5.383,3.448A2.688,2.688,0,0,1-32.353,166.127Z" transform="translate(31.336 96.219)"/>
    <path id="Path_24" data-name="Path 24" d="M145.4,100.813c2.943,0,5.887.012,8.831,0,1.338-.007,2.789.257,3.992-.166,5.463-1.924,11.118-1.033,16.683-1.381,3.709-.231,7.366-.125,11.092-1.1,3.269-.857,6.905-.321,10.378-.384a4.879,4.879,0,0,1,.781.178c.738.115,1.529,1.214,1.2,1.75-.254.412-.582.987-.969,1.069a21.608,21.608,0,0,1-3.177.3c-3.181.211-6.44-.219-9.465,1.26a3.676,3.676,0,0,1-1.585.183c-8.816-.092-17.476,1.8-26.3,1.924-8.511.12-17.033.877-25.508,1.743a49.573,49.573,0,0,0-10.76,2.684,187.66,187.66,0,0,1-27.833,6.8c-1.819.323-3.579.969-5.383,1.4q-5.422,1.285-10.866,2.481c-1.274.282-1.946-.623-2.468-1.544a2.483,2.483,0,0,1,1.326-3.312c4.574-1.354,9.106-3.145,13.789-3.758,6.857-.9,13.574-2.433,20.382-3.509a31.966,31.966,0,0,0,5.353-1.461c8.843-3.01,17.777-5.646,27.3-5.063,1.066.064,2.139.008,3.209.008Z" transform="translate(100.083 92.925)"/>
    <path id="Path_25" data-name="Path 25" d="M77.078,124.609A49.862,49.862,0,0,1,72.493,138.6a232.389,232.389,0,0,0-10.526,25.874c-3.1,9.045-6.842,17.873-9.97,26.91-2.427,7.015-5.06,14.032-5.48,21.567a16.284,16.284,0,0,1-1.254,4.585,33.92,33.92,0,0,0-.9,5.379,54.5,54.5,0,0,1-.522-17.239c1.106-6.877,3.951-13.191,6.065-19.736,3.672-11.378,7.525-22.7,11.314-34.036a36.839,36.839,0,0,1,1.9-5.254,167.288,167.288,0,0,0,8.988-21.33,10.742,10.742,0,0,1,1.094-1.89C74.75,122.9,76,122.922,77.078,124.609Z" transform="translate(80.383 109.412)"/>
    <path id="Path_26" data-name="Path 26" d="M-31.3-10.166l-1.171-.659c1.127-1,.942.16,1.14.69Z" transform="translate(31.261 22.412)"/>
  </g>
</svg>
