<svg id="Instagram" xmlns="http://www.w3.org/2000/svg" width="34.787" height="34.787" viewBox="0 0 34.787 34.787">
  <path id="Path_46" data-name="Path 46" d="M21.473,7.213c4.644,0,5.194.018,7.029.1a9.627,9.627,0,0,1,3.23.6,5.76,5.76,0,0,1,3.3,3.3,9.627,9.627,0,0,1,.6,3.23c.084,1.834.1,2.384.1,7.029s-.018,5.194-.1,7.029a9.628,9.628,0,0,1-.6,3.23,5.761,5.761,0,0,1-3.3,3.3,9.628,9.628,0,0,1-3.23.6c-1.834.084-2.384.1-7.029.1s-5.195-.018-7.029-.1a9.627,9.627,0,0,1-3.23-.6,5.76,5.76,0,0,1-3.3-3.3,9.627,9.627,0,0,1-.6-3.23c-.084-1.834-.1-2.384-.1-7.029s.018-5.194.1-7.029a9.627,9.627,0,0,1,.6-3.23,5.76,5.76,0,0,1,3.3-3.3,9.627,9.627,0,0,1,3.23-.6c1.834-.084,2.384-.1,7.029-.1m0-3.134c-4.724,0-5.316.02-7.171.1a12.767,12.767,0,0,0-4.222.809,8.894,8.894,0,0,0-5.087,5.087A12.767,12.767,0,0,0,4.184,14.3c-.085,1.855-.1,2.447-.1,7.171s.02,5.316.1,7.171a12.767,12.767,0,0,0,.809,4.222,8.894,8.894,0,0,0,5.087,5.087,12.767,12.767,0,0,0,4.222.809c1.855.085,2.447.1,7.171.1s5.316-.02,7.171-.1a12.767,12.767,0,0,0,4.222-.809,8.894,8.894,0,0,0,5.087-5.087,12.767,12.767,0,0,0,.809-4.222c.085-1.855.1-2.447.1-7.171s-.02-5.316-.1-7.171a12.767,12.767,0,0,0-.809-4.222,8.894,8.894,0,0,0-5.087-5.087,12.767,12.767,0,0,0-4.222-.809c-1.855-.085-2.447-.1-7.171-.1Z" transform="translate(-4.079 -4.079)" fill="#fff"/>
  <path id="Path_47" data-name="Path 47" d="M135.567,126.635a8.932,8.932,0,1,0,8.932,8.932A8.932,8.932,0,0,0,135.567,126.635Zm0,14.73a5.8,5.8,0,1,1,5.8-5.8A5.8,5.8,0,0,1,135.567,141.365Z" transform="translate(-118.173 -118.173)" fill="#fff"/>
  <circle id="Ellipse_9" data-name="Ellipse 9" cx="2.087" cy="2.087" r="2.087" transform="translate(24.591 6.021)" fill="#fff"/>
</svg>
