<svg xmlns="http://www.w3.org/2000/svg" viewBox="0 0 963.83 197.32"><defs><style>.cls-1{fill:#1d1d1b;}</style></defs><g id="Layer_2" data-name="Layer 2"><g id="Aprosag_konyvek_logo_copy" data-name="Aprosag_konyvek_logo copy"><path class="cls-1" d="M86.56,168.44c-.39,13-5.14,19.76-7.82,23.2,0,0-2.11,2.46-4,2.46-3.07,0-5-2.55-6.83-4.47-2.62-2.8-4.79-6.28-4.66-21.95.06-7.66,1.91-46.53,2.68-61.08-8.81.38-19.15,1.15-27.95,1.15-1.15,3.83-2.3,7.66-3.07,10.34C28,143.74,26.63,150,24.91,153.7c-2.17,4.71-6.13,8.88-10.34,5.36-2.34-2.65-1.53-6.89-1.53-8.42,0-1.92,3.82-25.66,8.8-39.44A25,25,0,0,0,23,108.13a73.7,73.7,0,0,1-9.19-.38c-7.73-1.07-14.17-1.53-13.78-5s-.39-4.59,3.83-5h23c8.81-23,25.27-63.56,30.63-73.13C64,12.4,70.47,1.45,80,1.45c1.15-1.53,5-2.07,6.9-.53C91.15,4.36,95,7,96.13,15.85c.38,4.21.38,9.57-1.15,26-.77,8.42-2.68,32.55-4.59,57.05,3.82.39,6.5,1.15,6.12,1.92,0,3.06,0,3.44-4.21,4.21a16.07,16.07,0,0,0-2.68.38C88.09,126.51,86.56,160,86.56,168.44ZM66.26,97.79C67,86.31,69.32,63.33,70.09,53c0,0,3-24.84,5.71-37.47C72,17.43,67.72,25.68,64.57,31.86,60.11,40.6,50.18,69.46,41,97.79H66.26Z"/><path class="cls-1" d="M184.34,98.18c-.74.37-8.08.37-17.63,2.2-7,22.4-24.23,40.39-38.55,38.19a27.51,27.51,0,0,1-7-1.83c-1.1,11.75-2.69,36.33-2.32,40.73,0,8.82-.33,17.19-4.41,18.36-2.84.82-5.5-1.1-7.34-3.3-2.2-2.94-2.2-4.41-2.94-5.14s-2.2-1.47-2.57-9.18c-.36-6.25,1.22-44.41.85-51.76,0-7.34,1.11-23.86,1.47-31.21a125.07,125.07,0,0,1,9.18-36c2.23-5.13,3.67-7.34,8.08-5.88s5.88,5.14,7.34,11c.37,1.84.37,6.24,0,12.12,4.78-7.71,11-16.53,17.26-18,10.65-2.57,23.87,8.82,23.87,22.77a80.33,80.33,0,0,1-1.47,13.22c4-.37,8.45-.74,12.85-.74,0,0,3.67.74,3.67,1.84S185.81,97.81,184.34,98.18ZM143.58,67C141,68.81,131.1,81.66,126.32,99.65c-.73,4-1.1,8.08-1.83,12.48a74,74,0,0,1,22-12.48c.36-1.47.73-2.94,1.1-4.41C152,73.21,146.15,65.13,143.58,67Zm.73,40.39a63.22,63.22,0,0,0-7,3.67s-11,6.24-9.92,14.69c1.1,7.34,5.88,2.57,5.88,2.57S139.54,121.31,144.31,107.36Z"/><path class="cls-1" d="M240.06,72.11c-1.07,5-7.15,14.3-10.37,15.73-3.22,1.08-3.57.36-4.65,0a5.1,5.1,0,0,1-2.5-5,13.85,13.85,0,0,1,.71-3.58c4.65-9.65,3.22-9.65,2.15-10.73C222.54,64.6,215,79.62,213.24,84.62c-3.57,10-12.51,38.62-15,47.21-.71,4.64-4.65,6.79-6.79,6.43-2.5-.35-2.15-1.43-5.72-3.57-3.22-2.15-4.65-9.3-4.65-9.3-1.79-9.3-1.07-27.89.71-41.12,1.08-11.09,2.15-14.66,3.94-18.6,0,0,3.22-9.65,9.29-8.58,4.65.72,10,6.44,10,11.8s0,8.94-3.22,21.81c-.72,3.22-2.5,11.45-2.15,16.1,3.94-12.88,10-30,14.66-37.55,6.08-9.3,12.52-13.59,19-11.09C237.92,60,241.85,62.81,240.06,72.11Z"/><path class="cls-1" d="M297.81,85.81c-1.83,2.93-4.75,8.42-8.41,11.71v.73c-.73,6.22-4.76,43.16-25.61,39.87-23-3.66-33.65-38.77-18.29-65.48,0,0,8.05-16.46,22.68-15,0,0,14.63,1.09,19,14.63,0,0,2.56,4.75,2.56,15,2.19-2.2,5.13-7.5,7.59-11.87a31.43,31.43,0,0,1,5.86-8.53c3.78-3.75,9.26-7.36,11.22-7,.79.59-5.38,8.49-9.36,13.78C302,77.79,299.15,83.64,297.81,85.81Zm-16.09,15c-5.49,0-11.71-1.1-11-8.41,0-.73,0-2.56.74-3.3a3.63,3.63,0,0,1,3.65-.36c1.83.36,3.3,2.93,3.3,2.93,0,.73,1.09,1.09,3.29.73-1.1-10.61-5.49-14.64-5.49-14.64-9.51-5.48-13.9,21.95-13.9,21.95-4.39,27.07,7.68,30.73,7.68,30.73C279.89,129.71,281.72,110.69,281.72,100.81ZM273.3,45c-2.56,1.46-4.75,2.92-6.58,2.92h-1.46a1.36,1.36,0,0,1-1.1-.36,3.67,3.67,0,0,1-1.83-1.47,7.81,7.81,0,0,1-.37-2.19V42.11a7.58,7.58,0,0,0,1.1-1.83,16.25,16.25,0,0,1,2.56-2.92l4-4c3.29-2.56,6.21-5.85,8-7.31l1.47-.74c.73-.36,1.83-.36,2.92,1.1,0,0,2.2,2.2.37,7.68a27.5,27.5,0,0,1-3.29,5.49C277.33,41.38,275.5,43.57,273.3,45Z"/><path class="cls-1" d="M357,94.66c-1,.39-12.07,3.82-23.86,8.18a30.23,30.23,0,0,1,3.3,10.4c1.9,11-1.63,16.2-6.38,20.26-6.27,5.92-18.53,4.94-24.35,3.1-5.5-1.81-12.05-6.5-12.69-13.36-1-6.65,8.29-12.77,8.29-12.77a53.41,53.41,0,0,1,12-6.35c-2.73-6.06-6.4-12.73-7.4-16.1,0,0-2-9.77-1.53-14.75a17.18,17.18,0,0,1,8-13s12-6.6,19.22-1.85c2.85,1.54,5,3.52,5.79,5.61,1,3.63-.07,7.3-1.18,8.45a3.13,3.13,0,0,1-2.75.73,3.36,3.36,0,0,1-2.54-1.26c-1.2-1.38,2.7-7,.11-7.8-2.29-.48-4.93,2.53-4.93,2.53-5.54,5.24-3.46,14.51-2.51,18.38.79,2.09,4,6.94,7.07,12.79,11-3.42,20.94-5.7,23.38-6.72,4.55-2.06,4.43-.81,4.71-.28C359.3,91.36,359.05,93.86,357,94.66ZM316.61,114a11.61,11.61,0,0,0-.9-4.37,84.16,84.16,0,0,0-7.7,3.5c-12,6.6-9.69,10.11-8.67,13.23.72,2.85,7.21,4.75,12.87,1.55C317.52,124.94,317.28,120.64,316.61,114Z"/><path class="cls-1" d="M428.57,103.39c-5.16,15.57-12.27,36.45-30.5,35.86,0,0-1.8.3-5-1.23-3.16-1.89-8.4-5.64-9.89-15-.32-1.08-.29-2.16-.6-3.6-3.91,10.25-10.69,20.76-19.57,18.69C345.65,134,339.89,102,353.87,78.79c15.88-26.32,32.54-21.49,32.54-21.49l2.78,2.6a16.28,16.28,0,0,0,.83-3.55s2.44-9.23,9.85-5.77c5.65,2.33,9.81,6.4,9.63,11.76s3.37,6.55-1.87,24.63c-2.86,11-8.84,41.21-6.08,44.17,0,0,9.47,6,21-29,0,0,3.56-10.62,5.29-8.77S430.16,98.43,428.57,103.39ZM385,78.72c.51-4.63-2.07-13.3-4.59-13-2.87.27-9.05,14.38-14.47,38.18-5.43,24.15,2.33,27.62,2.33,27.62,10-.75,14-35,14-35l.34.37a96.65,96.65,0,0,1,1.56-15C384.57,80.86,384.61,79.78,385,78.72Zm9.86-39.39c-2.55,1.35-4.74,2.71-6.52,2.65l-1.43,0a1.29,1.29,0,0,1-1.06-.39,3.5,3.5,0,0,1-1.74-1.49,7.49,7.49,0,0,1-.29-2.15l.06-1.79A7.68,7.68,0,0,0,385,34.36a15.63,15.63,0,0,1,2.59-2.78l4.06-3.8c3.3-2.4,6.26-5.53,8.09-6.9l1.46-.67c.72-.33,1.79-.3,2.82,1.17,0,0,2.08,2.21.12,7.52a27.34,27.34,0,0,1-3.39,5.25C398.91,35.88,397.05,38,394.86,39.33Z"/><path class="cls-1" d="M505.1,103.36c-.36.71-1.79,3.57-2.5,4.65,0,0-7.51,12.51-24.32,23.24-2.15,13.95-7.15,43.27-10.37,51.14-7.15,16.8-24.67,17.52-31.47,11.44,0,0-8.58-5.36-7.15-20.38,1.43-12.16,16.45-27.18,31.83-38.62v-4.65a36.65,36.65,0,0,1-.72-7.15c-4.29,9.29-10.37,17.16-19.31,15.73-18.59-3.58-25.75-35.4-11.44-59C445.38,52.58,464,57.23,464,57.23l3.57,2.86a6.11,6.11,0,0,1,8.23-2.86c5.72,2.15,10,6.08,10,11.44s3.57,6.44-1.07,24.68c-1.43,6.08-3.58,18.23-5,28.25,12.87-9.66,19-17.53,19-17.53S503,98,504.38,98.71C506.17,99.43,505.1,102.64,505.1,103.36Zm-44,39c-13.59,11.08-23.61,25.1-25.06,29.52-1.13,3.41-1.76,17,4.67,17.32s16.09-11.44,18.24-25C460,156.64,460.76,148.77,461.12,142.34Zm1.78-64v.35c.36-5-2.5-13.58-5.36-12.87-2.86.36-9.3,14.66-14.3,38.62-5,24.32,3.57,27.18,3.57,27.18,7.51-.36,11.44-18.24,13.23-28.25a89,89,0,0,1,1.08-14.31C461.83,85.12,462.55,81.55,462.9,78.33Z"/><path class="cls-1" d="M612.16,73.84l-.28,8.5q0,6.12,4.92,22.92T625,127.48c.28.42.89,1.28,1.85,2.58a20.42,20.42,0,0,1,2.09,3.41,7.4,7.4,0,0,1,.66,3.07,3.46,3.46,0,0,1-1.22,2.68,4.11,4.11,0,0,1-2.82,1.08q-3.35,0-7-7.07a90.84,90.84,0,0,1-6.41-17.32q-4.8-17.47-7.1-30.44-5.16,10.25-5.16,24.8v26.4q0,3.35-2.92,3.35a4.83,4.83,0,0,1-3.45-1.22,4.34,4.34,0,0,1-1.29-3.31V92.16q0-7.74,1.36-23.1T595,46q1.24-2.72,3.65-2.72a5,5,0,0,1,3.7,1.29,4.25,4.25,0,0,1,1.28,3.1v.42q-1.87,3.27-1.88,26V79.2q.21-.35,5.23-10.45,12.18-24.53,15-24.52a7.5,7.5,0,0,1,3.79,1,3.13,3.13,0,0,1,1.71,2.86c0,.09-1.14,2-3.41,5.71Q613.55,71,612.16,73.84Z"/><path class="cls-1" d="M638.52,94.25l.14-5.44q0-.69-.21-.69V85.54q0-22.43,2.58-31.91,2.16-8,4.18-9.89a6,6,0,0,1,4-1.88q16.58,0,22.85,16.72,3.63,9.61,3.62,23.69v1l.28,16.16q0,41-19,41-7.86,0-12-8.71A51.82,51.82,0,0,1,640,115.36,179.82,179.82,0,0,1,638.52,94.25Zm10.87-64.48a4.4,4.4,0,0,1-1.78,3.52,5.87,5.87,0,0,1-3.83,1.46,3.81,3.81,0,0,1-3.13-1.32A5.22,5.22,0,0,1,639.57,30,5.07,5.07,0,0,1,641,26.43a4.52,4.52,0,0,1,3.45-1.5,4.93,4.93,0,0,1,3.52,1.4A4.56,4.56,0,0,1,649.39,29.77Zm-2.44,45-.69,13.17q0,20.69,3.34,36.09,3.55,9,6.76,10.58a6.43,6.43,0,0,0,4.66-2.09,14.37,14.37,0,0,0,3.31-5.6,62.32,62.32,0,0,0,2.06-7.42,82.43,82.43,0,0,0,1.18-8.22q.7-7.59.7-13t-.94-16.44q-.95-11.09-.94-16.51V62.83a15.12,15.12,0,0,0-3.41-9.3,10.27,10.27,0,0,0-8.36-4.08q-4.89,0-6.48,5.51a41.28,41.28,0,0,0-1.33,11.35Zm16.76-40a4.25,4.25,0,0,1-3.31-1.46,4.93,4.93,0,0,1-1.33-3.41,5,5,0,0,1,1.54-3.55,4.7,4.7,0,0,1,3.48-1.61,4.45,4.45,0,0,1,3.38,1.57,5.21,5.21,0,0,1,1.43,3.62,4.4,4.4,0,0,1-1.61,3.45A5.29,5.29,0,0,1,663.71,34.75Z"/><path class="cls-1" d="M689.57,80.11l.84-26.62A12.42,12.42,0,0,1,695.64,43v.9a2,2,0,0,1,1-.35q3.35,0,8.36,11.53a217.06,217.06,0,0,1,9.06,25.33q4,13.78,8,27.83t5,16.47Q730,94.81,730,52.31l-.21-3.83c0-2.83,1.19-4.25,3.55-4.25a3.31,3.31,0,0,1,3,1.67,7.36,7.36,0,0,1,1,3.9V60.6q-.14,16.79-1.49,44.83t-3.66,31.66a22.63,22.63,0,0,1-5.4,1.19,2.77,2.77,0,0,1-2.3-1,8.17,8.17,0,0,1-1.29-3.1,14.69,14.69,0,0,0-.83-2.79l.07-.63q0-5.3-10.24-33.65t-14.84-39v71.83c.09.18.28.51.55,1a5.64,5.64,0,0,1,.91,2.86,3.88,3.88,0,0,1-1.29,2.65,4.1,4.1,0,0,1-3,1.32q-4.66,0-4.67-8.71Z"/><path class="cls-1" d="M772.62,130.27q0,9.54-4.66,9.54c-1.72,0-3.05-1.05-4-3.14q1.59-3.13,1.6-24.17a108.32,108.32,0,0,0-.77-10.87q-.77-7-.9-10V87.91q-.28-.63-4.46-11.29Q750,52.72,750,48.13v-.77L753.19,45q4.38.06,10.45,22.08,2.64,9.61,2.64,9.68.57-1.61,2.23-10.66Q772.77,43,777.43,43a3.81,3.81,0,0,1,2.4.83A2.62,2.62,0,0,1,780.91,46q0,7.11-4.07,20.66t-4.22,20.65Z"/><path class="cls-1" d="M814.22,120.65q3.13-15.74,7.69-45.49t5.4-34.55h3.21a3.31,3.31,0,0,1,2.26.9,2.87,2.87,0,0,1,1,2.23q0,8-3.41,20.17t-4,15.67q-.58,3.53-1.22,11.39t-1.46,15.47q-.83,7.59-2.23,15.47a45,45,0,0,1-3.93,12.74q-2.55,4.88-6,4.88l-2.65-2.16A195.64,195.64,0,0,0,805.54,102q-3.3-18-6.48-30.3t-4.28-15.54q-2.5-7.72-2.51-9.61a3.65,3.65,0,0,1,1.08-2.86,3.5,3.5,0,0,1,2.41-1q4,0,7.59,13.65A247.12,247.12,0,0,1,808.78,82q1.82,12,2.72,18.29T813.21,113C813.74,117.27,814.08,119.82,814.22,120.65Z"/><path class="cls-1" d="M847.3,65.83l-.76-12.06q0-10.1,6-10.1A42.78,42.78,0,0,1,863,45.45q6.62,1.77,6.62,4.56c0,2-1.4,3.44-4.18,4.46a56,56,0,0,0-10.8-2.72q.21,3.07.21,6.13l-.63,20.48c0,.1.14.84.42,2.23l5.09-.2q6.88,0,6.89,3.9A3.56,3.56,0,0,1,865.35,87a4.54,4.54,0,0,1-3.17,1.15,34.83,34.83,0,0,1-4.15-.28h-3.62q.42,5.43.42,10.8l-.63,25.84q0,8,.28,8l10.52-.34q5.43,0,5.43,3.48a3.27,3.27,0,0,1-1.88,3.13,9.09,9.09,0,0,1-4.25,1h-12a5.17,5.17,0,0,1-3.41-1.29,4.17,4.17,0,0,1-1.61-3.1v-3.76l-.9-24.1Z"/><path class="cls-1" d="M902.83,73.84l-.28,8.5q0,6.12,4.91,22.92t8.18,22.22c.28.42.9,1.28,1.85,2.58a19.77,19.77,0,0,1,2.09,3.41,7.4,7.4,0,0,1,.66,3.07,3.42,3.42,0,0,1-1.22,2.68,4.11,4.11,0,0,1-2.82,1.08q-3.35,0-7-7.07a89.51,89.51,0,0,1-6.41-17.32Q898,98.44,895.72,85.47q-5.16,10.25-5.15,24.8v26.4q0,3.35-2.93,3.35a4.83,4.83,0,0,1-3.45-1.22,4.34,4.34,0,0,1-1.29-3.31V92.16q0-7.74,1.36-23.1t1.36-23c.84-1.81,2-2.72,3.66-2.72A5,5,0,0,1,893,44.61a4.22,4.22,0,0,1,1.29,3.1v.42q-1.89,3.27-1.88,26V79.2q.21-.35,5.22-10.45,12.2-24.53,15-24.52a7.54,7.54,0,0,1,3.8,1,3.14,3.14,0,0,1,1.7,2.86c0,.09-1.14,2-3.41,5.71Q904.23,71,902.83,73.84Z"/><circle class="cls-1" cx="544.06" cy="91.43" r="11.34"/><circle class="cls-1" cx="952.49" cy="91.43" r="11.34"/></g></g></svg>