<svg xmlns="http://www.w3.org/2000/svg" viewBox="0 0 505.42 277.09"><defs><style>.cls-1{fill:#1d1d1b;}</style></defs><g id="Layer_2" data-name="Layer 2"><g id="Aprosag_konyvek_logo"><path class="cls-1" d="M86.56,168.44c-.39,13-5.14,19.76-7.82,23.2,0,0-2.11,2.46-4,2.46-3.07,0-5-2.55-6.83-4.47-2.62-2.8-4.79-6.28-4.66-21.95.06-7.66,1.91-46.53,2.68-61.08-8.81.38-19.15,1.15-27.95,1.15-1.15,3.83-2.3,7.66-3.07,10.34C28,143.74,26.63,150,24.91,153.7c-2.17,4.71-6.13,8.88-10.34,5.36-2.34-2.65-1.53-6.89-1.53-8.42,0-1.92,3.82-25.66,8.8-39.44A25,25,0,0,0,23,108.13a73.7,73.7,0,0,1-9.19-.38c-7.73-1.07-14.17-1.53-13.78-5s-.39-4.59,3.83-5h23c8.81-23,25.27-63.56,30.63-73.13C64,12.4,70.47,1.45,80,1.45c1.15-1.53,5-2.07,6.9-.53C91.15,4.36,95,7,96.13,15.85c.38,4.21.38,9.57-1.15,26-.77,8.42-2.68,32.55-4.59,57.05,3.82.39,6.5,1.15,6.12,1.92,0,3.06,0,3.44-4.21,4.21a16.07,16.07,0,0,0-2.68.38C88.09,126.51,86.56,160,86.56,168.44ZM66.26,97.79C67,86.31,69.32,63.33,70.09,53c0,0,3-24.84,5.71-37.47C72,17.43,67.72,25.68,64.57,31.86,60.11,40.6,50.18,69.46,41,97.79H66.26Z"/><path class="cls-1" d="M184.34,98.18c-.74.37-8.08.37-17.63,2.2-7,22.4-24.23,40.39-38.55,38.19a27.51,27.51,0,0,1-7-1.83c-1.1,11.75-2.69,36.33-2.32,40.73,0,8.82-.33,17.19-4.41,18.36-2.84.82-5.5-1.1-7.34-3.3-2.2-2.94-2.2-4.41-2.94-5.14s-2.2-1.47-2.57-9.18c-.36-6.25,1.22-44.41.85-51.76,0-7.34,1.11-23.86,1.47-31.21a125.07,125.07,0,0,1,9.18-36c2.23-5.13,3.67-7.34,8.08-5.88s5.88,5.14,7.34,11c.37,1.84.37,6.24,0,12.12,4.78-7.71,11-16.53,17.26-18,10.65-2.57,23.87,8.82,23.87,22.77a80.33,80.33,0,0,1-1.47,13.22c4-.37,8.45-.74,12.85-.74,0,0,3.67.74,3.67,1.84S185.81,97.81,184.34,98.18ZM143.58,67C141,68.81,131.1,81.66,126.32,99.65c-.73,4-1.1,8.08-1.83,12.48a74,74,0,0,1,22-12.48c.36-1.47.73-2.94,1.1-4.41C152,73.21,146.15,65.13,143.58,67Zm.73,40.39a63.22,63.22,0,0,0-7,3.67s-11,6.24-9.92,14.69c1.1,7.34,5.88,2.57,5.88,2.57S139.54,121.31,144.31,107.36Z"/><path class="cls-1" d="M240.06,72.11c-1.07,5-7.15,14.3-10.37,15.73-3.22,1.08-3.57.36-4.65,0a5.1,5.1,0,0,1-2.5-5,13.85,13.85,0,0,1,.71-3.58c4.65-9.65,3.22-9.65,2.15-10.73C222.54,64.6,215,79.62,213.24,84.62c-3.57,10-12.51,38.62-15,47.21-.71,4.64-4.65,6.79-6.79,6.43-2.5-.35-2.15-1.43-5.72-3.57-3.22-2.15-4.65-9.3-4.65-9.3-1.79-9.3-1.07-27.89.71-41.12,1.08-11.09,2.15-14.66,3.94-18.6,0,0,3.22-9.65,9.29-8.58,4.65.72,10,6.44,10,11.8s0,8.94-3.22,21.81c-.72,3.22-2.5,11.45-2.15,16.1,3.94-12.88,10-30,14.66-37.55,6.08-9.3,12.52-13.59,19-11.09C237.92,60,241.85,62.81,240.06,72.11Z"/><path class="cls-1" d="M297.81,85.81c-1.83,2.93-4.75,8.42-8.41,11.71v.73c-.73,6.22-4.76,43.16-25.61,39.87-23-3.66-33.65-38.77-18.29-65.48,0,0,8.05-16.46,22.68-15,0,0,14.63,1.09,19,14.63,0,0,2.56,4.75,2.56,15,2.19-2.2,5.13-7.5,7.59-11.87a31.43,31.43,0,0,1,5.86-8.53c3.78-3.75,9.26-7.36,11.22-7,.79.59-5.38,8.49-9.36,13.78C302,77.79,299.15,83.64,297.81,85.81Zm-16.09,15c-5.49,0-11.71-1.1-11-8.41,0-.73,0-2.56.74-3.3a3.63,3.63,0,0,1,3.65-.36c1.83.36,3.3,2.93,3.3,2.93,0,.73,1.09,1.09,3.29.73-1.1-10.61-5.49-14.64-5.49-14.64-9.51-5.48-13.9,21.95-13.9,21.95-4.39,27.07,7.68,30.73,7.68,30.73C279.89,129.71,281.72,110.69,281.72,100.81ZM273.3,45c-2.56,1.46-4.75,2.92-6.58,2.92h-1.46a1.36,1.36,0,0,1-1.1-.36,3.67,3.67,0,0,1-1.83-1.47,7.81,7.81,0,0,1-.37-2.19V42.11a7.58,7.58,0,0,0,1.1-1.83,16.25,16.25,0,0,1,2.56-2.92l4-4c3.29-2.56,6.21-5.85,8-7.31l1.47-.74c.73-.36,1.83-.36,2.92,1.1,0,0,2.2,2.2.37,7.68a27.5,27.5,0,0,1-3.29,5.49C277.33,41.38,275.5,43.57,273.3,45Z"/><path class="cls-1" d="M357,94.66c-1,.39-12.07,3.82-23.86,8.18a30.23,30.23,0,0,1,3.3,10.4c1.9,11-1.63,16.2-6.38,20.26-6.27,5.92-18.53,4.94-24.35,3.1-5.5-1.81-12.05-6.5-12.69-13.36-1-6.65,8.29-12.77,8.29-12.77a53.41,53.41,0,0,1,12-6.35c-2.73-6.06-6.4-12.73-7.4-16.1,0,0-2-9.77-1.53-14.75a17.18,17.18,0,0,1,8-13s12-6.6,19.22-1.85c2.85,1.54,5,3.52,5.79,5.61,1,3.63-.07,7.3-1.18,8.45a3.13,3.13,0,0,1-2.75.73,3.36,3.36,0,0,1-2.54-1.26c-1.2-1.38,2.7-7,.11-7.8-2.29-.48-4.93,2.53-4.93,2.53-5.54,5.24-3.46,14.51-2.51,18.38.79,2.09,4,6.94,7.07,12.79,11-3.42,20.94-5.7,23.38-6.72,4.55-2.06,4.43-.81,4.71-.28C359.3,91.36,359.05,93.86,357,94.66ZM316.61,114a11.61,11.61,0,0,0-.9-4.37,84.16,84.16,0,0,0-7.7,3.5c-12,6.6-9.69,10.11-8.67,13.23.72,2.85,7.21,4.75,12.87,1.55C317.52,124.94,317.28,120.64,316.61,114Z"/><path class="cls-1" d="M428.57,103.39c-5.16,15.57-12.27,36.45-30.5,35.86,0,0-1.8.3-5-1.23-3.16-1.89-8.4-5.64-9.89-15-.32-1.08-.29-2.16-.6-3.6-3.91,10.25-10.69,20.76-19.57,18.69C345.65,134,339.89,102,353.87,78.79c15.88-26.32,32.54-21.49,32.54-21.49l2.78,2.6a16.28,16.28,0,0,0,.83-3.55s2.44-9.23,9.85-5.77c5.65,2.33,9.81,6.4,9.63,11.76s3.37,6.55-1.87,24.63c-2.86,11-8.84,41.21-6.08,44.17,0,0,9.47,6,21-29,0,0,3.56-10.62,5.29-8.77S430.16,98.43,428.57,103.39ZM385,78.72c.51-4.63-2.07-13.3-4.59-13-2.87.27-9.05,14.38-14.47,38.18-5.43,24.15,2.33,27.62,2.33,27.62,10-.75,14-35,14-35l.34.37a96.65,96.65,0,0,1,1.56-15C384.57,80.86,384.61,79.78,385,78.72Zm9.86-39.39c-2.55,1.35-4.74,2.71-6.52,2.65l-1.43,0a1.29,1.29,0,0,1-1.06-.39,3.5,3.5,0,0,1-1.74-1.49,7.49,7.49,0,0,1-.29-2.15l.06-1.79A7.68,7.68,0,0,0,385,34.36a15.63,15.63,0,0,1,2.59-2.78l4.06-3.8c3.3-2.4,6.26-5.53,8.09-6.9l1.46-.67c.72-.33,1.79-.3,2.82,1.17,0,0,2.08,2.21.12,7.52a27.34,27.34,0,0,1-3.39,5.25C398.91,35.88,397.05,38,394.86,39.33Z"/><path class="cls-1" d="M505.1,103.36c-.36.71-1.79,3.57-2.5,4.65,0,0-7.51,12.51-24.32,23.24-2.15,13.95-7.15,43.27-10.37,51.14-7.15,16.8-24.67,17.52-31.47,11.44,0,0-8.58-5.36-7.15-20.38,1.43-12.16,16.45-27.18,31.83-38.62v-4.65a36.65,36.65,0,0,1-.72-7.15c-4.29,9.29-10.37,17.16-19.31,15.73-18.59-3.58-25.75-35.4-11.44-59C445.38,52.58,464,57.23,464,57.23l3.57,2.86a6.11,6.11,0,0,1,8.23-2.86c5.72,2.15,10,6.08,10,11.44s3.57,6.44-1.07,24.68c-1.43,6.08-3.58,18.23-5,28.25,12.87-9.66,19-17.53,19-17.53S503,98,504.38,98.71C506.17,99.43,505.1,102.64,505.1,103.36Zm-44,39c-13.59,11.08-23.61,25.1-25.06,29.52-1.13,3.41-1.76,17,4.67,17.32s16.09-11.44,18.24-25C460,156.64,460.76,148.77,461.12,142.34Zm1.78-64v.35c.36-5-2.5-13.58-5.36-12.87-2.86.36-9.3,14.66-14.3,38.62-5,24.32,3.57,27.18,3.57,27.18,7.51-.36,11.44-18.24,13.23-28.25a89,89,0,0,1,1.08-14.31C461.83,85.12,462.55,81.55,462.9,78.33Z"/><path class="cls-1" d="M160.23,224.16l-.23,6.75q0,4.86,3.9,18.2t6.5,17.64c.22.33.71,1,1.47,2.05a15.87,15.87,0,0,1,1.66,2.71,5.8,5.8,0,0,1,.52,2.43,2.74,2.74,0,0,1-1,2.13,3.31,3.31,0,0,1-2.24.86q-2.65,0-5.54-5.62a71.68,71.68,0,0,1-5.08-13.74q-3.82-13.89-5.65-24.17-4.1,8.13-4.09,19.69v21c0,1.77-.77,2.66-2.32,2.66a3.84,3.84,0,0,1-2.74-1,3.46,3.46,0,0,1-1-2.63v-34.4q0-6.15,1.07-18.34t1.08-18.28a3.15,3.15,0,0,1,2.91-2.16,4,4,0,0,1,2.93,1,3.35,3.35,0,0,1,1,2.46v.33q-1.48,2.59-1.49,20.63v4q.16-.27,4.15-8.3,9.67-19.47,11.94-19.47a6,6,0,0,1,3,.78,2.46,2.46,0,0,1,1.35,2.26q0,.12-2.71,4.54Q161.34,221.9,160.23,224.16Z"/><path class="cls-1" d="M181.15,240.37l.12-4.32c0-.37-.06-.55-.17-.55v-2.05q0-17.8,2.05-25.33,1.71-6.36,3.31-7.85a4.71,4.71,0,0,1,3.16-1.5q13.15,0,18.14,13.28,2.88,7.63,2.88,18.8v.83l.22,12.84q0,32.58-15.1,32.57-6.25,0-9.57-6.91a41.05,41.05,0,0,1-3.87-13.05A142.29,142.29,0,0,1,181.15,240.37Zm8.63-51.19a3.52,3.52,0,0,1-1.41,2.79,4.71,4.71,0,0,1-3,1.16,3,3,0,0,1-2.49-1,4.17,4.17,0,0,1-.86-2.71,4,4,0,0,1,1.11-2.85,3.6,3.6,0,0,1,2.74-1.19,3.88,3.88,0,0,1,2.79,1.11A3.61,3.61,0,0,1,189.78,189.18Zm-1.93,35.7-.56,10.45A136.31,136.31,0,0,0,190,264c1.88,4.75,3.67,7.56,5.36,8.4a5.12,5.12,0,0,0,3.71-1.66,11.48,11.48,0,0,0,2.63-4.45,50.08,50.08,0,0,0,1.63-5.89,62.84,62.84,0,0,0,.94-6.53c.37-4,.55-7.44.55-10.28s-.25-7.2-.74-13.06-.75-10.23-.75-13.11v-2a12,12,0,0,0-2.71-7.38,8.15,8.15,0,0,0-6.64-3.24q-3.87,0-5.14,4.37a33.09,33.09,0,0,0-1,9Zm13.3-31.75a3.42,3.42,0,0,1-2.63-1.16,3.93,3.93,0,0,1-1.05-2.71,4,4,0,0,1,1.22-2.82,3.73,3.73,0,0,1,2.76-1.28,3.53,3.53,0,0,1,2.69,1.25,4.17,4.17,0,0,1,1.13,2.88A3.46,3.46,0,0,1,204,192,4.23,4.23,0,0,1,201.15,193.13Z"/><path class="cls-1" d="M221.69,229.14l.66-21.13a9.89,9.89,0,0,1,4.15-8.35v.72a1.55,1.55,0,0,1,.83-.28q2.65,0,6.64,9.15a172.57,172.57,0,0,1,7.19,20.11q3.21,10.95,6.39,22.1t3.95,13.08q2.26-23.73,2.27-57.47l-.16-3c0-2.25.93-3.38,2.82-3.38a2.62,2.62,0,0,1,2.4,1.33,5.84,5.84,0,0,1,.8,3.1v8.57q-.11,13.33-1.18,35.6t-2.91,25.13a17.93,17.93,0,0,1-4.29.95,2.17,2.17,0,0,1-1.82-.81,6.19,6.19,0,0,1-1-2.46,11.11,11.11,0,0,0-.66-2.21l.06-.5q0-4.2-8.13-26.72t-11.79-31v57c.08.15.23.4.45.77a4.51,4.51,0,0,1,.72,2.27,3.08,3.08,0,0,1-1,2.1,3.24,3.24,0,0,1-2.4,1.05q-3.7,0-3.71-6.91Z"/><path class="cls-1" d="M287.63,269c0,5.06-1.24,7.58-3.71,7.58q-2,0-3.15-2.49,1.28-2.49,1.27-19.19a84.42,84.42,0,0,0-.61-8.63c-.4-3.72-.64-6.38-.72-8v-2.94q-.21-.5-3.54-9-7.51-19-7.52-22.62v-.61l2.55-1.88q3.48.06,8.29,17.54c1.4,5.08,2.11,7.65,2.11,7.68.29-.84.88-3.67,1.77-8.46q3.36-18.36,7.08-18.36a3,3,0,0,1,1.9.66,2.06,2.06,0,0,1,.86,1.72q0,5.64-3.23,16.4t-3.35,16.4Z"/><path class="cls-1" d="M320.65,261.33q2.49-12.49,6.12-36.12t4.28-27.43h2.55a2.6,2.6,0,0,1,1.79.72,2.28,2.28,0,0,1,.81,1.77,61.9,61.9,0,0,1-2.71,16q-2.72,9.65-3.18,12.44c-.32,1.87-.64,4.88-1,9.05s-.72,8.26-1.16,12.28-1,8.11-1.77,12.28a35.52,35.52,0,0,1-3.13,10.12q-2,3.87-4.78,3.87l-2.11-1.71a155.64,155.64,0,0,0-2.62-28.1q-2.62-14.32-5.15-24.06t-3.4-12.34c-1.33-4.09-2-6.64-2-7.63a2.91,2.91,0,0,1,.86-2.27,2.74,2.74,0,0,1,1.91-.77q3.15,0,6,10.84a196.62,196.62,0,0,1,4.31,20.38q1.44,9.48,2.16,14.52t1.35,10.09C320.28,258.65,320.54,260.67,320.65,261.33Z"/><path class="cls-1" d="M346.92,217.8l-.6-9.57q0-8,4.75-8a34.14,34.14,0,0,1,8.3,1.41q5.25,1.41,5.25,3.62t-3.31,3.54a43.73,43.73,0,0,0-8.58-2.15c.11,1.62.17,3.24.17,4.86l-.5,16.27q0,.11.33,1.77l4-.17q5.48,0,5.48,3.1a2.83,2.83,0,0,1-1,2.13,3.56,3.56,0,0,1-2.52.91,26.18,26.18,0,0,1-3.29-.22h-2.87q.33,4.31.33,8.57l-.5,20.52q0,6.36.22,6.36l8.35-.27q4.32,0,4.32,2.76a2.6,2.6,0,0,1-1.5,2.49,7.16,7.16,0,0,1-3.37.78h-9.57a4.08,4.08,0,0,1-2.71-1,3.29,3.29,0,0,1-1.27-2.46v-3l-.72-19.13Z"/><path class="cls-1" d="M391,224.16l-.22,6.75q0,4.86,3.9,18.2t6.5,17.64c.22.33.71,1,1.46,2.05a15.26,15.26,0,0,1,1.66,2.71,5.81,5.81,0,0,1,.53,2.43,2.75,2.75,0,0,1-1,2.13,3.29,3.29,0,0,1-2.24.86c-1.77,0-3.62-1.87-5.53-5.62A71,71,0,0,1,391,257.57q-3.83-13.89-5.64-24.17-4.1,8.13-4.1,19.69v21c0,1.77-.77,2.66-2.32,2.66a3.85,3.85,0,0,1-2.74-1,3.46,3.46,0,0,1-1-2.63v-34.4q0-6.15,1.08-18.34t1.08-18.28a3.14,3.14,0,0,1,2.9-2.16,4,4,0,0,1,2.93,1,3.35,3.35,0,0,1,1,2.46v.33q-1.49,2.59-1.49,20.63v4q.17-.27,4.15-8.3,9.67-19.47,11.95-19.47a5.92,5.92,0,0,1,3,.78,2.45,2.45,0,0,1,1.36,2.26c0,.08-.91,1.59-2.71,4.54Q392.11,221.9,391,224.16Z"/><circle class="cls-1" cx="73.75" cy="239.36" r="11.34"/><circle class="cls-1" cx="452.3" cy="239.36" r="11.34"/></g></g></svg>