<?xml version="1.0" encoding="UTF-8" standalone="no"?>
<!-- Created with Inkscape (http://www.inkscape.org/) -->

<svg
   width="235.11258mm"
   height="128.81314mm"
   viewBox="0 0 235.11258 128.81314"
   version="1.1"
   id="svg233"
   sodipodi:docname="logo_dense.svg"
   inkscape:version="1.1.2 (b8e25be833, 2022-02-05)"
   xmlns:inkscape="http://www.inkscape.org/namespaces/inkscape"
   xmlns:sodipodi="http://sodipodi.sourceforge.net/DTD/sodipodi-0.dtd"
   xmlns="http://www.w3.org/2000/svg"
   xmlns:svg="http://www.w3.org/2000/svg">
  <sodipodi:namedview
     id="namedview235"
     pagecolor="#ffffff"
     bordercolor="#666666"
     borderopacity="1.0"
     inkscape:pageshadow="2"
     inkscape:pageopacity="0.0"
     inkscape:pagecheckerboard="0"
     inkscape:document-units="mm"
     showgrid="false"
     fit-margin-top="0"
     fit-margin-left="0"
     fit-margin-right="0"
     fit-margin-bottom="0"
     inkscape:zoom="0.74920735"
     inkscape:cx="299.65002"
     inkscape:cy="385.74101"
     inkscape:window-width="1920"
     inkscape:window-height="1027"
     inkscape:window-x="-8"
     inkscape:window-y="-8"
     inkscape:window-maximized="1"
     inkscape:current-layer="layer1" />
  <defs
     id="defs230" />
  <g
     inkscape:label="Layer 1"
     inkscape:groupmode="layer"
     id="layer1"
     transform="translate(75.531261,-46.482847)">
    <path
       id="path6"
       fill="currentColor"
       style="stroke-width:0.999999"
       d="M 148.0957 0 C 147.05945 -0.0062508661 146.00539 0.26710875 144.90039 0.78710938 C 142.52039 1.9071081 140.25898 3.3056344 137.45898 3.515625 C 132.34898 3.9056269 128.17977 6.6364831 124.50977 9.8964844 C 119.98976 13.906484 116.07 18.495391 113 23.775391 C 109.64 29.555388 106.07906 35.226875 102.78906 41.046875 C 100.71906 44.706875 98.919607 48.526171 97.099609 52.326172 C 94.879609 56.97617 92.738903 61.655467 90.628906 66.355469 C 89.148904 69.645468 87.769843 72.996405 86.339844 76.316406 C 84.269846 81.116406 82.18039 85.906796 80.150391 90.716797 C 77.960393 95.886798 75.819686 101.07586 73.679688 106.25586 C 71.739686 110.95586 69.820391 115.67672 67.900391 120.38672 C 66.340391 124.22672 64.758984 128.05648 63.208984 131.89648 C 61.808983 135.36649 60.399061 138.84594 59.039062 142.33594 C 57.579061 146.07594 56.188752 149.84594 54.71875 153.58594 C 52.658749 158.81594 50.479299 163.99563 48.529297 169.26562 C 47.429299 172.24564 47.399139 172.45703 44.119141 172.45703 C 38.059141 172.46686 32.009219 172.45703 25.949219 172.45703 C 20.769217 172.45703 15.589919 172.41654 10.419922 172.47656 C 8.4799206 172.49656 6.4996081 172.57555 4.5996094 172.93555 C 1.4996069 173.51555 0.6704656 174.63633 0.48046875 177.73633 C 0.42044985 178.60633 0.51045615 179.53594 0.23046875 180.33594 C -0.70952999 182.98594 1.3793737 185.98648 3.859375 186.64648 C 7.7993737 187.69648 11.720234 189.00711 15.740234 189.53711 C 22.780236 190.47711 29.900234 190.95539 36.990234 191.52539 C 39.580235 191.73539 40.289844 192.79555 39.089844 195.18555 C 38.709842 195.96555 38.218766 196.70539 37.96875 197.52539 C 36.508753 202.3954 35.018988 207.2658 33.708984 212.17578 C 32.088984 218.25579 30.560393 224.37563 29.150391 230.51562 C 28.230393 234.50563 27.52008 238.54596 26.830078 242.58594 C 25.48008 250.51595 23.95953 258.44555 23.019531 266.43555 C 22.599531 269.96555 23.110232 273.68654 23.740234 277.22656 C 24.570234 281.87655 30.899921 284.96685 35.419922 282.29688 C 40.279922 279.42685 42.900389 274.95629 44.900391 269.98633 C 45.820392 267.70633 46.518751 265.3153 47.21875 262.94531 C 48.748752 257.74533 50.269219 252.5464 51.699219 247.31641 C 52.599219 244.0264 53.279141 240.67718 54.119141 237.36719 C 54.739142 234.89719 55.460628 232.45607 56.140625 229.99609 C 57.060626 226.70609 57.998904 223.42697 58.878906 220.12695 C 59.718906 216.94697 60.420548 213.72643 61.310547 210.56641 C 62.860546 205.02641 64.559376 199.51656 66.109375 193.97656 C 66.839376 191.36656 67.939142 190.41694 70.619141 190.37695 C 77.349141 190.28696 84.078828 190.20686 90.798828 190.04688 C 94.088827 189.96687 97.380158 189.7769 100.66016 189.54688 C 104.74016 189.26688 108.82039 188.81571 112.90039 188.5957 C 115.40037 188.4657 115.77039 188.96695 115.65039 191.37695 C 115.05039 203.58694 114.41008 215.7861 113.83008 227.99609 C 113.21008 241.0061 112.51938 254.01713 112.10938 267.03711 C 111.71937 279.26713 111.57898 291.49633 111.45898 303.73633 C 111.38898 310.67633 111.93945 317.57641 113.68945 324.31641 C 114.18945 326.24638 114.84891 328.23602 115.87891 329.91602 C 118.4989 334.18605 121.95945 337.76687 125.93945 340.79688 C 129.10945 343.21694 133.26922 343.26679 136.19922 340.9668 C 140.18922 337.8268 142.81938 333.5873 145.10938 329.19727 C 146.80938 325.95727 148.20024 322.49613 149.24023 318.99609 C 150.50023 314.7761 151.73914 310.44596 152.11914 306.08594 C 152.92914 296.66596 153.24992 287.19608 153.66992 277.74609 C 154.14992 267.14611 154.49992 256.53553 154.91992 245.93555 C 155.09992 241.37555 155.30975 236.81586 155.50977 232.25586 C 155.63976 229.17585 155.73969 226.07611 155.92969 222.99609 C 156.34969 216.29613 156.85976 209.60622 157.25977 202.90625 C 157.51978 198.47624 157.66033 194.03547 157.82031 189.60547 C 157.88031 187.83547 158.56945 186.68546 160.43945 186.35547 C 162.28945 186.02547 164.09922 185.46702 165.94922 185.20703 C 169.59923 184.69703 170.68969 182.77617 169.92969 178.32617 C 169.78969 177.48617 168.61898 176.50577 167.70898 176.17578 C 166.01898 175.55578 164.18015 175.35634 162.41016 174.98633 C 159.95016 174.47633 159.44931 173.64601 159.7793 171.16602 C 160.16929 168.17602 160.46898 165.17578 160.70898 162.17578 C 161.18898 156.14578 161.58055 150.11594 162.06055 144.08594 C 162.77055 135.25594 163.56 126.4257 164.25 117.5957 C 164.59 113.3057 164.6493 108.98703 165.0293 104.70703 C 165.8893 95.08703 166.9393 85.475701 167.7793 75.845703 C 168.4793 67.825701 169.22882 59.796094 169.54883 51.746094 C 169.95883 41.646096 171.43992 31.436874 168.16992 21.546875 C 167.04992 18.166874 165.53961 14.79617 163.59961 11.826172 C 160.50961 7.1061731 156.05969 3.6967181 151.17969 0.88671875 C 150.14969 0.29171529 149.13195 0.0062508661 148.0957 0 z M 132.33008 30.095703 C 132.45008 30.915706 132.77039 31.766644 132.65039 32.556641 C 132.17039 35.736641 131.52023 38.896407 130.99023 42.066406 C 130.21023 46.696407 129.46047 51.336326 128.73047 55.986328 C 128.27047 58.896326 127.91047 61.826091 127.48047 64.746094 C 126.54047 71.186091 125.54039 77.62617 124.65039 84.076172 C 124.08039 88.266171 123.57945 92.465781 123.18945 96.675781 C 122.31945 105.96578 121.52023 115.26641 120.74023 124.56641 C 119.96023 133.92641 119.25023 143.29601 118.49023 152.66602 C 118.01023 158.54602 117.44 164.41664 117 170.30664 C 116.84 172.33666 115.5093 172.44727 114.0293 172.44727 C 107.5693 172.45709 101.11039 172.44727 94.650391 172.44727 C 88.320389 172.44727 81.99992 172.45703 75.669922 172.45703 C 73.019921 172.44703 72.818981 171.9275 73.708984 169.4375 C 75.358982 164.8375 76.830625 160.16735 78.390625 155.52734 C 79.860623 151.14734 81.379611 146.77648 82.849609 142.39648 C 84.259611 138.20649 85.618829 133.99664 87.048828 129.80664 C 88.648831 125.11664 90.309688 120.45734 91.929688 115.77734 C 92.589687 113.88735 93.208909 111.97594 93.878906 110.08594 C 96.128908 103.70594 98.370391 97.336798 100.65039 90.966797 C 102.68039 85.296795 104.57961 79.566093 106.84961 73.996094 C 109.28961 67.996094 112.03906 62.116097 114.78906 56.246094 C 116.59906 52.376096 118.40016 48.4557 120.66016 44.845703 C 123.60016 40.155702 126.96047 35.716331 130.23047 31.236328 C 130.65047 30.656329 131.62008 30.465719 132.33008 30.095703 z M 707.75977 35.853516 C 705.93891 35.850945 704.41211 37.071252 702.99023 38.265625 C 699.86026 40.905625 696.70945 43.515626 693.68945 46.265625 C 688.92944 50.595626 684.20006 54.967267 679.58008 59.447266 C 678.37006 60.617268 677.31048 62.166096 676.73047 63.746094 C 674.56049 69.646095 676.55881 75.156328 684.29883 74.736328 C 688.96881 74.476331 692.84038 72.217031 696.40039 69.707031 C 701.5404 66.08703 706.28037 61.896483 709.65039 56.396484 C 711.89037 52.746485 713.53891 48.935466 713.70898 44.605469 L 713.71094 44.605469 C 713.71094 44.005469 713.78917 43.386874 713.69922 42.796875 C 713.26922 39.796875 712.21031 37.076406 709.07031 36.066406 C 708.61656 35.920156 708.17996 35.854109 707.75977 35.853516 z M 493.18555 44.96875 C 491.67722 45.007772 490.04375 45.587111 488.75 46.716797 C 484.01 50.856797 479.33024 55.076954 474.74023 59.376953 C 471.41024 62.506954 468.12055 65.696171 465.06055 69.076172 C 462.39054 72.026169 460.61984 75.426799 461.58984 79.716797 C 462.41984 83.416799 464.64023 85.266256 468.49023 85.40625 C 473.62023 85.58625 477.66031 82.875627 481.57031 80.265625 C 486.90031 76.695627 491.40985 72.126251 494.83984 66.65625 C 497.30984 62.716251 499.41944 58.587029 499.18945 53.707031 C 499.37947 53.637034 499.57002 53.566091 499.75 53.496094 C 498.9 51.286094 498.25039 48.966486 497.15039 46.896484 C 496.44383 45.573683 494.89498 44.924525 493.18555 44.96875 z M 698.31055 88.265625 C 693.00054 88.395626 689.52994 92.725544 687.66992 97.685547 C 686.78993 100.04554 686.20914 102.52547 685.36914 105.35547 L 685.36914 105.35742 C 684.16914 104.36742 683.52093 103.63726 682.71094 103.19727 C 680.98093 102.26726 679.25086 101.07633 677.38086 100.73633 C 672.55085 99.846327 667.83077 101.26594 663.30078 102.58594 C 657.77078 104.19594 652.78078 107.13711 648.05078 110.53711 C 638.95078 117.08711 632.0393 125.57594 626.0293 134.83594 C 623.1693 139.25594 620.68969 143.9568 618.42969 148.7168 C 616.51969 152.7468 615.22929 157.06703 613.5293 161.20703 C 613.0893 162.28703 612.33086 163.63734 611.38086 164.02734 C 608.48086 165.21734 605.42039 166.03601 602.40039 166.91602 C 596.56039 168.62601 590.68985 170.25703 584.83984 171.95703 C 583.46984 172.35703 582.5007 172.34664 581.7207 170.80664 C 579.9907 167.41664 578.13016 164.08617 576.16016 160.82617 C 573.08015 155.74617 569.95055 150.82648 569.06055 144.64648 C 568.24056 138.91648 567.75094 133.4268 569.21094 127.7168 C 570.68094 121.9568 574.37968 118.08696 578.92969 114.87695 C 579.98969 114.12694 582.03102 114.02609 583.29102 114.49609 C 584.90101 115.0861 584.25048 116.93735 583.98047 118.27734 C 583.65047 119.91735 582.94 121.48672 582.75 123.13672 C 582.58001 124.65672 582.33985 126.60727 583.08984 127.69727 C 585.19984 130.76728 590.65024 130.75625 592.74023 127.65625 C 593.95024 125.85625 594.52992 123.50617 594.91992 121.32617 C 595.53992 117.83617 595.40094 114.18625 593.46094 111.15625 C 590.89094 107.12625 587.05 104.29686 582.75 102.29688 C 574.81 98.616869 566.76047 100.03633 558.98047 102.73633 C 554.34047 104.35633 549.77039 106.50602 545.65039 109.16602 C 541.12039 112.09601 536.87977 115.60695 533.00977 119.37695 C 527.31977 124.92696 524.31961 132.35571 520.34961 139.0957 C 518.04961 143.0157 515.61039 146.86727 513.15039 150.69727 C 512.86039 151.14726 512.0793 151.48633 511.5293 151.48633 C 511.2393 151.47633 510.78093 150.63672 510.71094 150.13672 C 510.44093 148.14672 510.22937 146.14672 510.10938 144.13672 C 509.59937 135.68672 506.99946 127.87632 502.93945 120.48633 C 499.69945 114.58633 494.86953 110.2861 489.01953 107.24609 C 485.60953 105.4661 481.89922 104.16711 478.19922 103.03711 C 472.61922 101.33711 466.88953 101.4257 461.26953 102.8457 C 456.76953 103.9857 452.70086 106.12719 448.88086 108.86719 C 441.83086 113.91719 436.59054 120.5261 432.56055 127.99609 C 429.50055 133.6761 427.34078 139.83711 424.80078 145.78711 C 422.16078 151.96711 421.06078 158.54719 420.30078 165.11719 C 419.70078 170.35718 419.95905 175.70586 419.94922 181.00586 C 419.92922 189.89586 421.93961 198.38586 424.84961 206.75586 C 427.33961 213.92585 430.93008 220.3972 435.58008 226.36719 C 439.26008 231.08717 443.54992 235.01722 448.66992 238.11719 C 452.95992 240.70722 457.60016 242.27673 462.41016 243.63672 C 468.28016 245.29673 473.95008 244.78657 479.33008 242.47656 C 485.58008 239.79654 490.33032 235.06565 493.82031 229.26562 C 496.05031 225.55565 498.07953 221.67726 499.76953 217.69727 C 501.59953 213.39726 503.05015 208.91728 504.41016 204.44727 C 505.40015 201.18728 506.09024 197.8168 506.74023 194.4668 C 507.77024 189.1368 508.89078 183.79601 509.55078 178.41602 C 509.95078 175.13602 510.62945 172.43586 512.93945 169.75586 C 520.28945 161.23586 525.31961 151.1768 530.84961 141.4668 C 532.08961 139.2668 533.56945 137.20617 534.93945 135.07617 C 535.21945 135.17618 535.48954 135.26718 535.76953 135.36719 C 535.90952 136.52718 536.00968 137.68594 536.17969 138.83594 C 537.02969 144.53594 537.13969 150.48695 538.92969 155.87695 C 541.22969 162.81695 544.89945 169.2961 547.93945 175.99609 C 548.87945 178.0661 549.7593 180.16664 550.5293 182.30664 C 550.8893 183.31664 550.64945 184.19586 549.43945 184.75586 C 545.92946 186.37586 542.44 188.05593 539 189.83594 C 532.16 193.36594 526.10047 197.86632 520.98047 203.73633 C 514.30047 211.40631 514.73047 220.71716 519.98047 228.36719 C 522.25047 231.67718 525.11024 234.30583 528.49023 236.50586 C 533.17023 239.54585 538.17086 241.82633 543.63086 242.73633 C 550.40086 243.85632 557.20938 244.02618 564.10938 243.32617 C 572.35936 242.48617 579.12078 238.91703 584.80078 233.20703 C 590.95078 227.02705 593.91016 219.33603 593.91016 210.66602 C 593.91016 204.28602 593.1211 197.93618 591.12109 191.82617 C 590.2511 189.16617 589.20922 186.55555 588.19922 183.93555 C 587.75922 182.81555 587.51024 181.88742 588.99023 181.35742 C 595.30024 179.08742 601.59016 176.76734 607.91016 174.52734 C 609.77016 173.87734 610.22064 174.43578 610.23047 176.42578 C 610.28047 182.71578 609.04945 188.90687 609.68945 195.29688 C 610.37945 202.20686 611.16937 208.97745 613.35938 215.60742 C 615.50936 222.10745 618.44977 228.10579 622.75977 233.42578 C 627.20977 238.91577 632.89 242.69657 639.75 244.22656 C 647.56 245.96654 653.82985 242.45742 659.08984 237.10742 C 664.88986 231.21741 668.85929 224.07655 672.0293 216.47656 C 672.23929 215.99656 672.83997 215.29587 673.16992 215.33594 C 673.7099 215.40593 674.29058 215.92625 674.65039 216.40625 C 674.95037 216.79626 675.01016 217.40554 675.08008 217.93555 C 676.14008 226.23554 679.72102 233.24586 685.79102 239.00586 C 689.52099 242.54588 693.68108 245.4868 698.87109 245.9668 C 702.97109 246.35681 707.07976 246.05698 711.25977 245.12695 C 718.40976 243.54696 724.19992 239.79599 729.16992 234.91602 C 734.82992 229.36601 739.18091 222.70604 742.46094 215.41602 C 743.13093 213.92601 744.00984 212.52565 745.08984 210.51562 C 745.94984 211.99565 746.79901 212.97742 747.11914 214.10742 C 748.33917 218.44742 750.16073 222.49693 752.4707 226.37695 C 758.19072 235.99695 765.72045 243.15695 777.23047 245.12695 C 782.86045 246.09697 788.09052 244.99557 792.81055 241.93555 C 799.51052 237.59555 804.08047 231.34722 807.73047 224.36719 C 808.43048 223.03721 809.19952 221.74735 810.01953 220.27734 C 810.30946 220.69732 810.55961 220.88745 810.58984 221.10742 C 811.19982 226.01744 811.8103 230.92741 812.32031 235.85742 C 812.38029 236.49741 812.01104 237.37614 811.54102 237.82617 C 810.05101 239.24614 808.39984 240.4974 806.83984 241.85742 C 799.05984 248.6374 791.00985 255.13711 783.58984 262.28711 C 778.06984 267.60713 773.15064 273.6065 768.39062 279.64648 C 765.31062 283.55648 762.64967 287.90719 760.42969 292.36719 C 758.56967 296.08719 756.8697 300.18584 756.42969 304.25586 C 755.65972 311.43583 755.46023 318.69596 757.74023 325.83594 C 759.18023 330.33596 761.2005 334.40725 764.23047 337.94727 C 768.15048 342.52726 772.91063 345.69735 778.89062 347.27734 C 783.5806 348.51733 788.25935 348.77729 792.85938 347.94727 C 798.44936 346.93726 803.78089 345.0671 808.63086 341.78711 C 814.05089 338.12709 818.18003 333.44723 821.5 327.94727 C 824.30003 323.30725 826.10931 318.27609 827.2793 312.99609 C 828.84931 305.92611 830.58064 298.88639 832.14062 291.81641 C 832.98062 288.01639 833.56079 284.15594 834.30078 280.33594 C 835.80076 272.49595 837.43007 264.68615 838.83008 256.82617 C 840.19007 249.16617 841.2811 241.45709 842.62109 233.78711 C 842.7911 232.78712 843.52982 231.65565 844.33984 231.01562 C 850.94982 225.78564 857.88975 220.92579 864.25977 215.42578 C 871.37975 209.28579 877.56 202.19601 883.25 194.66602 C 886.98999 189.71602 889.38063 184.60711 888.39062 178.28711 C 888.27045 177.55711 888.39943 176.80641 888.35938 176.06641 C 888.32914 175.49641 888.20903 174.93695 888.12891 174.37695 C 887.92889 174.22696 887.739 174.08556 887.53906 173.93555 C 886.13905 175.06555 884.5489 176.02742 883.37891 177.35742 C 879.70891 181.54742 876.36961 186.02719 872.59961 190.11719 C 865.03961 198.32719 856.48049 205.46721 847.73047 212.36719 C 847.4605 212.58716 846.81947 212.78627 846.68945 212.65625 C 846.34941 212.31624 846.00819 211.78572 846.01953 211.3457 C 846.04939 209.93571 846.13935 208.51695 846.36914 207.12695 C 847.51914 200.04694 848.64993 192.95672 849.91992 185.88672 C 850.78993 181.07672 851.86064 176.29586 852.89062 171.50586 C 853.93064 166.65586 855.20961 161.8468 856.09961 156.9668 C 857.41961 149.7068 859.1492 142.43656 858.19922 134.97656 C 857.48923 129.39656 856.51962 123.84687 855.59961 118.29688 C 855.11961 115.40687 853.94905 112.82711 852.03906 110.53711 C 848.40905 106.18711 843.78007 103.42547 838.58008 101.35547 C 833.74005 99.435468 828.55922 99.797261 825.19922 103.94727 C 823.93924 105.50727 822.92055 105.42711 821.31055 104.28711 C 819.28056 102.84711 817.02918 101.14665 814.69922 100.80664 C 807.52919 99.76664 800.64986 101.72672 794.08984 104.38672 C 788.17987 106.77672 782.83875 110.23578 777.96875 114.42578 C 771.70876 119.81578 766.2688 125.93641 761.79883 132.81641 C 758.31883 138.17641 755.43932 143.92609 752.2793 149.49609 C 749.16931 154.9761 747.46024 160.99711 745.99023 167.03711 C 744.89024 171.58711 744.46876 176.29555 743.71875 180.93555 C 743.59875 181.65555 743.40998 182.37641 743.16016 183.06641 C 741.74019 186.96641 740.37985 190.88633 738.83984 194.73633 C 736.94985 199.44633 735.19935 204.24632 732.85938 208.73633 C 730.39936 213.47631 727.47948 217.99651 724.43945 222.39648 C 721.58946 226.52649 717.89883 229.81719 713.04883 231.61719 C 709.44883 232.9472 706.72953 231.50711 706.75977 227.78711 C 706.79975 221.74712 706.94883 215.67578 707.54883 209.67578 C 708.08885 204.2858 709.26873 198.95547 710.21875 193.60547 C 711.58875 185.87547 712.789 178.11726 714.45898 170.44727 C 716.629 160.49727 719.07915 150.59656 721.61914 140.72656 C 723.32915 134.09656 723.42063 127.40726 722.89062 120.69727 C 722.50063 115.75726 721.77936 110.83578 721.10938 105.92578 C 720.62937 102.38578 718.70899 99.356954 716.20898 97.126953 C 713.15898 94.396955 709.62024 92.096016 705.99023 90.166016 C 703.72025 88.956015 700.87053 88.195628 698.31055 88.265625 z M 209.67188 93.664062 C 207.00505 93.76077 204.64539 95.151095 203.11914 97.605469 C 201.35914 100.43547 199.67875 103.37703 198.46875 106.45703 C 195.94875 112.86703 193.48 119.32602 191.5 125.91602 C 189.39 132.90602 187.50922 140.00554 186.19922 147.18555 C 184.59922 155.95554 183.38961 164.81531 182.59961 173.69531 C 181.65961 184.31531 181.26055 194.9865 180.81055 205.64648 C 180.52054 212.69651 180.55899 219.7564 180.45898 226.81641 C 180.349 235.08643 180.34891 243.35523 180.12891 251.61523 C 179.82891 262.87524 179.21976 274.13627 179.00977 285.40625 C 178.80979 295.88624 178.78031 306.37544 179.07031 316.85547 C 179.17032 320.55544 179.88907 324.44568 181.28906 327.8457 C 182.83906 331.62568 185.34922 335.04533 187.69922 338.44531 C 189.97922 341.73532 192.80015 344.53584 196.91016 345.50586 C 199.70015 346.16584 202.80937 346.26654 204.60938 343.97656 C 206.40936 341.68655 207.86031 338.72694 208.32031 335.87695 C 209.29031 329.86698 209.63023 323.73647 209.99023 317.64648 C 210.15022 314.85647 209.54914 312.0268 209.61914 309.2168 C 209.73914 304.18681 210.07914 299.16649 210.36914 294.14648 C 210.91914 284.63647 211.44031 275.13671 212.07031 265.63672 C 212.49031 259.2667 213.15055 252.92662 213.56055 246.55664 C 213.83055 242.28664 214.11875 241.98626 218.21875 243.15625 C 218.34875 243.19631 218.48938 243.22745 218.60938 243.27734 C 223.89937 245.44736 229.44945 245.10656 234.93945 244.72656 C 240.11945 244.37658 244.72 242.09603 249.25 239.66602 C 255.22 236.466 260.30984 232.11555 265.08984 227.43555 C 267.99984 224.58556 270.69008 221.44647 273.08008 218.14648 C 276.50008 213.44645 279.71898 208.57568 282.70898 203.5957 C 284.89898 199.9457 286.68875 196.03625 288.46875 192.15625 C 290.13875 188.52625 291.81875 184.85711 292.96875 181.03711 C 293.65875 178.75711 294.68922 177.54658 296.94922 177.22656 C 303.06922 176.34656 309.17883 175.42547 315.29883 174.60547 C 317.24883 174.34547 317.74039 174.9057 317.65039 177.0957 C 317.45039 181.7857 316.99048 186.46625 316.98047 191.15625 C 316.97047 196.11625 317.4893 201.08687 317.5293 206.04688 C 317.5893 212.51685 317.83008 218.99576 319.83008 225.17578 C 320.96008 228.70578 322.24891 232.54658 324.62891 235.22656 C 327.7089 238.70656 331.93899 241.1771 335.70898 244.03711 C 336.08899 244.327 336.72977 244.30709 337.25977 244.36719 C 341.66977 244.84719 345.9893 241.6558 347.7793 237.92578 C 349.23929 234.87578 350.06031 231.52541 351.07031 228.27539 C 352.64031 223.2154 354.10039 218.1264 355.65039 213.06641 C 357.07039 208.38641 358.55976 203.71687 360.00977 199.04688 C 360.87976 196.23688 361.69008 193.3957 362.58008 190.5957 C 364.07008 185.9357 365.61937 181.29672 367.10938 176.63672 C 368.47936 172.35672 369.73992 168.04686 371.16992 163.79688 C 372.59992 159.55687 374.11047 155.32625 375.73047 151.15625 C 377.25047 147.23625 378.86891 143.35686 380.62891 139.54688 C 381.90891 136.75687 383.29 133.97555 385 131.43555 C 387.19 128.17555 389.62875 125.05594 392.21875 122.08594 C 393.86875 120.19595 395.9189 120.51547 397.62891 122.35547 C 399.4689 124.33547 398.91961 126.48594 398.09961 128.58594 C 396.29961 133.21593 394.23032 137.73625 392.57031 142.40625 C 391.10031 146.54625 391.32015 150.79625 394.41016 154.15625 C 397.64016 157.67624 404.03984 157.24594 407.58984 153.83594 C 412.23984 149.36594 415.60914 144.02711 418.86914 138.53711 C 422.82914 131.86711 424.36 124.78672 423.75 117.13672 C 423.51 114.10672 422.49936 111.44687 420.60938 109.04688 C 417.75937 105.42688 413.74961 103.65648 409.59961 102.39648 C 405.76961 101.22649 401.71016 101.33547 397.91016 102.85547 C 393.61016 104.56547 390.07961 107.43656 386.84961 110.72656 C 382.40961 115.25656 378.45936 120.13617 375.60938 125.82617 C 373.72937 129.58617 371.88063 133.37703 370.14062 137.20703 C 368.48064 140.85703 366.89969 144.53586 365.42969 148.25586 C 363.85969 152.23586 362.42023 156.26687 360.99023 160.29688 C 359.42023 164.71686 357.94968 169.16547 356.42969 173.60547 C 355.59968 176.03547 354.75992 178.45695 353.91992 180.87695 C 353.72994 180.86675 353.52937 180.85547 353.35938 180.85547 C 353.18939 180.14547 352.76913 179.3968 352.86914 178.7168 C 353.69914 173.0868 354.51055 167.4357 355.56055 161.8457 C 356.32055 157.7657 357.54063 153.77703 358.39062 149.70703 C 359.28062 145.43703 360.28945 141.15594 360.68945 136.83594 C 361.22945 131.03594 361.3896 125.18547 361.34961 119.35547 C 361.33961 117.43547 360.46977 115.38625 359.50977 113.65625 C 356.91976 109.00625 353.45961 105.03703 348.59961 102.70703 C 346.35961 101.62703 343.67008 100.58571 341.33008 100.8457 C 337.47008 101.2657 334.03906 103.37649 332.03906 106.89648 C 329.92906 110.59648 328.23977 114.53641 326.25977 118.31641 C 323.52976 123.53641 322.73 129.30531 321.75 134.94531 C 320.58 141.74531 320.15039 148.67664 319.40039 155.55664 C 319.13039 157.95664 318.84961 160.35586 318.59961 162.75586 C 318.41961 164.44586 317.70883 165.47656 315.79883 165.47656 C 313.57883 165.46658 311.36039 165.59608 309.15039 165.74609 C 306.34039 165.93609 303.50023 166.02586 300.74023 166.50586 C 297.18023 167.12586 296.61 166.62672 297.25 163.13672 C 298.76 154.85672 299.69977 146.55547 298.75977 138.10547 C 298.20977 133.13547 296.6 128.54609 294.25 124.24609 C 291.71 119.59609 288.47062 115.43578 284.39062 111.92578 C 277.80064 106.24578 270.37055 102.75681 261.56055 102.9668 C 259.05055 103.0268 256.40984 103.50555 254.08984 104.43555 C 248.27984 106.78555 243.96961 111.21531 240.09961 115.94531 C 236.37961 120.49531 233.10008 125.40672 229.58008 130.13672 C 229.27008 130.55672 228.66922 130.76618 228.19922 131.07617 C 227.85922 130.55617 227.27009 130.05539 227.24023 129.52539 C 227.12039 127.57539 227.27039 125.61578 227.15039 123.67578 C 226.89039 119.60578 226.93007 115.45586 226.08008 111.50586 C 225.29008 107.83586 223.83906 104.19672 222.03906 100.88672 C 220.24906 97.596718 217.04922 95.785468 213.44922 94.355469 C 212.15859 93.84297 210.88406 93.620106 209.67188 93.664062 z M 670.92383 116.91211 C 671.78133 116.97836 672.56016 117.56227 673.16016 118.69727 C 674.62015 121.45727 675.99029 124.35547 676.82031 127.35547 C 678.64031 133.93547 678.05945 140.50711 676.18945 147.03711 C 675.63961 148.95711 675.55886 151.00586 675.29883 153.00586 C 674.27881 160.85586 673.34002 168.70688 672.25 176.54688 C 671.56001 181.46686 670.78052 186.36633 669.81055 191.23633 C 669.08053 194.91633 668.08905 198.54648 667.03906 202.14648 C 665.76907 206.5265 664.5304 210.92599 662.90039 215.16602 C 660.86039 220.486 658.41976 225.63663 654.00977 229.55664 C 650.55976 232.62664 647.62007 231.99577 645.33008 227.92578 C 642.09008 222.18577 641.6493 215.95719 641.5293 209.61719 C 641.7193 201.05718 642.83969 192.6264 644.92969 184.31641 C 646.41969 178.3964 647.57937 172.39609 649.10938 166.49609 C 650.38936 161.56609 651.98875 156.73719 653.46875 151.86719 C 654.28875 149.17719 655.09 146.48617 656 143.82617 C 657.19 140.33617 658.28883 136.80703 659.79883 133.45703 C 661.76883 129.06703 664.07057 124.82664 666.31055 120.55664 C 666.77055 119.68664 667.50898 118.93656 668.20898 118.22656 C 669.129 117.29656 670.06633 116.84586 670.92383 116.91211 z M 806.94141 116.96875 C 808.25781 117.0666 809.4414 118.26055 810.62891 120.18555 C 813.8389 125.37554 814.91905 131.26594 815.28906 138.58594 C 814.65905 142.30594 813.81923 147.26609 812.94922 152.24609 C 811.56924 160.1961 810.73861 168.17539 810.46875 176.27539 C 810.26874 182.18539 808.94954 188.09555 807.76953 193.93555 C 806.68953 199.25555 805.349 204.54678 803.70898 209.7168 C 801.63901 216.23678 799.19934 222.68602 794.60938 227.91602 C 793.12935 229.60603 790.88031 230.71713 788.82031 231.78711 C 788.17031 232.12712 786.81961 231.74609 786.09961 231.24609 C 781.89961 228.30607 780.17937 223.78618 779.35938 219.07617 C 778.60925 214.73618 778.23908 210.23595 778.44922 205.83594 C 778.72921 200.03595 779.64047 194.24656 780.48047 188.47656 C 781.07049 184.43657 781.93031 180.41578 782.82031 176.42578 C 783.59032 172.96578 784.55875 169.53547 785.46875 166.10547 C 786.14876 163.51547 786.83937 160.92719 787.60938 158.36719 C 789.55937 151.88719 791.33939 145.33679 793.60938 138.9668 C 795.87939 132.61679 798.4697 126.34648 802.17969 120.64648 C 802.79968 119.69649 803.56039 118.80664 804.40039 118.05664 C 805.31539 117.24664 806.15157 116.91004 806.94141 116.96875 z M 254.67188 118.42773 C 255.57795 118.41235 256.45656 119.10289 257.42969 120.44727 C 259.18969 122.87727 260.55898 125.84539 261.20898 128.77539 C 262.27898 133.59539 262.63891 138.57609 263.12891 142.24609 C 262.49891 151.24609 261.94945 158.93633 260.18945 166.48633 C 259.67945 168.63633 259.16883 170.79656 258.79883 172.97656 C 258.31883 175.83656 256.11961 176.65648 253.84961 177.64648 C 249.31961 179.61648 244.69969 181.47578 240.42969 183.92578 C 234.40969 187.37578 228.69055 191.32539 222.81055 195.02539 C 222.36055 195.30557 221.47946 195.54639 221.18945 195.31641 C 220.76946 194.98641 220.47883 194.17718 220.54883 193.61719 C 221.28883 187.68718 221.7893 181.70695 223.0293 175.87695 C 223.9793 171.40696 225.84016 167.11711 227.41016 162.78711 C 228.71016 159.21711 230.03938 155.63578 231.60938 152.17578 C 233.40937 148.22578 235.37047 144.33711 237.48047 140.53711 C 239.46047 136.96711 241.54969 133.43672 243.92969 130.13672 C 246.54969 126.51672 249.44922 123.08562 252.44922 119.76562 C 253.24547 118.87751 253.96714 118.4397 254.67188 118.42773 z M 481.98242 136.82227 C 482.718 136.81172 483.50172 136.91852 484.33984 137.16602 C 485.75985 137.58602 487.26914 138.63594 488.11914 139.83594 C 492.27914 145.68594 494.36039 152.38696 495.65039 159.37695 C 495.69008 159.56695 495.69972 159.77655 495.67969 159.97656 C 495.53969 161.16656 496.2493 162.76609 494.5293 163.24609 C 492.85929 163.71609 491.60906 162.81562 490.53906 161.51562 C 489.44906 160.17563 488.31047 158.82609 486.98047 157.74609 C 484.62047 155.83609 481.83936 156.09688 479.10938 156.79688 C 478.61937 156.91687 478.16891 157.52563 477.87891 158.01562 C 474.96891 163.01563 476.47047 171.11703 480.98047 174.70703 C 484.00047 177.10703 487.53008 177.95611 491.33008 177.99609 C 495.92005 178.04609 495.85944 178.07711 495.93945 182.78711 C 496.05945 190.62711 495.08945 198.37634 493.43945 205.98633 C 492.14945 211.91633 490.3893 217.80648 486.7793 222.89648 C 484.45929 226.16646 481.53039 228.62617 477.65039 229.82617 C 475.43039 230.51616 473.89039 229.12702 472.40039 227.95703 C 468.05039 224.53701 465.35016 220.02584 463.66016 214.75586 C 461.60015 208.35583 460.55985 201.86719 460.33984 195.11719 C 461.06984 188.45719 461.40938 181.71672 462.60938 175.13672 C 463.86937 168.36672 465.73078 161.67547 467.80078 155.10547 C 469.29078 150.33547 471.27922 145.67555 474.44922 141.68555 C 476.49672 139.11805 478.79492 136.86797 481.98242 136.82227 z M 251.35547 191.83008 C 251.69922 191.81135 252.01898 191.85587 252.20898 192.00586 C 252.57898 192.30586 252.73055 193.26664 252.56055 193.80664 C 251.95055 195.71664 251.23969 197.59578 250.42969 199.42578 C 246.60969 208.13579 242.22976 216.54553 236.50977 224.18555 C 235.36977 225.70556 233.87055 227.04603 232.31055 228.16602 C 230.23054 229.65602 227.15024 228.70643 226.24023 226.31641 C 225.44023 224.21643 224.97031 221.99618 224.57031 220.57617 C 225.00031 215.67617 226.36992 212.01632 228.66992 208.73633 C 233.59992 201.78632 240.30064 197.01523 247.89062 193.36523 C 248.74062 192.96523 249.48937 192.35712 250.35938 192.03711 C 250.64436 191.93219 251.01172 191.84881 251.35547 191.83008 z M 554.9668 194.96094 C 556.2343 194.93234 556.9404 195.79641 557.15039 197.56641 C 557.63039 201.6164 557.92946 205.69552 558.43945 211.18555 C 557.92946 213.12554 557.36969 216.43611 556.17969 219.49609 C 554.72969 223.1961 551.32039 225.1568 547.90039 226.7168 C 544.20039 228.40549 540.20891 229.436 536.12891 228.41602 C 533.89891 227.856 531.31953 227.19554 529.76953 225.68555 C 525.41952 221.45558 524.46032 214.6672 529.57031 209.61719 C 534.35032 204.8972 539.9893 201.48602 546.0293 198.66602 C 548.5093 197.50602 550.95977 196.24711 553.50977 195.28711 C 554.05977 195.07961 554.5443 194.97047 554.9668 194.96094 z M 810.74805 253.86133 C 810.80976 253.86871 810.86165 253.88602 810.90039 253.91602 C 811.45024 254.34601 811.8004 255.34573 811.78906 256.0957 C 811.74904 257.69573 811.39028 259.28669 811.24023 260.88672 C 810.39022 269.83672 809.85892 278.82657 808.62891 287.72656 C 807.66891 294.67658 805.68992 301.42696 802.66992 307.87695 C 799.06992 315.55695 794.57946 322.50695 788.18945 328.12695 C 785.55947 330.44694 782.70018 332.29672 779.16016 333.13672 C 776.08018 333.86673 771.91889 332.70622 770.12891 328.90625 C 767.89891 324.18622 766.97981 319.26568 767.16992 314.0957 C 767.00007 314.05564 766.83023 314.02633 766.66016 313.99609 C 767.35015 310.19608 767.5604 306.20671 768.90039 302.63672 C 770.2504 298.99673 772.41876 295.56649 774.71875 292.39648 C 778.87876 286.65648 783.09982 280.91601 787.83984 275.66602 C 793.70983 269.15601 800.1301 263.12622 806.33008 256.90625 C 807.13009 256.09622 807.94917 255.28672 808.86914 254.63672 C 809.38541 254.2693 810.31605 253.80967 810.74805 253.86133 z M 354.83984 326.52539 C 351.69984 326.48537 347.55017 330.4658 347.66016 334.17578 C 347.77016 337.88577 351.54906 341.10747 354.53906 341.02734 C 357.92906 340.93732 362.37883 338.10591 361.79883 333.58594 C 362.19883 329.69593 358.40985 326.56545 354.83984 326.52539 z M 326.67578 327.07227 C 322.33867 327.12557 320.72578 330.43984 320.51953 334.24609 C 320.31953 337.9461 323.35039 341.26628 326.65039 341.07617 C 330.22039 340.86618 334.54933 337.89572 334.5293 334.0957 C 334.5093 330.18571 332.26008 326.70544 327.58008 327.10547 C 327.26633 327.07922 326.96492 327.06871 326.67578 327.07227 z M 585.24414 348.52539 C 583.61831 348.52041 582.73398 349.32774 582.49023 351.14648 C 581.73024 356.8665 580.89023 362.58709 579.99023 368.28711 C 578.47023 377.89709 576.83008 387.49545 575.33008 397.10547 C 573.83008 406.71545 572.48875 416.35682 570.96875 425.9668 C 570.07875 431.59682 568.93922 437.18688 567.94922 442.79688 C 567.23922 446.82686 566.5789 450.86649 565.87891 454.89648 C 565.81892 455.20648 565.59923 455.47575 565.44922 455.76562 L 565.44922 455.76758 C 565.25922 455.76758 565.07913 455.77577 564.86914 455.78711 C 564.67916 454.9871 564.42053 454.18694 564.31055 453.37695 C 563.50055 447.45697 562.75016 441.52546 561.91016 435.60547 C 560.94016 428.76547 559.93016 421.92573 558.91016 415.0957 C 558.22016 410.44571 557.66 405.77602 556.75 401.16602 C 555.38 394.18602 553.90922 387.21643 552.19922 380.31641 C 550.51922 373.50642 548.7107 366.69687 546.4707 360.04688 C 545.5707 357.37687 543.67898 354.85584 541.70898 352.75586 C 539.47898 350.37585 534.79022 351.96703 534.49023 355.20703 C 534.24024 357.86702 534.64883 360.68663 535.29883 363.30664 C 536.62883 368.62667 538.33937 373.85672 539.85938 379.13672 C 540.61936 381.7667 541.3093 384.42616 542.0293 387.07617 C 542.9793 390.56615 544.00937 394.03687 544.85938 397.54688 C 545.71936 401.13685 546.39016 404.76698 547.16016 408.37695 C 547.79016 411.32695 548.45008 414.27657 549.08008 417.22656 C 549.99008 421.48658 551.00953 425.72561 551.76953 430.01562 C 552.76953 435.63559 553.74992 441.26554 554.41992 446.93555 C 555.42992 455.44553 556.24 463.99712 557 472.53711 C 557.30001 475.87712 557.07062 479.26546 557.39062 482.60547 C 557.50062 483.76548 558.32 485.1572 559.25 485.86719 C 561.81 487.82721 565.83953 486.76642 567.76953 483.56641 C 569.40953 480.83642 570.88 477.94655 572 474.97656 C 573.22 471.72658 574.19961 468.34725 574.84961 464.94727 C 575.87961 459.61726 576.68008 454.22596 577.33008 448.83594 C 578.39008 440.11596 579.25969 431.37673 580.17969 422.63672 C 580.88969 415.89673 581.54047 409.15601 582.23047 402.41602 C 582.27046 402.01599 582.41927 401.6361 582.5293 401.24609 C 583.43929 397.88609 584.37977 394.53603 585.25977 391.16602 C 586.77977 385.39604 588.34875 379.64594 589.71875 373.83594 C 591.29875 367.17596 592.6401 360.47665 592.58008 353.55664 C 592.56008 351.13665 591.25961 349.76702 589.34961 348.95703 C 588.22961 348.48716 586.85008 348.61724 585.58008 348.53711 C 585.46508 348.52961 585.35253 348.52572 585.24414 348.52539 z M 334.0918 350.28516 C 331.71428 350.34546 329.59492 351.41483 328.31055 353.35547 C 326.71055 355.77546 325.53039 358.49579 324.40039 361.17578 C 321.44039 368.19576 320.42898 375.73553 319.95898 383.18555 C 319.20899 394.98553 319.28898 406.82581 318.95898 421.42578 C 319.35898 428.2558 319.84977 437.83601 320.50977 447.41602 C 320.77977 451.296 321.04992 455.23586 321.91992 459.00586 C 323.66992 466.56586 325.94953 473.9957 330.26953 480.5957 C 332.71953 484.3357 335.63898 487.17588 340.70898 486.75586 C 344.37899 486.45576 348.09883 486.64688 351.79883 486.7168 C 353.85883 486.75678 355.51992 486.01616 357.16992 484.82617 C 360.89992 482.13617 363.14064 478.33649 365.14062 474.39648 C 368.00063 468.77652 369.33945 462.5868 370.18945 456.4668 C 371.31945 448.2368 371.66908 439.88614 372.03906 431.57617 C 372.21906 427.43615 371.53999 423.27695 371.5 419.12695 C 371.39 406.98696 371.74898 394.81544 368.95898 382.85547 C 367.51898 376.68547 365.51969 370.8157 362.17969 365.3457 C 355.82969 354.95571 346.30031 350.64692 334.57031 350.28711 C 334.40969 350.28211 334.2503 350.28114 334.0918 350.28516 z M 513.79688 351.93555 C 512.96662 351.9085 512.13414 352.14985 511.36914 352.88672 C 509.64914 354.54673 508.28984 356.32553 507.58984 358.68555 C 506.14984 363.54553 504.17906 368.27702 503.03906 373.20703 C 501.38906 380.32702 500.28945 387.56609 498.93945 394.74609 C 498.86953 395.1355 498.70025 395.49582 498.57031 395.86523 C 498.32031 395.92533 498.07937 395.99605 497.85938 396.07617 C 497.14938 394.17617 496.33 392.31695 495.75 390.37695 C 494.87 387.42696 494.27961 384.38533 493.34961 381.44531 C 491.83961 376.64531 490.3807 371.80603 488.4707 367.16602 C 486.9807 363.54602 484.94945 360.13585 482.93945 356.75586 C 481.93945 355.07586 479.90078 354.76522 478.30078 355.61523 C 474.93078 357.40522 474.13898 359.49524 475.45898 363.11523 C 475.70899 363.80522 475.8796 364.52631 476.09961 365.23633 C 477.51961 369.90631 478.92064 374.58634 480.39062 379.23633 C 480.98062 381.08633 481.70015 382.89531 482.41016 384.69531 C 483.83015 388.29531 485.3207 391.86655 486.7207 395.47656 C 488.1707 399.21656 489.45023 403.02656 490.99023 406.72656 C 492.80023 411.06656 494.8 415.30656 494.25 420.22656 C 494.11 421.39659 494.44055 422.62617 494.56055 423.82617 C 495.22055 430.50618 496.35923 437.17524 496.44922 443.86523 C 496.58922 454.53526 496.07022 465.21648 495.74023 475.89648 C 495.68023 477.8965 495.36992 479.91522 494.91992 481.86523 C 494.38992 484.17524 495.94008 486.54577 498.33008 486.67578 C 499.20008 486.72492 500.07922 486.70703 500.94922 486.70703 C 503.74922 486.68704 505.57055 485.41554 506.06055 482.68555 C 506.57055 479.84553 507.04052 476.95596 507.06055 474.08594 C 507.15042 457.47593 507.13985 440.8561 507.08984 424.24609 C 507.06984 415.43609 507.01906 406.6564 509.53906 398.06641 C 511.08906 392.79638 512.35922 387.44719 513.69922 382.11719 C 515.22922 376.01722 516.85891 369.91588 518.12891 363.75586 C 518.65891 361.16586 518.43047 358.4068 518.48047 355.7168 C 518.51047 353.85682 517.10922 352.91693 515.69922 352.37695 C 515.08672 352.14069 514.44262 351.95659 513.79688 351.93555 z M 263.62891 352.31836 C 260.85891 352.39837 258.15023 354.91674 257.99023 357.63672 C 257.45023 366.87672 256.93992 376.12694 256.41992 385.37695 C 256.20992 389.12692 256.0493 392.89843 255.7793 396.64844 C 255.3593 402.46842 254.52047 408.27764 254.48047 414.09766 C 254.32047 436.15766 254.40991 458.21738 254.41992 480.27734 C 254.41992 481.28735 254.40883 482.30687 254.54883 483.29688 C 254.86883 485.48684 256.13984 486.58828 258.33984 486.6582 C 259.47984 486.68844 260.62953 486.67578 261.76953 486.67578 C 265.18953 486.66577 265.25977 486.60578 265.25977 483.17578 C 265.26974 472.54575 265.31 461.92686 265.25 451.29688 C 265.18 439.53688 266.36945 427.97548 270.43945 416.85547 C 270.66945 416.21548 271.40039 415.75682 271.90039 415.2168 C 272.40039 415.8168 273.18938 416.34733 273.35938 417.02734 C 274.06937 419.89733 274.56922 422.80725 275.19922 425.69727 C 275.80922 428.50723 276.47064 431.31716 277.14062 434.11719 C 278.52062 439.91717 279.76984 445.75588 281.33984 451.50586 C 282.67984 456.39585 284.37898 461.18563 285.95898 466.01562 C 287.85898 471.82559 290.37 477.36698 293.5 482.62695 C 295.22 485.52698 297.36023 487.36705 300.99023 486.70703 C 301.90023 486.54716 302.87055 486.69625 303.81055 486.66602 C 305.74055 486.60603 306.64039 485.65679 306.90039 483.7168 C 307.30039 480.63678 305.99 478.11716 304.5 475.61719 C 302.03 471.48718 299.27898 467.49578 297.20898 463.17578 C 295.38898 459.39576 294.34047 455.24583 292.98047 451.25586 C 292.14047 448.78582 291.35031 446.29663 290.57031 443.80664 C 289.67031 440.93666 288.74945 438.06601 287.93945 435.16602 C 286.90945 431.49602 285.86883 427.8157 285.04883 424.0957 C 284.10883 419.8457 283.04969 415.57586 282.67969 411.25586 C 282.26969 406.45586 282.55914 401.59563 282.61914 396.76562 C 282.62914 395.93565 282.81047 394.99713 283.23047 394.28711 C 285.79047 389.89711 288.46031 385.56706 291.07031 381.20703 C 294.89031 374.83705 298.64953 368.43567 302.51953 362.0957 C 304.72953 358.4957 304.37023 356.70719 300.74023 354.61719 C 298.33023 353.23721 295.34047 353.41661 293.73047 355.30664 C 292.21047 357.08661 290.77008 358.96678 289.58008 360.9668 C 286.98008 365.3368 284.48984 369.77587 282.08984 374.25586 C 279.18984 379.67585 276.45063 385.17674 273.64062 390.63672 C 272.25064 393.35673 270.87047 396.0769 269.48047 398.79688 C 269.24047 398.78705 269.01055 398.78805 268.81055 398.75781 C 268.60055 397.75783 268.21069 396.75755 268.2207 395.76758 C 268.2807 387.69757 268.37008 379.62835 268.58008 371.56836 C 268.64008 369.30835 269.11969 367.04686 269.42969 364.79688 C 269.75969 362.40689 270.38892 360.02674 270.37891 357.63672 C 270.36891 354.67674 267.00891 352.22841 263.62891 352.31836 z M 670.12305 352.32031 C 667.53346 352.38148 664.93819 354.45898 664.76953 356.75586 C 664.23953 363.98587 663.79908 371.21555 663.28906 378.43555 C 662.92906 383.51553 662.48017 388.59554 662.16016 393.68555 C 661.71016 400.98555 661.03047 408.29548 660.98047 415.60547 C 660.82048 437.19545 660.91942 458.77521 660.93945 480.36523 C 660.93945 481.69521 661.04963 483.06548 661.34961 484.35547 C 661.67961 485.78549 662.68001 486.65688 664.25 486.67578 C 665.06003 486.68712 665.85993 486.71837 666.66992 486.70703 C 671.71979 486.63703 671.67027 487.46541 671.82031 481.52539 C 672.26033 463.94541 670.35883 446.28665 673.54883 428.80664 C 674.13881 425.57666 675.04899 422.40587 675.95898 419.25586 C 676.40901 417.67587 677.17883 416.19601 677.79883 414.66602 C 678.10882 414.63616 678.41949 414.5967 678.7793 414.55664 C 679.3593 416.63663 680.02 418.68713 680.5 420.78711 C 681.42001 424.84712 682.17913 428.9461 683.11914 432.99609 C 683.94912 436.58612 684.95914 440.13704 685.86914 443.70703 C 686.65918 446.82703 687.29067 449.98639 688.2207 453.06641 C 689.63069 457.73643 690.98033 462.4568 692.82031 466.9668 C 695.0903 472.5368 697.70967 477.97592 700.42969 483.33594 C 701.62969 485.68593 703.64972 487.26633 706.67969 486.73633 C 707.65972 486.56625 708.68922 486.71837 709.69922 486.70703 C 712.3292 486.67706 713.94974 484.78598 713.50977 482.16602 C 712.97976 479.07599 711.77001 476.24617 709.75 473.82617 C 705.94001 469.27619 703.84011 463.83672 701.83008 458.38672 C 700.16009 453.86674 698.70928 449.25649 697.2793 444.64648 C 695.80929 439.91648 694.40917 435.16673 693.11914 430.38672 C 692.18915 426.89674 691.6789 423.28593 690.62891 419.83594 C 688.22891 411.92592 689.16881 403.86571 689.29883 395.8457 C 689.30881 395.33573 689.48997 394.7664 689.75 394.31641 C 692.2 390.0164 694.62943 385.69677 697.18945 381.4668 C 701.44943 374.42678 705.83959 367.46579 710.09961 360.42578 C 710.92959 359.0458 710.77046 357.33695 709.48047 356.37695 C 708.01046 355.28694 706.26953 354.42624 704.51953 353.90625 C 702.75956 353.38626 700.98018 353.88594 699.91016 355.58594 C 696.37018 361.16592 692.77992 366.72601 689.41992 372.41602 C 687.20992 376.15601 685.37061 380.11632 683.39062 383.98633 C 681.30063 388.08632 679.24913 392.22639 677.11914 396.31641 C 676.75914 397.01641 676.09055 397.54627 675.56055 398.15625 C 675.20055 397.38625 674.51796 396.61546 674.5293 395.85547 C 674.67931 387.73546 674.79046 379.60609 675.23047 371.49609 C 675.44046 367.6361 676.17897 363.78609 676.95898 359.99609 C 677.92896 355.28608 673.72064 352.59597 670.64062 352.33594 C 670.46876 352.32156 670.29569 352.31623 670.12305 352.32031 z M 399.94336 352.55664 C 398.53461 352.58665 397.13937 353.22578 396.10938 354.42578 C 393.42938 357.5558 391.61874 361.08696 391.71875 365.37695 C 391.74876 366.65697 391.63008 367.92706 391.58008 369.20703 C 391.15008 380.33706 390.42936 391.47718 390.35938 402.61719 C 390.26938 418.47718 390.68032 434.34704 390.82031 450.20703 C 390.89016 457.67704 390.74893 465.14548 390.87891 472.60547 C 390.92891 475.19547 391.34039 477.81548 391.90039 480.35547 C 392.66039 483.79548 396.19867 485.49666 399.63867 484.30664 C 402.93867 483.17668 404.50016 479.64589 403.41016 476.50586 C 402.70016 474.46586 402.09967 472.26696 402.08984 470.12695 C 402.00998 441.20695 402.03906 412.27547 402.03906 383.35547 C 402.03906 382.28545 402.01015 381.19673 402.16016 380.13672 C 402.25016 379.51673 402.67016 378.94548 403.16016 377.85547 C 404.81015 381.95546 406.24938 385.45632 407.60938 388.98633 C 409.05937 392.73634 410.41031 396.51711 411.82031 400.28711 C 413.36032 404.41711 414.92875 408.52625 416.46875 412.65625 C 417.96875 416.65624 419.45945 420.66578 420.93945 424.67578 C 422.34946 428.50577 423.77937 432.32555 425.10938 436.18555 C 426.52936 440.28558 427.84922 444.42664 429.19922 448.55664 C 430.81922 453.51663 432.64899 458.42658 433.95898 463.47656 C 435.43899 469.16657 436.27875 475.01682 437.71875 480.7168 C 438.69875 484.62679 440.80945 486.1571 444.18945 485.53711 C 445.95945 485.21713 447.75891 484.7461 449.37891 483.99609 C 450.26891 483.58609 451.30944 482.53649 451.43945 481.64648 C 452.67945 473.14648 454.06906 464.65548 454.78906 456.10547 C 455.68906 445.41549 456.12883 434.67727 456.54883 423.94727 C 457.08883 410.25729 457.45928 396.55546 457.7793 382.85547 C 457.93947 376.33544 457.86954 369.8071 457.76953 363.28711 C 457.73953 361.35709 457.41039 359.38541 456.90039 357.52539 C 456.28039 355.25541 454.26907 353.40537 451.03906 353.77539 C 448.83906 354.02541 446.98922 355.81661 446.69922 358.30664 C 446.58923 359.23663 446.63873 360.18695 446.62891 361.12695 C 446.45891 383.42696 447.11922 405.74542 445.44922 428.02539 C 444.95922 434.5854 444.89881 441.16634 444.54883 447.73633 C 444.35883 451.28632 444.01914 454.83718 443.61914 458.36719 C 443.49914 459.42719 442.93031 460.427 442.57031 461.45703 C 442.33031 461.437 442.08031 461.41538 441.82031 461.39648 C 441.04031 459.01648 440.18976 456.64634 439.50977 454.23633 C 437.52977 447.19635 435.62992 440.14544 433.66992 433.10547 C 433.03992 430.83545 432.32039 428.60546 431.65039 426.35547 C 430.65039 423.01546 429.65945 419.67591 428.68945 416.33594 C 427.90945 413.63592 427.24016 410.9068 426.41016 408.2168 C 424.92016 403.35678 423.40906 398.49577 421.78906 393.67578 C 419.90906 388.09576 418.06016 382.49539 415.91016 377.02539 C 413.94016 371.99537 411.74883 367.03679 409.29883 362.2168 C 407.85883 359.39678 405.94936 356.72567 403.85938 354.3457 C 402.77437 353.10577 401.35211 352.52663 399.94336 352.55664 z M 618.16406 352.86719 C 615.77868 352.91839 613.49844 353.84721 612.32031 356.19531 C 611.15031 358.51534 610.42899 361.23592 610.20898 363.83594 C 609.34898 373.95592 611.27914 384.01484 610.61914 394.21484 C 609.71916 408.08484 610.0004 422.03533 609.90039 435.94531 C 609.85039 443.87533 609.97016 451.81412 610.16016 459.74414 C 610.33016 466.72413 610.70002 473.69408 611 480.66406 C 611.02997 481.40406 611.15961 482.14545 611.34961 482.85547 C 612.07961 485.57548 613.4 486.63572 616.25 486.67578 C 619.95 486.72718 623.64961 486.68555 627.34961 486.68555 C 627.34961 486.65569 627.34905 486.63634 627.37891 486.625 C 631.33891 486.625 635.3093 486.70569 639.2793 486.5957 C 641.44929 486.53572 643.11977 485.14506 643.50977 483.45508 C 644.09976 480.88507 643.38 478.52544 641.25 477.60547 C 639.77 476.95543 637.99961 476.7457 636.34961 476.73438 C 632.31961 476.70414 628.28 476.94431 624.25 476.98438 C 621.26 477.01437 620.94953 476.70493 621.01953 473.79492 C 621.18953 466.61495 621.45064 459.44563 621.64062 452.26562 C 621.84063 444.54565 622.09041 436.83522 622.15039 429.11523 C 622.18039 425.49524 621.77969 421.87585 621.67969 418.25586 C 621.59969 415.64583 622.29064 415.05508 624.89062 415.125 C 627.57063 415.1953 630.25922 415.34469 632.94922 415.31445 C 635.72922 415.28444 638.00985 413.06471 638.33984 410.55469 C 638.76984 407.2747 636.3207 405.08576 633.7207 404.83594 C 631.05071 404.57591 628.35993 404.55569 625.66992 404.51562 C 621.72992 404.45565 620.93906 403.77588 621.03906 399.75586 C 621.10906 396.74588 621.52915 393.75412 621.61914 390.74414 C 621.84916 383.23414 621.98039 375.71533 622.15039 368.19531 C 622.16022 367.72533 622.12053 367.25518 622.15039 366.78516 C 622.25039 365.34523 622.89992 364.73581 624.41992 365.17578 C 627.11992 365.96578 629.83031 366.72478 632.57031 367.38477 C 633.99032 367.72492 635.47945 367.99414 636.93945 367.99414 C 639.42945 367.98412 641.4193 366.21514 642.2793 363.53516 C 643.00929 361.24514 642.0607 359.55497 640.2207 358.375 C 638.7107 357.415 637.11016 356.35485 635.41016 355.96484 C 630.26016 354.77486 625.06031 353.68484 619.82031 352.96484 C 619.27094 352.88985 618.71454 352.85537 618.16406 352.86719 z M 341.48438 361.53125 C 342.11093 361.5198 342.75805 361.55797 343.41992 361.63672 C 348.73992 362.27671 352.32922 365.22633 354.94922 369.73633 C 357.16922 373.56635 357.94008 377.61562 358.08008 382.01562 C 358.37008 390.7356 359.27008 399.42647 359.58008 408.14648 C 359.96007 418.68649 360.25054 429.24714 360.06055 439.78711 C 359.95055 446.00712 359.01984 452.22673 358.08984 458.38672 C 357.59984 461.66674 356.50008 464.89563 355.33008 468.01562 C 354.31008 470.73564 353.03945 473.42596 351.43945 475.83594 C 350.50945 477.24597 348.73906 478.126 347.28906 479.16602 C 345.44906 480.49599 343.62898 479.89693 342.45898 478.37695 C 340.51898 475.84694 338.57023 473.21594 337.24023 470.33594 C 332.85023 460.82593 332.30953 450.51708 331.51953 440.28711 C 330.97953 433.33709 330.50047 426.37616 329.98047 419.32617 C 330.27047 414.70615 330.64882 410.01711 330.79883 405.28711 C 330.97885 400.61713 330.83884 395.93565 331.04883 391.26562 C 331.34883 384.56563 331.65985 377.8673 332.33984 371.19727 C 332.55985 369.11728 333.78063 367.03601 334.89062 365.16602 C 336.43437 362.55799 338.76926 361.58088 341.48438 361.53125 z M 130.18945 401.82617 C 118.80945 401.72617 109.93 410.30672 110 422.13672 C 109.46 432.4667 119.00984 442.42744 130.33984 442.19727 C 141.90984 441.95727 150.61891 432.52718 150.37891 422.11719 C 150.09891 409.89718 141.45945 401.92633 130.18945 401.82617 z M 796.76953 401.83594 C 785.31953 401.85593 776.64024 409.87587 776.62891 422.25586 C 776.61889 433.27587 785.22912 442.35724 796.61914 442.03711 C 808.25914 442.62709 817.09039 433.18655 816.99023 422.22656 C 816.88025 409.60657 808.05951 401.81704 796.76953 401.83594 z "
       transform="matrix(0.26458333,0,0,0.26458333,-75.531261,46.482847)" />
  </g>
</svg>
