<svg xmlns="http://www.w3.org/2000/svg" width="572.978" height="582.736" viewBox="0 0 572.978 582.736">
  <g id="leaf_4" transform="translate(0)">
    <g id="leaf_4-2" data-name="leaf_4" transform="translate(-1181.197 1248.699) rotate(-41)" opacity="0.1">
      <path id="Path_33" data-name="Path 33" d="M1898.069,151.708c5.466-.62,6.232-.485,7.694,3.21,2.144,5.414,5.309,10.523,5.28,16.67-.005,1.33.741,2.661,1.125,4a84.759,84.759,0,0,1,3.578,27.3c-.072,1.665-.38,3.322-.608,4.981-.793,5.789-2.146,11.565-2.279,17.369-.233,10.15-2.113,19.976-4.345,29.793a28.442,28.442,0,0,0-.822,4.089c-.84,10.939-3.006,21.53-7.55,31.605a99.826,99.826,0,0,0-3.442,10.323c-4.839,14.9-11.169,29.211-17.084,43.685a83.708,83.708,0,0,0-4.442,13.51c-1.334,5.979-2.8,11.936-4.483,17.848a138.367,138.367,0,0,0-3.457,18.019c-.44,3.056-1.154,6-1.817,9-1.023,4.611-2.123,9.212-2.2,14.04a70.552,70.552,0,0,1-1.641,12.439,154.67,154.67,0,0,0-3.255,24.024c-.19,4.95-1.218,9.949-1.705,14.951-.05.506-1.164,1.106-1.883,1.3a2.311,2.311,0,0,1-2.607-1.536,4.006,4.006,0,0,1-.091-1.659c1.577-4.041,1.2-8.294,1.315-12.466a84.682,84.682,0,0,1,2.832-20.7,5.224,5.224,0,0,0,.318-1.638c-.427-7.348,2.308-14.415,1.992-21.7-.128-2.913,2.027-5.255,1.391-8.161-3.533,1.745-4.369,2.36-6.088,4.666-1.664,2.23-3.283,4.5-4.986,6.834-.947,12.945-2.73,25.944-2.007,39.074.229,4.19-.23,8.415.8,12.572a2.207,2.207,0,0,1-1.634,2.541c-.489-.28-1.14-.427-1.379-.822a15.984,15.984,0,0,1-2.043-10.271c.233-1.985.656-3.816-.161-5.727a2.7,2.7,0,0,1-.255-1.615c1.971-7.156.976-14.495,1.411-21.742a27.2,27.2,0,0,1,.676-4.95c1.182-4.71.537-9.492.724-14.237.057-1.432-.816-2.586-1.631-3.777-3.339-4.868-7.552-8.97-11.382-12.907-.389-2.527-.107-4.362,1.98-5.447a6.14,6.14,0,0,1,5.086,3.773c1.358,2.978,2,6.456,5.064,8.5.385-.492.9-.848.95-1.263.593-4.7,1.125-9.409,1.651-14.118.3-2.705-1-4.988-2.389-7.033-2.825-4.157-5.731-8.236-7.254-13.1-.8-2.55-3.243-3.832-4.561-5.976a2.709,2.709,0,0,1-.224-3.125,3.247,3.247,0,0,1,2.572-1.878,2.88,2.88,0,0,1,2.749,1.634,75.48,75.48,0,0,1,4.07,9.968c1.156,3.842,3.692,6.679,5.978,10.516a43.361,43.361,0,0,0,2.13-5.319c1.246-5.138,2.414-10.3,3.443-15.485.791-3.986.567-7.994-2.387-11.072-3.393-3.536-5.506-7.805-7.311-12.168-1.553-3.754-4.658-6.29-6.475-9.6a3.233,3.233,0,0,1,1.892-3.526,2.927,2.927,0,0,1,4.316,1.064,35.2,35.2,0,0,1,1.879,4.64,60.21,60.21,0,0,0,5.171,12.344c1.009,1.684,1.963,3.409,3.81,4.359,2.9-4.855,4.931-10.367,7.4-20.066a17.909,17.909,0,0,0-1.9-3.65c-5.128-6.048-7.691-13.64-12.2-20.054a5.363,5.363,0,0,1-.726-4.039,2.238,2.238,0,0,1,2.179-2.128,2.923,2.923,0,0,1,2.2.815,17.636,17.636,0,0,1,2.247,4.459c1.9,5.905,5.152,11.16,7.8,16.7.211.441.834.684,1.544,1.237a24.244,24.244,0,0,0,3.929-10.582,55.492,55.492,0,0,1,1.549-9.041,12.471,12.471,0,0,0-1.227-10.513,98.237,98.237,0,0,1-6.109-11.959c-1.284-2.94-3.789-4.846-5.414-7.449-.624-1-.092-3.251.966-3.739a3.027,3.027,0,0,1,3.17.242c2.192,1.553,2.954,4.036,4,6.3,1.871,4.062,3.611,8.182,5.412,12.275a3.218,3.218,0,0,0,2.284,2.21c3.125-4.423,4.036-9.733,5.668-14.75a6.973,6.973,0,0,0-.862-6.428,60.068,60.068,0,0,1-7.807-15.747,18.869,18.869,0,0,0-2.827-5.131c-1.888-2.578-2.261-5.694-3.317-8.557-.333-.905.136-2.177.453-3.215.117-.387.821-.753,1.3-.831a1.835,1.835,0,0,1,1.486.4,12.17,12.17,0,0,1,1.7,2.856c2.23,5.416,4.65,10.775,6.492,16.324a67.484,67.484,0,0,0,4.357,9.82c1.539.271,2.049-.394,2.32-1.7,1.529-7.353,3.163-14.687,4.7-22.038a25.068,25.068,0,0,0,.451-4.167,66.024,66.024,0,0,1,12.786-36.75l2.213,1.783c-1.247,2.547-2.583,4.97-3.644,7.508-1.384,3.31-4.535,5.812-4.421,9.806.1,3.4-2.566,6.283-1.876,9.806-1.643,4.59-1.446,9.381-1.508,14.137-.055,4.262-1.679,8.17-2.61,12.235-.176.767-.287,1.548-.458,2.484,3.065-1.688,3.2-1.608,4.217-3.384a21.543,21.543,0,0,1,9.792-8.885c.389-.185,1.018.138,1.555.228a5.3,5.3,0,0,1-1.463,4.494c-4.886,4.692-8.552,10.347-12.665,15.651-1.366,1.762-3.047,3.281-4.9,5.242-.019,2.676-2.2,5.347-1.341,8.439a1.627,1.627,0,0,0,2.31.045c2.736-1.833,4.86-4.675,8.325-5.193a3.6,3.6,0,0,1,2.387,3.27,4.033,4.033,0,0,1-2.562,4.024c-5.323,1.849-8.662,6.1-12.435,9.813-2.219,2.185-3.988,4.709-3.823,8.109a2.637,2.637,0,0,1-1.488,2.738,3.435,3.435,0,0,0-1.653,1.674c-1.568,4.69-1.253,9.737-2.985,14.522,4.037-3.659,6.251-8.9,11.883-10.416a5.374,5.374,0,0,1,4.119,3.842c-3.167,4.632-9.479,5.807-12.475,10.8-3.015,5.022-7.8,8.916-9.533,14.754-1.562,5.273-4.516,10.2-4.352,16.969,4.953-7.19,8.163-14.756,15.763-18.045,2.846,1.139,2.673,3.682,3.594,6.261a11.308,11.308,0,0,0,1.657-2.253c3.649-9.668,8.351-18.907,11.312-28.867,1.9-6.4,4.874-12.482,6.753-18.886,2.028-6.907,4.884-13.638,4.661-21.144-.106-3.562.99-7.17,1.624-10.742.87-4.925,1.819-9.837,2.735-14.754.1-.548.268-1.09.314-1.643q.974-11.7,1.92-23.392c.314-3.882.017-7.764,1.273-11.63a16.169,16.169,0,0,0,.072-7.519c-1.368-7.655-3.206-15.219-5.048-22.775a15.993,15.993,0,0,0-1.688-3.84c-1.9-3.421-4.749-3.789-7.4-.658a137.859,137.859,0,0,0-9.193,11.931c-5.008,7.411-10.7,14.376-14.971,22.272-5.974,11.055-12.883,21.6-17.352,33.474a27.217,27.217,0,0,1-7.26,11.186c-3.661,3.213-5.864,7.536-7.284,12.119-3.388,10.922-6.736,21.863-9.727,32.9-1.157,4.271-.434,8.937-1.945,13.23.57,8.175-1.475,16.145-2.268,24.19-.879,8.935-1.42,17.845-1.7,26.8-.043,1.379-.5,2.74-.677,4.12s-.624,2.882-.28,4.148c1.65,6.071,1.028,12.263,1.261,18.408.19,5.022-.333,10.1,1.327,15a9.807,9.807,0,0,1,.185,2.514,186.272,186.272,0,0,0,3.315,27.426,17.68,17.68,0,0,1,.19,3.362,79.428,79.428,0,0,0,6.162,30.2,6.616,6.616,0,0,1,.529,3.193,2.514,2.514,0,0,1-1.581,1.591c-.691.209-2.042.079-2.284-.356-1.6-2.9-3.578-5.772-4.309-8.916-1.85-7.951-5.124-15.34-8.025-22.889a94.158,94.158,0,0,1-5.872-24.3c-.479-4.689-1.417-9.338-2.267-13.983-1.051-5.75-2.721-11.376-2.664-17.328.021-2.175-.928-4.352-1.361-6.543a112.765,112.765,0,0,1-2.166-21.685c-.01-4.191-.012-8.343-1.158-12.5-1.1-4,.332-8.431-1.588-12.418a3.568,3.568,0,0,1-.249-1.643c.352-7.588-2.579-14.9-1.869-22.518-2.377-12.2-1.194-24.608-2.177-36.86-1.033-12.879-.356-25.823-1.679-38.6-1.13-10.934-.933-21.806-1.121-32.709-.086-5.012-.547-10.082,1.187-15.006.444-1.254.114-2.783.126-4.188q.2-22.75.385-45.5c.043-5.337.166-10.677.066-16.012-.107-5.578.185-11.128-1.311-16.7-.994-3.7-.413-7.816-.532-11.744-.206-6.7.516-13.477-1.652-20.021a4.423,4.423,0,0,1-.076-1.678c.6-8.415-3.146-15.8-5.665-23.456a13.368,13.368,0,0,0-3.642-5.556c-5.4-4.81-10.545-10.176-18.656-11.209-4.627,1.007-9.2,2.942-12.683,6.914a4.37,4.37,0,0,0-.58.608c-4.652,8.166-11.522,15.134-12.886,25.078-.524,3.815-1.954,7.538-3.239,11.207a102.477,102.477,0,0,0-4.934,24.525c-2.325,5.5-.641,11.718-3.056,17.209a2.523,2.523,0,0,0-.1.833c-.586,8.6-1.154,17.211-1.76,25.812-.254,3.616.228,7.3-1.2,10.815a9.135,9.135,0,0,0-.349,3.312c-.052,12.074-.556,24.175.074,36.214.376,7.211,1.427,14.417,1.527,21.675,1.788,4.272,1.306,8.8,1.553,13.254a32.1,32.1,0,0,0,.8,5.813c2.129,8.669,3.944,17.382,4.305,26.338.147,3.631,2.308,6.935,1.752,10.682,1.973,5.312.919,11.133,2.792,16.483a11.79,11.79,0,0,1,.326,4.176c-.152,4.8.819,9.44,1.848,14.082,1.69,7.608,3.5,15.2,4.917,22.856.864,4.678,2.237,9.186,3.471,13.754,3.925,14.509,8.456,28.843,12.157,43.422,2.054,8.089,5.359,15.86,8.125,23.765a24.691,24.691,0,0,1,1.289,3.1c1.736,8.863,5.563,16.936,9.3,25.054,1.049,2.28,1.982,4.625,2.809,7a131.317,131.317,0,0,0,11.639,24.779c-.069,2.866-3.395,5.4.187,7.916-3.284,1.334-4.388,1.294-5.4-.3q-3.369-5.315-6.567-10.739c-3.253-5.54-6.724-10.931-10.234-16.314-3.818-5.857-7.937-11.451-12.059-17.069a17.555,17.555,0,0,1-1.574-2.954c-6.2-13.192-14.1-25.413-21.747-37.771-2.343-3.785-5.337-7.17-8.057-10.718-1.873-2.439-3.887-4.773-5.67-7.275-3.885-5.451-7.684-10.963-11.478-16.478-3.633-5.281-7.215-10.6-10.817-15.9a33.557,33.557,0,0,0-3.321-4.827c-7.1-7.237-12.577-15.733-18.423-23.907-4.469-6.249-10.224-11.112-15.509-16.5-3.255-.855-4.371-4.139-6.76-6.054-6.948-5.563-14.353-10.557-20.785-16.8-2.759-2.68-6.349-4.6-9.768-6.482-5.881-3.243-11.962-6.121-17.889-9.283a193.1,193.1,0,0,0-26.234-11.119c-5.053-1.8-10.5-1.5-15.78-.608a3.785,3.785,0,0,0-2.382,2.137c-.86,2.343-1.824,4.822-1.851,7.256-.064,5.559-.979,11.159.912,16.7.883,2.59.408,5.623,1.168,8.28,3.385,11.832,7.3,23.461,14.189,33.848a92.026,92.026,0,0,0,12.247,14.908c9.023,8.847,16.689,18.8,23.881,29.136a41.078,41.078,0,0,0,6.714,7.346,361.543,361.543,0,0,0,32.505,25.063c3.208,2.251,6.833,3.647,10.022,6.028,4.908,3.666,9.854,7.323,14.894,10.82a110.545,110.545,0,0,1,17.062,14.885q10.449,10.985,21.405,21.488a144.762,144.762,0,0,1,20.714,25.3c1.69,2.571,3.519,5.05,5.269,7.546-.943,1.885-2.362,1.384-3.447.75a10.8,10.8,0,0,1-3.115-2.761c-2.85-3.79-5.691-7.6-8.3-11.558a85.757,85.757,0,0,0-13.9-16.77c-6.237-5.642-11.382-12.423-18.216-17.456-.859-.632-1.3-1.8-2.044-2.623a63.522,63.522,0,0,0-11.844-10.646c-3.727-2.457-7-5.587-10.694-8.1a159.346,159.346,0,0,0-14.258-8.878c-5.967-3.2-11.107-7.513-16.58-11.38-2.277-1.608-4.488-3.308-6.738-4.955-7.676-5.615-14.593-12.137-21.784-18.328a19.168,19.168,0,0,1-5.355-6.4c-3.516-7.676-9.823-13.5-14.027-20.749a18.4,18.4,0,0,0-4.723-4.765,67.694,67.694,0,0,1-7.026-7.018,40.166,40.166,0,0,1-7.541-11.888c-2.025-4.609-4.528-9.006-6.71-13.548a87.37,87.37,0,0,1-7.348-21.308,27.142,27.142,0,0,1-.957-5.748,43.674,43.674,0,0,0-2.4-16.511,5.7,5.7,0,0,1-.2-4.013c1.247-4,.707-8.4,3.6-13.078,1.817-1.5,4.649-1.971,8.346-.971,4.818,1.3,9.918,1.626,14.918,2.184,2.035.226,3.609,1.272,5.394,2.006,6.434,2.645,11.832,7.451,18.8,8.918,15.509,7.3,30.427,15.476,42.969,27.481a168.115,168.115,0,0,0,14.858,12.237c2.951,2.237,5.254,5.039,7.835,7.6.582.577.81,1.544,1.434,2.035,7.165,5.644,11.563,13.479,16.663,20.773a99.691,99.691,0,0,0,6.812,8.514,157.647,157.647,0,0,1,10.718,13.982c4.639,6.657,8.419,13.942,14.225,19.762,3.148,6.62,8.674,11.61,12.223,18.012,2.268,4.094,5.962,7.372,8.515,11.338,4.084,6.34,7.759,12.943,11.592,19.446,3.977,6.748,8.02,13.46,11.874,20.277,3.464,6.126,7.944,11.506,12.112,17.116.28.377.871.518,1.318.769.121-.518.49-1.145.321-1.539-2.311-5.4-4.706-10.754-7.061-16.131-.9-2.049-1.892-4.07-2.6-6.185-3.92-11.632-7.916-23.243-11.578-34.958-2.078-6.644-3.521-13.486-5.335-20.217-3.625-13.453-7.365-26.875-10.932-40.342-1.14-4.31-2.668-8.557-2.733-13.114a14.015,14.015,0,0,0-.7-3.231,74.347,74.347,0,0,1-2.652-15.628c-.225-5.266-1.461-10.473-2.07-15.742-.767-6.631-1.976-13.218-2.918-19.84-1.059-7.443-2.265-14.885-3.894-22.221a114.724,114.724,0,0,1-2.521-17.333c-.46-6.966.171-13.99-1.712-20.871-.577-2.111-.264-4.468-.339-6.714-.11-3.346.071-6.669-1.137-9.961-.646-1.757-.354-3.882-.365-5.843-.036-6.178-.629-12.434.138-18.515.948-7.522.777-15.12,1.826-22.549.945-6.689.815-13.389,1.6-20.033,1.443-12.171,2.336-24.425,4.972-36.432.537-2.448,1.392-4.829,2.146-7.227,1.252-3.993,2.709-7.888,2.923-12.181a25.683,25.683,0,0,1,3.215-10.364c3.473-6.708,6.945-13.437,10.856-19.892a23.569,23.569,0,0,1,13.835-10.323,11.4,11.4,0,0,1,7.467.074c3.877,1.532,7.911,2.94,10.838,6.213a32.513,32.513,0,0,0,2.959,3c7.4,6.387,10.971,14.566,11.819,24.2a110.137,110.137,0,0,0,1.833,11.52,86.614,86.614,0,0,1,1.125,13.335,166.061,166.061,0,0,0,1.351,16.689c1.066,7.45.679,15.127.674,22.706q-.013,26.966-.278,53.933c-.036,4.461.014,8.88-1.137,13.344-.888,3.455-.518,7.259-.525,10.91q-.026,12.216.152,24.434a64.288,64.288,0,0,0,1.005,11.653c.964,4.894.544,10.067.672,15.12.157,6.15-.005,12.273,1.12,18.418.8,4.364.349,8.961.411,13.455.093,6.712-.328,13.424,1.438,20.063.7,2.652.294,5.589.485,8.391.3,4.447,1.719,8.705,1.588,13.291a45.493,45.493,0,0,0,1.579,13.253c1.911,6.9,1.712,13.826,1.631,20.811a97.153,97.153,0,0,0,3,23.2c.831,3.561-.2,7.372,1.714,10.716-.224,5.658,1.926,11,2.227,16.587a5.645,5.645,0,0,0,.059.84c1.724,8.471,3.41,16.95,5.231,25.4.283,1.315,1.187,2.5,2.222,4.582.727-4.257.762-7.755-.192-11.02a32.343,32.343,0,0,1-1.013-8.293,42.854,42.854,0,0,0-1.047-9.1c-1.18-4.829-.714-9.956-1.208-14.956-.43-4.355-1.146-8.752-.805-13.22.318-4.191.1-8.422.145-12.636.043-3.906-.394-7.842,1.028-11.656a9.366,9.366,0,0,0,.2-3.348,179.477,179.477,0,0,1,2.13-32.662c1.4-8.51.936-17.352,4.288-25.529,1.532-12.593,6.53-24.183,10.364-36.116a24.8,24.8,0,0,1,4.77-8.769,53.683,53.683,0,0,0,8.37-13.519c4.378-10.055,10.2-19.3,15.787-28.675,3.295-5.525,6.6-11.05,10.1-16.44,3.039-4.671,6.171-9.312,9.625-13.681A158.408,158.408,0,0,0,1898.069,151.708Zm-40.52,200.729q-3.314,12.8-6.6,25.612c-.031.123.361.351.611.58,1.553-.121,2.36-1.3,3.127-2.448,2.331-3.493,4.589-7.035,6.933-10.52.929-1.38,2-2.667,3.034-3.98,1.3-1.653,3.9-.6,5.105-2.367,1.313-6.354,2.681-12.617,5.774-18.328.81-1.5,1.65-2.985,1.351-4.747-.064-.384-.8-1-1.115-.94a12.109,12.109,0,0,0-6.553,3.426,46.5,46.5,0,0,0-9.766,14.139Zm3.683,41.344a23.341,23.341,0,0,0,2.436-7.9c.32-2.752,1.541-5.487,1.4-8.18-.126-2.462,2.531-4.5.531-7.959a71.959,71.959,0,0,1-13.391,13.812c.9,3.345,1.742,6.456,2.617,9.7-3.63-.4-2.058-4.174-5.02-5.9.632,3.673-.828,6.465-1.042,9.514-.038.556.036,1.119.045,1.679.021,1.32.617,2.035,2.123,1.911C1853.961,397.854,1856.06,393.689,1861.233,393.78Z" transform="translate(0)"/>
      <path id="Path_34" data-name="Path 34" d="M1685.623,111.95c.5-.211,1.2-.278,1.46-.653,4.231-6,10.3-10.115,15.459-15.163a2.255,2.255,0,0,1,.791-.306,4.042,4.042,0,0,1,2.614,2.987,4.09,4.09,0,0,1-1.393,3.77,8.129,8.129,0,0,1-2.629,2.035c-7.714,2.75-12.361,8.227-14.781,15.91-.392,1.244-1.977,2.1-2.393,3.345-.967,2.882-2.092,5.746-2.107,8.894-.05,9.827-.19,19.655-.252,29.482,0,.446.434.893.848,1.69,5.21-5.6,11.292-10.181,15.129-16.9a27.4,27.4,0,0,1,4.245-5.167c1.527-1.584,3.441-1.418,5.195.183,1.232,1.126,1.446,2.626.5,3.68a7.85,7.85,0,0,1-1.75,1.8c-6.242,3.424-10.518,9.191-16.058,13.479-3.231,2.5-5.428,6.337-8.2,9.7.6,7.752-.14,15.552,1.323,23.382.964,5.164.283,10.637.307,15.97.038,8.7-.01,17.406.1,26.108.053,4.172-.47,8.412,1.268,12.456a7.925,7.925,0,0,1,.192,3.341c-.392,8.172,2.035,16.079,2.254,24.206a28.875,28.875,0,0,0,1.562,7.351,28.115,28.115,0,0,1,1.5,8.23c-.01,2.628,1.328,4.718,2.258,6.992,2.3-.772,3.443-2.493,4.414-4.126,2.9-4.875,7.213-8.564,10.632-13a2.6,2.6,0,0,1,3.72-.4,3.5,3.5,0,0,1,.563,3.861,7.36,7.36,0,0,1-2.192,2.483c-8.507,4.088-12.451,11.675-15.578,19.84,1.695,9.395,3.374,18.7,5.05,28,1.372.294,1.969-.643,2.586-1.489,2.631-3.621,5.172-7.311,7.9-10.86a65.3,65.3,0,0,1,4.506-4.822c3.215,2.177,3.567,3.2,1.771,5.116-2.687,2.868-5.44,5.673-8.208,8.46-1.823,1.833-3.486,3.951-3.642,6.458-.188,3.044-2.023,5.112-3.3,7.391a342.282,342.282,0,0,0,14.123,49.971,96.489,96.489,0,0,1,3.917,13.636c1.88,9.535,6.688,17.737,11.171,26.111,1.842,3.441,3.811,6.815,5.582,10.291a2.136,2.136,0,0,1-1.085,3.009c-2.279-3.438-4.568-6.9-6.864-10.357a80.878,80.878,0,0,1-9.015-18.829,272.857,272.857,0,0,1-8.462-28.841,31.38,31.38,0,0,0-3.785-8.381c-.629-1.1-2.12-1.752-3.3-2.476-3.094-1.9-6.308-3.614-9.321-5.63a16.905,16.905,0,0,1-3.462-3.578c-.679-.841.053-3.257,1.085-3.723a2.914,2.914,0,0,1,3.175.142,8.691,8.691,0,0,1,2.149,2.521c1.385,2.65,3.605,4.108,6.522,5.064a7.076,7.076,0,0,0,.333-2.469c-1.809-6.987-3.818-13.913-5.3-20.991-.869-4.16-3.408-7.392-6.838-10.05a50.773,50.773,0,0,1-10.994-11.06c.252-.926.24-1.584.563-1.951,1.866-2.118,3.535-2.32,4.687-.589.769,1.154,1.334,2.443,2.08,3.614,1.047,1.643,2.109,3.282,3.288,4.832,1.059,1.391,2.953,2.018,3.473,1.377a3.7,3.7,0,0,0,.522-3.212q-2.089-11.091-3.409-22.295c-.29-2.45-1.263-4.818-2.007-7.532-5.307-2.9-9.464-7.446-13.667-11.924a30.826,30.826,0,0,1-3.455-4.739c-1.278-2.028-.948-2.712,2.37-5.426,2.89,1.969,3.614,5.44,5.217,8.239,1.714,3,4.234,4.993,6.584,7.584,1.931-2.553.181-4.241.057-5.983-.155-2.192-1.109-4.316-1.449-6.511-.3-1.93-.1-3.937-.363-5.876-.3-2.2-.921-4.355-1.32-6.544-.351-1.921-.307-3.963-.952-5.769a21.582,21.582,0,0,1-.814-6.636c-.079-1.959-.175-3.917-.287-6.394-3.258-3.39-7.163-6.708-10.106-10.73-2.833-3.87-6.587-6.871-9.295-10.552a6.042,6.042,0,0,1,1.921-3.884,5.936,5.936,0,0,1,4.578,3.206,84.363,84.363,0,0,0,5.338,8.536c1.246,1.726,2.429,3.789,4.927,4.077.356-.5.912-.923.917-1.348.062-6.738.232-13.484-.052-20.211a43.114,43.114,0,0,1-.019-5.67c.266-3.042.071-6.124.071-8.688-2.9-3.949-6.745-5.9-9.491-9.156-3.486-4.131-5.305-9.2-8.595-13.392a2.812,2.812,0,0,1-.029-2.419,13.374,13.374,0,0,1,2.068-2.572c4.48,2.4,3.9,7.406,6.27,10.711,2.434,3.388,4.723,6.878,7.085,10.338,1.907-1.254,2.481-2.819,2.033-4.443-1.064-3.873-.715-7.8-.817-11.717a99.766,99.766,0,0,0-.679-12.549c-.567-3.751.384-7.733.677-11.781-8.094-5.808-13.306-13.669-17.734-22.2.18-.406.262-1.068.637-1.363,1.852-1.472,3.189-1.434,4.131.123a57.655,57.655,0,0,1,2.813,5.15,67.3,67.3,0,0,0,7.171,11.274c2.172-.567,2.137-2.453,2.6-3.868a11.353,11.353,0,0,0,.144-3.343c.038-4.946-.727-9.834-.016-14.859.664-4.678.142-9.526.142-14.749-2.268-2.9-4.746-6.261-7.444-9.438a26.4,26.4,0,0,1-5.09-10.5c-.342-1.256.536-2.035,1.662-2.624,2.69.84,3.531,3.1,4.4,5.527a32.455,32.455,0,0,0,7.888,12.1c.166-5.076.479-9.787.432-14.493-.053-5.269,1.055-10.513.3-15.792a3.023,3.023,0,0,1,.067-1.667c2.7-5.3.441-9.046-3.626-12.4-4.3-3.549-5.9-8.8-7.968-13.662-.708-1.669-.263-3.851-.24-5.8.01-.943,1.868-1.57,2.676-1.009a5.037,5.037,0,0,1,2.4,4.183c.128,4.416,2.375,7.956,4.836,11.388a3.274,3.274,0,0,0,2.9,1.69,118.088,118.088,0,0,1,2.876-14.659,56.55,56.55,0,0,0,.973-9.167,26.649,26.649,0,0,1,4.276-12.551,3.463,3.463,0,0,1,4.411-1.458c.442.168.726.753,1.081,1.145.308,1.251-.53,2.1-1.059,3.061a33.764,33.764,0,0,0-4.245,11.76c-.187,1.37-.726,2.7-.885,4.069-.669,5.8-1.256,11.6-1.85,17.207,1.439,1.344,2.208.022,3.093-.275a7.6,7.6,0,0,0,2.111-1.322c3.533-2.749,7.022-5.554,10.578-8.275a2.992,2.992,0,0,1,3.83.116,3.71,3.71,0,0,1-.37,4.582,5.2,5.2,0,0,1-1.334,1c-4.01,1.47-7.268,3.989-10.562,6.676-2.9,2.369-5.693,4.471-6.2,8.448-3.573,2.2-2.854,5.8-2.875,9.092-.054,8.975-.007,17.952,0,26.927-.52.161-1.5.014-.708,1.057C1685.248,112.753,1685.434,112.351,1685.623,111.95Z" transform="translate(76.726 12.189)"/>
      <path id="Path_35" data-name="Path 35" d="M1706.38,305.342c.206.815.164,1.84.653,2.412a116.092,116.092,0,0,0,14.248,14.688c.86-3.612.4-6.688.37-9.725-.036-3.2,1.75-5.185,4.146-6.85.781-.544,2.593.233,2.638,1.147a5.877,5.877,0,0,1-.014,2.477c-1.888,4.252-1.961,8.73-1.65,13.208a10.8,10.8,0,0,1-1.389,5.824c4.316,4.2,7.057,9.894,12.13,13.838,1.5-2.344.534-4.568.779-6.66.131-1.109.228-2.229.461-3.317.342-1.6,2.885-2.123,4.151-.885a2.39,2.39,0,0,1,.487.66c.363.76.693,1.536,1.085,2.415-.149,3.55-2.355,6.695-2.452,10.411-.059,2.3-.033,4.343,1.126,6.446,2.028,3.675,3.827,7.481,5.6,11.287.418.9,1.316,1.814.7,3-.529.124-1.166.492-1.539.313a4.429,4.429,0,0,1-1.89-1.548c-2.825-4.818-5.558-9.692-8.253-14.431-3.03-1.018-5.748-2.9-8.932-1.118a.917.917,0,0,1-.817-.021,9.591,9.591,0,0,1-2.431-2.144,2.11,2.11,0,0,1,.869-2.89c.9-.636,1.873-1.171,3.037-1.888-1.826-2.666-3.545-5.411-5.5-7.976-2.6-3.416-6.7-3.714-10.476-4.563-1.351-.3-2.816-.136-4.15-.487a4.747,4.747,0,0,1-1.892-1.567,2.027,2.027,0,0,1,.95-3.307,18.173,18.173,0,0,1,2.488-.214c.831-.022,1.666.078,2.495.045.239-.009.465-.294,1.033-.682-3.694-4.647-7.382-8.956-13.926-9.523a57.689,57.689,0,0,1-8.146-1.709,3.811,3.811,0,0,1-2.674-4.594c.185-.981,1.612-2.192,2.4-1.913,2.3.826,4.58,1.729,6.807,2.578a1.642,1.642,0,0,0,.052-2.393c-2.348-2.415-4.782-4.751-7.075-7.218a15.023,15.023,0,0,0-11.264-4.8c-2.248-.043-4.492-.128-6.738-.193a6.606,6.606,0,0,1-4.469-2.046c-1.709-1.629-1.539-2.984.75-5.473,2.5.42,4.342,2.636,7.007,2.553a7.684,7.684,0,0,0,1.6-.4c-.109-.46-.066-1.075-.349-1.351-4.839-4.687-9.716-9.333-15.222-14.595-7.517.409-15.118-3.891-23.354-4.293-.7-2.963-.7-2.963,1.085-5.262a4.285,4.285,0,0,1,1.548-.047c2.892,1.044,5.758,2.153,8.626,3.263,1.3.5,2.562,1.19,4.38.105-4.877-6.012-9.576-12.054-15.352-17.553a28.9,28.9,0,0,1-11.953-2.939,22.761,22.761,0,0,0-11.356-2.526c-2.921.218-4.588-1.7-5.893-4.006-.49-.872.392-2.324,1.392-2.569a7.317,7.317,0,0,1,4.846.829c4.093,1.786,8.209,3.517,12.328,5.242a9.372,9.372,0,0,0,1.636.366c1.373-.743,1.026-1.752.263-2.638-2.015-2.337-4.032-4.682-6.185-6.89a39.822,39.822,0,0,1-6.518-7.956c-6.862-1.189-13.346-3.766-19.94-5.971a28.971,28.971,0,0,1-10.329-5.485c-1.18-1.049-1.389-2.374.116-3.533,3.32-.43,5.635,1.828,8.12,3.412a59.166,59.166,0,0,0,10.406,5.413c.9.347,2.009.114,4.884-.859a23.253,23.253,0,0,0-4.827-7.7c-4.59-5.3-7.783-11.6-12.548-16.813-2.555-2.8-4.252-6.662-5.458-10.333-1.26-3.832-3.848-6.774-5.509-10.29a51.17,51.17,0,0,0-6.519-9.718,84.847,84.847,0,0,1-6.257-9.894,8.5,8.5,0,0,1-.836-3.189,1.744,1.744,0,0,1,.675-1.372,1.923,1.923,0,0,1,1.569-.169,7.088,7.088,0,0,1,3.592,3.419c3.284,6.527,7.622,12.378,11.627,18.446a21.393,21.393,0,0,1,2.455,4.4c3.837,10.7,11.3,19.206,17.352,28.547,2.688,4.148,6.066,7.849,9.673,12.444-.223-7.728.531-14.666-1.049-21.6a41.568,41.568,0,0,1-.555-8.355c-.026-1.278.969-1.935,2.179-2.127a2.437,2.437,0,0,1,2.922,2.21c.076,1.674.04,3.355.029,5.034-.033,5.053.078,10.115-.152,15.162-.389,8.547,2.464,15.979,7.6,22.575a65.087,65.087,0,0,0,9.623,10.107c1.465-.109,1.62-.94,1.543-1.729-.6-6.117.13-12.28-1.268-18.41-.791-3.469-.263-7.275-.057-10.915a11.681,11.681,0,0,1,1.465-3.889,2.056,2.056,0,0,1,3.479-.085,4.726,4.726,0,0,1,1.163,2.122,13.41,13.41,0,0,1-.269,4.136c-1.343,5.665-2.6,11.273-1.484,17.2.513,2.723.131,5.6.3,8.407a22.33,22.33,0,0,0,5.2,13.745c3.618,4.3,7.22,8.5,11.68,11.929,5.572,4.285,10.283,9.479,15.245,14.412,3.186,3.168,6.466,6.24,9.692,9.367a2.932,2.932,0,0,0,2.972,1.009c1.2-1.446.72-3.2.717-4.823-.01-6.739-.133-13.477-.175-20.217a10.387,10.387,0,0,1,.349-3.315,2.228,2.228,0,0,1,2.65-1.5c.726.164,1.823.8,1.9,1.337.268,1.919.772,4.141.087,5.791-1.482,3.564-1.17,7.164-1.2,10.78-.049,5.6.043,11.2.074,16.606,3.706,4.673,8.521,7.873,11.259,12.895.688,1.261,2.249,1.586,3.709,1.639Z" transform="translate(10.413 100.295)"/>
      <path id="Path_36" data-name="Path 36" d="M1700.321,120.515c.174,2.241-.947,4.575-2.87,4.811-3.39.418-5.541,2.484-7.705,4.659-3.355,3.371-6.611,6.838-9.977,10.195a13.389,13.389,0,0,1-2.7,1.785.853.853,0,0,1-.8-.035c-.325-.392-.809-.947-.727-1.332a11.683,11.683,0,0,1,3.091-5.8c1.752-1.807,3.53-3.592,5.226-5.451,2.434-2.671,5.14-5.069,7.063-8.237,1.752-2.885,4.823-3.581,8.034-2.225C1699.6,119.163,1699.973,120.084,1700.321,120.515Z" transform="translate(87.21 78.125)"/>
      <path id="Path_37" data-name="Path 37" d="M1623.845,206.941c0-2.878.014-5.122,0-7.365-.016-2.073,1.14-3.692,2.073-5.39.47-.855,2.232-.771,2.916.1,1.083,1.373,2.113,3.073,1.211,4.62-1.493,2.557-1.233,5.43-2.08,8.078a7.772,7.772,0,0,0-.52,4.094c1.88,6.772.125,14.037,2.889,20.674.157.377-.22,1.042-.475,1.5-.271.494-1.572-.01-2-.739-.14-.24-.392-.428-.484-.679-.672-1.833-1.892-3.682-1.866-5.511C1625.6,219.568,1622.613,213.117,1623.845,206.941Z" transform="translate(49.388 132.962)"/>
      <path id="Path_38" data-name="Path 38" d="M1649.148,250.945c-.1-6.662-.225-13.323-.283-19.987-.019-2.246.243-4.473,1.959-6.178a2.919,2.919,0,0,1,2.975-.947,2.559,2.559,0,0,1,1.976,2.374c.086,1.075.3,2.415-.209,3.222-4.485,7.149-3.193,14.807-2.215,22.466-1.946,1.482-2.873-.917-4.367-1.149Z" transform="translate(67.81 154.891)"/>
      <path id="Path_39" data-name="Path 39" d="M1678.094,169.663a4.735,4.735,0,0,1-.133-5.456,54.437,54.437,0,0,1,12.437-14.578,10.3,10.3,0,0,1,6.762-2.847,1.706,1.706,0,0,1,1.748,1.444,2.163,2.163,0,0,1-.269,1.55,7.166,7.166,0,0,1-1.783,1.7c-1.61,1.083-3.256,2.12-4.938,3.091a25.06,25.06,0,0,0-11.062,12.145A4.686,4.686,0,0,1,1678.094,169.663Z" transform="translate(88.4 98.906)"/>
      <path id="Path_40" data-name="Path 40" d="M1705.926,222.885c-.174.216-.307.549-.532.631a17.352,17.352,0,0,0-11.575,13.109,3.632,3.632,0,0,1-.99,1.32,2.77,2.77,0,0,1-.7.423c-1.22-1.968-1.6-3.422-.9-4.853,1.714-3.485,3.476-6.948,5.373-10.335a18.509,18.509,0,0,1,2.7-3.17c1.038-1.135,2.417-1.221,3.837-1.163C1705.136,218.931,1705.71,219.724,1705.926,222.885Z" transform="translate(98.381 151.333)"/>
    </g>
  </g>
</svg>
